<svg xmlns="http://www.w3.org/2000/svg" xmlns:xlink="http://www.w3.org/1999/xlink" fill="none" version="1.1" width="16" height="16" viewBox="0 0 16 16"><defs><clipPath id="master_svg0_132_41313"><rect x="0" y="0" width="16" height="16" rx="0"/></clipPath></defs><g clip-path="url(#master_svg0_132_41313)"><g transform="matrix(-0.7071067690849304,0.7071067690849304,-0.7071067690849304,-0.7071067690849304,36.69749959564069,0.7974448293098249)"><path d="M25.38891375,22.3990234375Q28.43769375,22.3189234375,30.47059375,20.2860234375Q32.503493750000004,18.2531234375,32.58359375,15.2043434375L32.58369375,15.1990934375L32.58359375,15.1938434375Q32.503493750000004,12.1450534375,30.47059375,10.112173437500001Q28.437593749999998,8.0792552375,25.38891375,7.9991614375L25.38366375,7.9990234375L25.37841375,7.9991614375Q22.32966375,8.0792560375,20.29674375,10.112173437500001Q18.26382715,12.1450934375,18.18373175,15.1938434375L18.18359375,15.1990934375L18.18373175,15.2043434375Q18.26382435,18.253023437499998,20.29674375,20.2860234375Q22.32961375,22.3189234375,25.37841375,22.3990234375L25.38366375,22.399123437500002L25.38891375,22.3990234375ZM25.38366375,20.9990234375Q22.92036375,20.9365234375,21.28306375,19.2996234375Q19.64578375,17.6628534375,19.58372375,15.1991134375Q19.64626375,12.7358134375,21.28310375,11.0984934375Q22.91991375,9.4612134375,25.38364375,9.3991534375Q27.84698375,9.4616934375,29.48429375,11.0985334375Q31.12149375,12.7353434375,31.18359375,15.1990934375Q31.12109375,17.662443437500002,29.48419375,19.2997234375Q27.84741375,20.9369234375,25.38366375,20.9990234375ZM24.396203749999998,15.1990434375L23.11807375,16.4623534375L23.11382375,16.4665434375L23.10984375,16.4709834375Q22.918163749999998,16.6844734375,22.918163749999998,16.9640934375Q22.918163749999998,17.249933437499998,23.12524375,17.457013437500002Q23.33232375,17.6640934375,23.61816375,17.6640934375Q23.897783750000002,17.6640934375,24.11127375,17.472413437500002L24.11568375,17.4684534375L25.38416375,16.185993437500002L26.65135375,17.467153437500002L26.65435375,17.4699534375Q26.955613749999998,17.7505334375,27.33783375,17.6408334375Q27.717983750000002,17.5317234375,27.826463750000002,17.152033437500002Q27.93540375,16.770743437500002,27.655843750000003,16.4691334375L27.65289375,16.465953437499998L26.37156375,15.1985934375L27.65272375,13.9314034375L27.65551375,13.9284034375Q27.93610375,13.6271434375,27.82640375,13.244923437499999Q27.71729375,12.8647734375,27.33760375,12.756283437499999Q26.95631375,12.6473434375,26.65470375,12.9269134375L26.651523750000003,12.9298634375L25.38416375,14.2111834375L24.11568375,12.9287334375L24.11127375,12.9247734375Q23.897783750000002,12.7330934375,23.61816375,12.7330934375Q23.33232375,12.7330934375,23.12524375,12.9401734375Q22.918163749999998,13.1472534375,22.918163749999998,13.4330934375Q22.918163749999998,13.7127134375,23.10984375,13.9262034375L23.11380375,13.9306134375L24.396203749999998,15.1990434375Z" fill-rule="evenodd" fill="#000000" fill-opacity="1"/></g></g></svg>