<svg xmlns="http://www.w3.org/2000/svg" xmlns:xlink="http://www.w3.org/1999/xlink" fill="none" version="1.1" width="16" height="16" viewBox="0 0 16 16"><defs><clipPath id="master_svg0_132_41405"><rect x="0" y="0" width="16" height="16" rx="0"/></clipPath></defs><g clip-path="url(#master_svg0_132_41405)"><g><path d="M5.1999999523162845,1.7999999523162842L5.1999999523162845,1.4999999523162841Q5.1999999523162845,1.198150952316284,5.000919952316284,0.9990759523162842Q4.801839952316284,0.7999999523162842,4.499999952316284,0.7999999523162842Q4.198159952316284,0.7999999523162842,3.999079952316284,0.9990759523162842Q3.799999952316284,1.198150952316284,3.799999952316284,1.4999999523162841L3.799999952316284,1.7999999523162842L1.4999999523162841,1.7999999523162842Q1.198150952316284,1.7999999523162842,0.9990759523162842,1.999079952316284Q0.7999999523162842,2.198159952316284,0.7999999523162842,2.4999999523162844L0.7999999523162842,14.499999952316283Q0.7999999523162842,14.801799952316284,0.9990539523162842,15.000899952316285Q1.1980879523162842,15.199999952316285,1.4999999523162841,15.199999952316285L14.499999952316283,15.199999952316285Q14.801799952316284,15.199999952316285,15.000899952316285,15.000899952316285Q15.199999952316285,14.801799952316284,15.199999952316285,14.499999952316283L15.199999952316285,2.4999999523162844Q15.199999952316285,2.198089952316284,15.000899952316285,1.9990599523162842Q14.801799952316284,1.7999999523162842,14.499999952316283,1.7999999523162842L12.199999952316285,1.7999999523162842L12.199999952316285,1.4999999523162841Q12.199999952316285,1.1980879523162842,12.000899952316285,0.9990529523162842Q11.801799952316284,0.7999999523162842,11.499999952316283,0.7999999523162842Q11.198199952316283,0.7999999523162842,10.999099952316284,0.9990539523162842Q10.799999952316284,1.1980879523162842,10.799999952316284,1.4999999523162841L10.799999952316284,1.7999999523162842L5.1999999523162845,1.7999999523162842ZM13.799999952316284,4.799999952316284L13.799999952316284,3.199999952316284L12.199999952316285,3.199999952316284L12.199999952316285,3.4999999523162844Q12.199999952316285,3.8019099523162843,12.000899952316285,4.000939952316284Q11.801799952316284,4.1999999523162845,11.499999952316283,4.1999999523162845Q11.198199952316283,4.1999999523162845,10.999099952316284,4.000939952316284Q10.799999952316284,3.8019099523162843,10.799999952316284,3.4999999523162844L10.799999952316284,3.199999952316284L5.1999999523162845,3.199999952316284L5.1999999523162845,3.4999999523162844Q5.1999999523162845,3.8018399523162842,5.000919952316284,4.000919952316284Q4.801839952316284,4.1999999523162845,4.499999952316284,4.1999999523162845Q4.198159952316284,4.1999999523162845,3.999079952316284,4.000919952316284Q3.799999952316284,3.8018399523162842,3.799999952316284,3.4999999523162844L3.799999952316284,3.199999952316284L2.199999952316284,3.199999952316284L2.199999952316284,4.799999952316284L13.799999952316284,4.799999952316284ZM13.799999952316284,6.1999999523162845L2.199999952316284,6.1999999523162845L2.199999952316284,13.799999952316284L13.799999952316284,13.799999952316284L13.799999952316284,6.1999999523162845ZM4.499999952316284,7.799999952316284Q4.198159952316284,7.799999952316284,3.999079952316284,7.9990799523162845Q3.799999952316284,8.198159952316285,3.799999952316284,8.499999952316283Q3.799999952316284,8.801839952316284,3.999079952316284,9.000919952316284Q4.198159952316284,9.199999952316285,4.499999952316284,9.199999952316285L5.499999952316284,9.199999952316285Q5.801839952316284,9.199999952316285,6.000919952316284,9.000919952316284Q6.1999999523162845,8.801839952316284,6.1999999523162845,8.499999952316283Q6.1999999523162845,8.198159952316285,6.000919952316284,7.9990799523162845Q5.801839952316284,7.799999952316284,5.499999952316284,7.799999952316284L4.499999952316284,7.799999952316284ZM7.499999952316284,7.799999952316284Q7.198159952316284,7.799999952316284,6.9990799523162845,7.9990799523162845Q6.799999952316284,8.198159952316285,6.799999952316284,8.499999952316283Q6.799999952316284,8.801839952316284,6.9990799523162845,9.000919952316284Q7.198159952316284,9.199999952316285,7.499999952316284,9.199999952316285L8.499999952316283,9.199999952316285Q8.801839952316284,9.199999952316285,9.000919952316284,9.000919952316284Q9.199999952316285,8.801839952316284,9.199999952316285,8.499999952316283Q9.199999952316285,8.198159952316285,9.000919952316284,7.9990799523162845Q8.801839952316284,7.799999952316284,8.499999952316283,7.799999952316284L7.499999952316284,7.799999952316284ZM10.499999952316283,7.799999952316284Q10.198159952316285,7.799999952316284,9.999079952316285,7.9990799523162845Q9.799999952316284,8.198159952316285,9.799999952316284,8.499999952316283Q9.799999952316284,8.801839952316284,9.999079952316285,9.000919952316284Q10.198159952316285,9.199999952316285,10.499999952316283,9.199999952316285L11.499999952316283,9.199999952316285Q11.801799952316284,9.199999952316285,12.000899952316285,9.000939952316283Q12.199999952316285,8.801909952316285,12.199999952316285,8.499999952316283Q12.199999952316285,8.198089952316284,12.000899952316285,7.999059952316284Q11.801799952316284,7.799999952316284,11.499999952316283,7.799999952316284L10.499999952316283,7.799999952316284ZM4.499999952316284,10.799999952316284Q4.198089952316284,10.799999952316284,3.999059952316284,10.999099952316284Q3.799999952316284,11.198199952316283,3.799999952316284,11.499999952316283Q3.799999952316284,11.801799952316284,3.999059952316284,12.000899952316285Q4.198089952316284,12.199999952316285,4.499999952316284,12.199999952316285L5.499999952316284,12.199999952316285Q5.801909952316284,12.199999952316285,6.000939952316284,12.000899952316285Q6.1999999523162845,11.801799952316284,6.1999999523162845,11.499999952316283Q6.1999999523162845,11.198199952316283,6.000939952316284,10.999099952316284Q5.801909952316284,10.799999952316284,5.499999952316284,10.799999952316284L4.499999952316284,10.799999952316284ZM7.499999952316284,10.799999952316284Q7.198089952316284,10.799999952316284,6.999059952316284,10.999099952316284Q6.799999952316284,11.198199952316283,6.799999952316284,11.499999952316283Q6.799999952316284,11.801799952316284,6.999059952316284,12.000899952316285Q7.198089952316284,12.199999952316285,7.499999952316284,12.199999952316285L8.499999952316283,12.199999952316285Q8.801909952316285,12.199999952316285,9.000939952316283,12.000899952316285Q9.199999952316285,11.801799952316284,9.199999952316285,11.499999952316283Q9.199999952316285,11.198199952316283,9.000939952316283,10.999099952316284Q8.801909952316285,10.799999952316284,8.499999952316283,10.799999952316284L7.499999952316284,10.799999952316284ZM10.499999952316283,10.799999952316284Q10.198089952316284,10.799999952316284,9.999059952316284,10.999099952316284Q9.799999952316284,11.198199952316283,9.799999952316284,11.499999952316283Q9.799999952316284,11.801799952316284,9.999059952316284,12.000899952316285Q10.198089952316284,12.199999952316285,10.499999952316283,12.199999952316285L11.499999952316283,12.199999952316285Q11.801799952316284,12.199999952316285,12.000899952316285,12.000899952316285Q12.199999952316285,11.801799952316284,12.199999952316285,11.499999952316283Q12.199999952316285,11.198199952316283,12.000899952316285,10.999099952316284Q11.801799952316284,10.799999952316284,11.499999952316283,10.799999952316284L10.499999952316283,10.799999952316284Z" fill-rule="evenodd" fill="#000000" fill-opacity="1"/></g></g></svg>