<svg xmlns="http://www.w3.org/2000/svg" xmlns:xlink="http://www.w3.org/1999/xlink" fill="none" version="1.1" width="16" height="16" viewBox="0 0 16 16"><defs><clipPath id="master_svg0_292_07076"><rect x="0" y="0" width="16" height="16" rx="0"/></clipPath></defs><g clip-path="url(#master_svg0_292_07076)"><g><path d="M15.1998046875,1.19990234375L15.1998046875,14.79990234375C15.1998046875,15.24170234375,14.8416046875,15.59990234375,14.3998046875,15.59990234375L1.5998046875,15.59990234375C1.1579766875,15.59990234375,0.799804830551,15.24170234375,0.799804830551,14.79990234375L0.799804830551,9.19990234375C0.799804830551,8.75807234375,1.1579766875,8.39990234375,1.5998046875,8.39990234375C2.0416346875,8.39990234375,2.3998046875,8.75807234375,2.3998046875,9.19990234375L2.3998046875,13.99990234375L13.5998046875,13.99990234375L13.5998046875,1.99990234375L2.3998046875,1.99990234375L2.3998046875,3.59990234375C2.3998046875,4.041732343750001,2.0416346875,4.39990234375,1.5998046875,4.39990234375C1.1579766875,4.39990234375,0.799804830551,4.041732343750001,0.7998046875,3.59990234375L0.7998046875,1.19990234375C0.799804544449,0.7580743437499999,1.1579766875,0.399902486801,1.5998046875,0.39990234375L14.3998046875,0.39990234375C14.8416046875,0.399902486801,15.1998046875,0.7580743437499999,15.1998046875,1.19990234375ZM9.5918046875,10.01590234375L9.5918046875,7.16390234375L5.8798046875,7.16390234375L5.8798046875,8.01750234375C5.8785246875,8.15545234375,5.8036446875,8.28220234375,5.6834446875,8.34989234375C5.5632346875,8.41759234375,5.4160346875,8.41591234375,5.2974046875,8.345502343749999L2.5846046874999997,6.72790234375C2.3348146874999998,6.58057234375,2.3348146874999998,6.21923234375,2.5846046874999997,6.07190234375L5.2974046875,4.45430234375C5.5530846875,4.30378234375,5.8759846875,4.48563234375,5.8798046875,4.78230234375L5.8798046875,5.63590234375L10.3918046875,5.62790234375C10.8336046875,5.62790234375,11.1918046875,5.98607234375,11.1918046875,6.42790234375L11.1918046875,10.81590234375C11.1918046875,11.25770234375,10.8336046875,11.61590234375,10.3918046875,11.61590234375L5.5918046875,11.61590234375C5.1499746875,11.61590234375,4.7918046875,11.25770234375,4.7918046875,10.81590234375C4.7918046875,10.37407234375,5.1499746875,10.01590234375,5.5918046875,10.01590234375L9.5918046875,10.01590234375Z" fill="#282829" fill-opacity="1"/></g></g></svg>