<svg xmlns="http://www.w3.org/2000/svg" xmlns:xlink="http://www.w3.org/1999/xlink" fill="none" version="1.1" width="16" height="16" viewBox="0 0 16 16"><defs><clipPath id="master_svg0_132_41190"><rect x="0" y="0" width="16" height="16" rx="0"/></clipPath></defs><g clip-path="url(#master_svg0_132_41190)"><g><path d="M6.83085,15.017Q7.04223,14.7928,7.04223,14.4604Q7.041,14.1636,6.82803,13.9509Q6.61485,13.7381,6.31854,13.7381L1.57032,13.7381Q1.44455,13.7381,1.44455,13.5559L1.44434,8.03955L5.33496,8.03955Q5.61039,8.03955,5.80469,7.84473Q5.99944,7.64997,6,7.37451Q6,7.09908,5.80469,6.9043Q5.60993,6.70954,5.33496,6.70947L1.38867,6.70947L1.38867,4.83057L14.0557,4.83057L14.0557,5.93066Q14.0557,6.2282,14.2646,6.46338Q14.4829,6.70936,14.7773,6.70947Q15.0789,6.70947,15.2881,6.4873Q15.4993,6.26311,15.5,5.93066L15.5,1.7959Q15.4989,0.990961,15.0791,0.501465Q14.6489,0.0000496507,13.9287,0L1.57032,0Q0.928885,0,0.464163,0.513544Q0,1.02647,0,1.73965L0,13.5559Q0,14.2749,0.44374,14.7546Q0.89198,15.2391,1.57032,15.2391L6.31995,15.2391Q6.62149,15.2391,6.83085,15.017ZM1.38867,3.5L1.38811,1.73965Q1.38812,1.501,1.57032,1.501L13.8721,1.50098Q13.9859,1.50098,14.0059,1.521Q14.0542,1.56931,14.0537,1.7959L14.0537,3.5L1.38867,3.5Z" fill-rule="evenodd" fill="#282829" fill-opacity="1"/></g><g><path d="M0.9999996875,11L6.2685546875,11C6.6606846875,11,7.0000046875,11.327606,7.0000046875,11.731445C7.0000046875,12.13528,6.6606846875,12.46289,6.2685546875,12.46289L0.9999996875,12.46289C0.6078666875000001,12.46289,0.2685546875,12.13528,0.2685546875,11.731445C0.2685546875,11.327606,0.6078656874999999,11,0.9999996875,11Z" fill="#282829" fill-opacity="1"/></g><g><path d="M15.80294,12.99741L15.19724,12.650120000000001C15.39312,12.05531,15.39312,11.41528,15.19724,10.82047L15.80294,10.47318C15.98954,10.36628,16.054850000000002,10.13311,15.950040000000001,9.948L15.55201,9.28729C15.445969999999999,9.10064,15.203990000000001,9.03569,15.01553,9.14329L14.418479999999999,9.48212C13.980080000000001,9.02703,13.41417,8.70878,12.79174,8.56729L12.79174,7.881177C12.78708,7.669345,12.61025,7.5,12.393709999999999,7.5L11.60629,7.5C11.39124,7.5,11.21691,7.670658,11.21691,7.881177L11.21691,8.56729C10.59137,8.70723,10.02226,9.02559,9.58152,9.48212L8.98447,9.14329C8.796012,9.03569,8.554026,9.10064,8.447991,9.28729L8.0499581,9.948C7.9451544,10.13311,8.0104616,10.36628,8.197057,10.47318L8.802758,10.82047C8.606885,11.41528,8.606885,12.05531,8.802758,12.650120000000001L8.197057,12.99741C8.0104616,13.10431,7.9451531,13.33747,8.0499581,13.522590000000001L8.447991,14.18329C8.554026,14.36995,8.796012,14.434899999999999,8.98447,14.32729L9.58152,13.98847C10.019919999999999,14.44356,10.58583,14.761800000000001,11.20826,14.90329L11.20826,15.58941C11.20826,15.79993,11.38259,15.97059,11.59764,15.97059L12.38506,15.97059C12.60155,15.97064,12.77838,15.80129,12.78309,15.58941L12.78309,14.90329C13.40552,14.76181,13.97143,14.44356,14.40983,13.98847L15.006879999999999,14.32729C15.19534,14.434899999999999,15.43732,14.36995,15.54336,14.18329L15.94139,13.522590000000001C16.0477,13.33966,15.98641,13.107140000000001,15.80294,12.99741ZM12.00433,13.65812C10.91953,13.65812,10.04013,12.79724,10.04013,11.735289999999999C10.04013,10.67335,10.91953,9.81247,12.00433,9.81247C13.08913,9.81247,13.968530000000001,10.67335,13.968530000000001,11.735289999999999C13.97335,12.79919,13.09112,13.66284,12.00433,13.65812Z" fill="#282829" fill-opacity="1"/></g></g></svg>