<svg xmlns="http://www.w3.org/2000/svg" xmlns:xlink="http://www.w3.org/1999/xlink" fill="none" version="1.1" width="16" height="16" viewBox="0 0 16 16"><defs><clipPath id="master_svg0_132_41286"><rect x="0" y="0" width="16" height="16" rx="0"/></clipPath></defs><g clip-path="url(#master_svg0_132_41286)"><g><path d="M1.38397,6.51598L1.07524,6.70766C0.736382,6.88792,0.315826,6.77566,0.111881,6.4505C-0.0920632,6.12535,-0.0100469,5.69786,0.299754,5.47127L7.56666,1.105127C7.79012,0.9649577,8.07406,0.9649577,8.29752,1.105127L15.6083,5.472C15.9857,5.67013,16.1145,6.14763,15.8879,6.50865C15.6613,6.86967,15.1754,6.96134,14.8328,6.70766L14.538,6.52476L14.538,7.94917C14.538,8.35322,14.2105,8.68076,13.8064,8.68076L13.7771,8.68076C13.3751,8.67875,13.05,8.352689999999999,13.0492,7.95063L13.0441,5.60442L8.29752,2.75413C8.06968,2.60811,7.77767,2.60811,7.54983,2.75413L2.83399,5.62563L2.83399,14.1721L13.8064,14.1721C14.2105,14.1721,14.538,14.4996,14.538,14.9037C14.538,15.3077,14.2105,15.6353,13.8064,15.6353L2.09508,15.6316C1.70295,15.6316,1.38544,15.3009,1.38544,14.8934L1.38544,6.51598L1.38397,6.51598ZM6.49049,6.12092L9.41686,6.12092C9.80899,6.12092,10.1484,6.44868,10.1484,6.85251C10.1484,7.25635,9.80899,7.58411,9.41686,7.58411L6.49049,7.58411C6.09835,7.58411,5.75889,7.25635,5.75889,6.85251C5.75889,6.44868,6.09835,6.12092,6.49049,6.12092ZM6.57389,11.9649C6.18257,11.9589,5.87049,11.6363,5.87741,11.245C5.87961,10.84628,6.19346,10.52437,6.57974,10.52437L12.3432,10.53754L12.3432,9.92154C12.3432,9.85643,12.3608,9.79278,12.393,9.73645C12.4889,9.56699,12.7062,9.51091,12.8722,9.61281L14.8387,10.88505C15.0648,11.0288,15.0648,11.3588,14.8387,11.5025L12.8722,12.8999C12.8183,12.9332,12.7563,12.9509,12.6929,12.9511C12.497,12.9483,12.3404,12.7871,12.3432,12.5911L12.3432,11.978L6.57389,11.9649Z" fill="#282829" fill-opacity="1"/></g></g></svg>