<svg xmlns="http://www.w3.org/2000/svg" width="35" height="35" viewBox="0 0 35 35"><defs><style>.a{fill:none;}.b{fill:#ff6565;}.c{fill:#fff;}</style></defs><g transform="translate(-1333 -130)"><rect class="a" width="35" height="35" transform="translate(1333 130)"/><path class="b" d="M119,3.373,117.723,2.1h-11.14a2.543,2.543,0,0,0-2.543,2.543v18.32a2.543,2.543,0,0,0,2.543,2.543h15.165a2.543,2.543,0,0,0,2.543-2.543V8.675Zm-1.26,5.3V3.445l5.235,5.238-5.235-.007Z" transform="translate(1234.961 134.325)"/><circle class="c" cx="7" cy="7" r="7" transform="translate(1350.352 147)"/><path class="b" d="M4.293,5,3.232,3.939a.5.5,0,1,1,.707-.707L5,4.293,6.061,3.232a.5.5,0,1,1,.707.707L5.707,5,6.768,6.061a.5.5,0,1,1-.707.707L5,5.707,3.939,6.768a.5.5,0,1,1-.707-.707ZM5,10a5,5,0,1,1,5-5A5,5,0,0,1,5,10ZM5,9A4,4,0,1,0,1,5,4,4,0,0,0,5,9Z" transform="translate(1352 149)"/></g></svg>