<svg xmlns="http://www.w3.org/2000/svg" xmlns:xlink="http://www.w3.org/1999/xlink" fill="none" version="1.1" width="16" height="16" viewBox="0 0 16 16"><defs><clipPath id="master_svg0_132_41461"><rect x="0" y="0" width="16" height="16" rx="0"/></clipPath></defs><g clip-path="url(#master_svg0_132_41461)"><g><path d="M7.008801875,7.9996653125L2.902831875,12.0898453125L2.901366875,12.0908153125L2.895019875,12.0976553125Q2.703340055,12.3111553125,2.706054685,12.5888653125Q2.706054685,12.8746953125,2.910644875,13.0839953125Q3.117723875,13.2910953125,3.403319875,13.2899953125Q3.6829398749999998,13.2899953125,3.896481875,13.0985953125L3.903321875,13.0927953125L7.996761875,8.9866253125L12.092771875,13.0927953125L12.097651875,13.0946953125Q12.398921875,13.3752953125,12.779271875,13.2685953125Q13.159471875,13.1594953125,13.269571875,12.7763953125Q13.378471875,12.3950653125,13.097671875,12.0947253125L13.094271875,12.0937453125L8.984171875000001,7.9992253125L13.095671875,3.8994153125L13.096171875,3.9003953124999997Q13.376771875,3.5991273125,13.269071875,3.2138673125Q13.159971875,2.8337183125,12.777871875,2.7285156125Q12.396541875,2.6195745125,12.096191875,2.8964843125L12.094241875,2.8984373125L7.996761875,7.0118153125L3.898441875,2.8984373125L3.895991875,2.8955073125Q3.682502875,2.7038274425,3.403808875,2.7001953125Q3.117965875,2.700195789337,2.909667875,2.9091793125Q2.702589515,3.1162583125,2.701171875,3.4042973125Q2.701171875,3.6839163125,2.895995875,3.8955053125L2.897948875,3.8974653125L7.008801875,7.9996653125Z" fill-rule="evenodd" fill="#000000" fill-opacity="1"/></g></g></svg>