<svg xmlns="http://www.w3.org/2000/svg" xmlns:xlink="http://www.w3.org/1999/xlink" fill="none" version="1.1" width="16" height="16" viewBox="0 0 16 16"><defs><clipPath id="master_svg0_132_41311"><rect x="0" y="0" width="16" height="16" rx="0"/></clipPath></defs><g clip-path="url(#master_svg0_132_41311)"><g><path d="M8.0051246875,15.1998046875Q11.0539046875,15.1197046875,13.0868046875,13.0868046875Q15.1197046875,11.0539046875,15.1998046875,8.0051246875L15.1999046875,7.9998746875L15.1998046875,7.9946246875Q15.1197046875,4.9458346875,13.0868046875,2.9129546875Q11.0538046875,0.8800364875,8.0051246875,0.7999426875L7.9998746875,0.7998046875L7.9946246875,0.7999426875Q4.9458746875,0.8800372875,2.9129546875,2.9129546875Q0.8800380875,4.9458746875,0.7999426875,7.9946246875L0.7998046875,7.9998746875L0.7999426875,8.0051246875Q0.8800352875,11.0538046875,2.9129546875,13.0868046875Q4.9458246875,15.1197046875,7.9946246875,15.1998046875L7.9998746875,15.1999046875L8.0051246875,15.1998046875ZM7.9998746875,13.7998046875Q5.5365746875,13.7373046875,3.8992746875,12.1004046875Q2.2619946875,10.4636346875,2.1999346875,7.9998946875Q2.2624746875,5.5365946875,3.8993146875,3.8992746875Q5.5361246875,2.2619946875,7.9998546875,2.1999346875Q10.4631946875,2.2624746875,12.1005046875,3.8993146875Q13.7377046875,5.5361246875,13.7998046875,7.9998746875Q13.7373046875,10.4632246875,12.1004046875,12.1005046875Q10.4636246875,13.7377046875,7.9998746875,13.7998046875ZM7.0124146875,7.9998246875L5.7342846875,9.2631346875L5.7300346875,9.2673246875L5.7260546875,9.2717646875Q5.5343746875,9.4852546875,5.5343746875,9.7648746875Q5.5343746875,10.0507146875,5.7414546875,10.2577946875Q5.9485346875,10.4648746875,6.2343746875,10.4648746875Q6.5139946875,10.4648746875,6.7274846875,10.2731946875L6.7318946875,10.2692346875L8.000374687499999,8.9867746875L9.2675646875,10.2679346875L9.2705646875,10.2707346875Q9.5718246875,10.5513146875,9.9540446875,10.4416146875Q10.3341946875,10.3325046875,10.4426746875,9.9528146875Q10.5516146875,9.5715246875,10.2720546875,9.2699146875L10.2691046875,9.2667346875L8.9877746875,7.9993746875L10.2689346875,6.7321846875L10.2717246875,6.7291846875Q10.5523146875,6.4279246875,10.4426146875,6.0457046875Q10.3335046875,5.6655546875,9.9538146875,5.5570646875Q9.5725246875,5.4481246875,9.2709146875,5.7276946875L9.2677346875,5.7306446875L8.000374687499999,7.0119646875L6.7318946875,5.7295146875L6.7274846875,5.7255546875Q6.5139946875,5.5338746875,6.2343746875,5.5338746875Q5.9485346875,5.5338746875,5.7414546875,5.7409546875Q5.5343746875,5.9480346875,5.5343746875,6.2338746875Q5.5343746875,6.5134946875,5.7260546875,6.7269846875L5.7300146875,6.7313946875L7.0124146875,7.9998246875Z" fill-rule="evenodd" fill="#000000" fill-opacity="1"/></g></g></svg>