<svg xmlns="http://www.w3.org/2000/svg" xmlns:xlink="http://www.w3.org/1999/xlink" fill="none" version="1.1" width="16" height="16" viewBox="0 0 16 16"><defs><clipPath id="master_svg0_132_41183"><rect x="0" y="0" width="16" height="16" rx="0"/></clipPath></defs><g clip-path="url(#master_svg0_132_41183)"><g><path d="M1.6355594375,5.292787C1.8230874375,5.105316,2.0773954375,5,2.3425594375,5C2.6077234375,5,2.8620334375,5.105316,3.0495634375,5.292787C3.0495634375,5.292787,7.9995634375,10.24279,7.9995634375,10.24279C7.9995634375,10.24279,12.9495734375,5.292787,12.9495734375,5.292787C13.1381734375,5.110629,13.3907734375,5.00983372,13.6529734375,5.0121121C13.9151734375,5.0143906,14.1659734375,5.11956,14.3513734375,5.304968C14.5367734375,5.490376,14.6419734375,5.741188,14.6442734375,6.00339C14.6464734375,6.26558,14.5456734375,6.51818,14.3635734375,6.70679C14.3635734375,6.70679,8.7065634375,12.36379,8.7065634375,12.36379C8.5190334375,12.55126,8.264723437499999,12.65657,7.9995634375,12.65657C7.7343934375,12.65657,7.4800834375,12.55126,7.2925634375,12.36379C7.2925634375,12.36379,1.6355594375,6.70679,1.6355594375,6.70679C1.4480884375,6.51926,1.3427734375,6.26495,1.3427734375,5.999786C1.3427734375,5.734622,1.4480884375,5.480314,1.6355594375,5.292787C1.6355594375,5.292787,1.6355594375,5.292787,1.6355594375,5.292787C1.6355594375,5.292787,1.6355594375,5.292787,1.6355594375,5.292787Z" fill="#000000" fill-opacity="1"/></g></g></svg>