<svg xmlns="http://www.w3.org/2000/svg" xmlns:xlink="http://www.w3.org/1999/xlink" fill="none" version="1.1" width="16" height="16" viewBox="0 0 16 16"><defs><clipPath id="master_svg0_202_52267"><rect x="0" y="0" width="16" height="16" rx="0"/></clipPath></defs><g clip-path="url(#master_svg0_202_52267)"><g><path d="M15.7676,7.51698L13.3137,5.54379C12.909,5.21772,12.3063,5.50668,12.3063,6.02626L12.3063,7.51874L8.6666,7.51874L8.6666,3.69255L9.97175,3.69255C10.4913,3.69255,10.7803,3.09078,10.4542,2.68519L8.48192,0.231295C8.2345,-0.0770983,7.7644,-0.0770983,7.51698,0.231295L5.54379,2.68519C5.21772,3.0899,5.50668,3.69255,6.02626,3.69255L7.51874,3.69255L7.51874,7.51874L3.69255,7.51874L3.69255,6.02626C3.69255,5.50668,3.09078,5.21772,2.68519,5.54379L0.231295,7.51698C-0.0770983,7.7644,-0.0770983,8.2345,0.231295,8.48192L2.68519,10.4551C3.0899,10.7812,3.69255,10.4922,3.69255,9.97263L3.69255,8.66749L7.51874,8.66749L7.51874,12.3072L6.02626,12.3072C5.50668,12.3072,5.21772,12.909,5.54379,13.3146L7.51698,15.7685C7.7644,16.0769,8.2345,16.0769,8.48192,15.7685L10.4551,13.3146C10.7812,12.9099,10.4922,12.3072,9.97263,12.3072L8.66749,12.3072L8.66749,8.66749L12.3072,8.66749L12.3072,9.97263C12.3072,10.4922,12.909,10.7812,13.3146,10.4551L15.7685,8.48192C16.0769,8.2345,16.0769,7.7644,15.7685,7.51698L15.7676,7.51698Z" fill="#000000" fill-opacity="1"/></g></g></svg>