<svg xmlns="http://www.w3.org/2000/svg" xmlns:xlink="http://www.w3.org/1999/xlink" fill="none" version="1.1" width="16" height="16" viewBox="0 0 16 16"><defs><clipPath id="master_svg0_143_13730"><rect x="0" y="0" width="16" height="16" rx="0"/></clipPath><clipPath id="master_svg1_143_13731"><rect x="0" y="0" width="16" height="16" rx="0"/></clipPath></defs><g clip-path="url(#master_svg0_143_13730)"><g clip-path="url(#master_svg1_143_13731)"><g><g><path d="M12.803625390625001,6.94113L14.152085390625,5.64839Q14.424465390625,5.38727,14.521215390625,5.26818Q15.067095390625,4.59628,15.073435390625,3.72259Q15.079745390625,2.85208,14.547635390625,2.17005Q14.453535390625,2.0494399999999997,14.181595390625,1.7774969999999999Q13.892735390625,1.488635,13.775985390625,1.396921Q13.114635390625,0.877386,12.270255390625,0.870425Q11.428105390625,0.863484,10.756795390625001,1.36933Q10.638475390625,1.458484,10.371955390625,1.7139929999999999L8.969085390625,3.05889L7.0174153906250005,4.92992L7.017045390625,4.93028Q6.844824390625,5.09538,6.784865390625,5.15776Q6.092292390625,5.87825,5.810372990625,6.83804Q5.786006890625,6.92099,5.728074390625,7.1527L5.727944390625,7.15322L5.542005390625,7.89689L5.087416390625,9.71507Q5.038901390625,9.90911,5.087411390625,10.10315Q5.106521390625,10.17959,5.140177390625,10.25083Q5.173833390625,10.32207,5.220741390625,10.38538Q5.267649390625,10.44869,5.326006390625,10.50163Q5.384364390625,10.55457,5.451928390625,10.59511Q5.519493390625,10.63565,5.593668390625,10.66223Q5.667843390625,10.68881,5.745778390625,10.70041Q5.823713490625,10.712,5.902413490625,10.70817Q5.981113390625,10.70434,6.0575543906250005,10.68523L7.875795390625,10.23067L8.694185390625,10.02607Q8.917495390625,9.97025,8.995185390625,9.94753Q9.882945390625,9.68801,10.582025390624999,9.06673Q10.642025390625001,9.0134,10.785345390625,8.87601L12.803625390625001,6.94113ZM13.279395390625,4.25927Q13.245385390625,4.30114,13.044825390625,4.49341L12.754665390625,4.77158Q12.155985390625,4.7518899999999995,11.702045390624999,4.29795Q11.196885390624999,3.79279,11.229505390625,3.10836L11.479205390625001,2.86897Q11.677185390624999,2.6791799999999997,11.719665390625,2.64717Q12.259575390624999,2.2403399999999998,12.787585390625,2.65512Q12.829055390625001,2.6877,13.050225390625,2.9088700000000003Q13.252575390625001,3.11122,13.286145390625,3.15425Q13.722635390625001,3.71371,13.279395390625,4.25927ZM9.865965390625,4.41556L8.124675390625,6.0849L8.124305390625,6.08526Q7.975675390625,6.22774,7.938365390625,6.26656Q7.517105390625,6.7048,7.345515390625,7.28895Q7.330325390625,7.34067,7.280295390625,7.54079L7.280165390625,7.54131L7.094225390625,8.28499L6.963055390625,8.80961L7.487735390625,8.67844L8.306125390625,8.473849999999999Q8.498825390625,8.42567,8.546235390625,8.41181Q9.088855390625,8.25318,9.519165390625,7.87077Q9.556585390625,7.83751,9.678095390625,7.72102L11.416255390625,6.05468Q10.965945390625,5.82458,10.570675390625,5.42932Q10.102425390625001,4.961069999999999,9.865965390625,4.41556Z" fill-rule="evenodd" fill="#000000" fill-opacity="1"/></g><g><path d="M15.466633373069763,8.333333373069763L15.466633373069763,8.000003373069763Q15.466633373069763,7.921203373069763,15.451333373069764,7.843923373069763Q15.435933373069764,7.766643373069763,15.405733373069763,7.693853373069763Q15.375633373069762,7.621053373069763,15.331833373069763,7.555543373069763Q15.288033373069764,7.490033373069763,15.232333373069762,7.434313373069763Q15.176633373069762,7.3786033730697635,15.111133373069762,7.334823373069764Q15.045633373069764,7.291053373069763,14.972833373069763,7.260893373069763Q14.900033373069764,7.230743373069763,14.822733373069763,7.215373373069763Q14.745433373069764,7.200003373069763,14.666633373069763,7.200003373069763Q14.587833373069763,7.200003373069763,14.510633373069764,7.215373373069763Q14.433333373069763,7.230743373069763,14.360533373069764,7.260893373069763Q14.287733373069763,7.291053373069763,14.222233373069763,7.334823373069764Q14.156733373069763,7.3786033730697635,14.100933373069763,7.434313373069763Q14.045233373069763,7.490033373069763,14.001533373069764,7.555543373069763Q13.957733373069763,7.621053373069763,13.927533373069764,7.693853373069763Q13.897433373069763,7.766643373069763,13.882033373069763,7.843923373069763Q13.866633373069764,7.921203373069763,13.866633373069764,8.000003373069763L13.866633373069764,9.322913373069763Q13.866633373069764,11.936033373069764,13.589033373069762,12.487033373069764Q13.224733373069764,13.210233373069762,12.522533373069763,13.582933373069762Q11.987933373069763,13.866633373069764,9.292673373069764,13.866633373069764L6.675563373069763,13.866633373069764Q4.003763373069763,13.866733373069764,3.4674933730697632,13.591633373069763Q2.767373373069763,13.232633373069763,2.4083333730697634,12.532533373069763Q2.1333173730697634,11.996233373069764,2.133333373069763,9.324433373069763L2.133333373069763,9.292673373069764L2.133333373069763,7.999983373069763L2.133333373069763,6.707323373069763Q2.133333373069763,4.012043373069764,2.417053373069763,3.477493373069763Q2.7897533730697632,2.775273373069763,3.512963373069763,2.410933373069763Q4.063973373069763,2.133333373069763,6.677083373069763,2.133333373069763L7.666663373069763,2.133333373069763L8.000003373069763,2.133333373069763Q8.078793373069763,2.133333373069763,8.156073373069763,2.1179613730697633Q8.233353373069763,2.102589373069763,8.306143373069762,2.0724373730697634Q8.378943373069763,2.042284373069763,8.444453373069763,1.9985093730697632Q8.509973373069762,1.9547343730697633,8.565683373069763,1.8990183730697632Q8.621403373069764,1.8433033730697632,8.665173373069763,1.7777893730697631Q8.708953373069763,1.712275373069763,8.739103373069764,1.6394803730697631Q8.769253373069763,1.5666843730697633,8.784623373069763,1.4894053730697632Q8.800003373069764,1.4121264730697631,8.800003373069764,1.3333333730697632Q8.800003373069764,1.2545402730697632,8.784623373069763,1.1772613730697632Q8.769253373069763,1.099982373069763,8.739103373069764,1.0271863730697632Q8.708953373069763,0.9543913730697632,8.665173373069763,0.8888773730697632Q8.621403373069764,0.8233633730697631,8.565683373069763,0.7676483730697632Q8.509973373069762,0.7119323730697632,8.444453373069763,0.6681573730697632Q8.378943373069763,0.6243823730697632,8.306143373069762,0.5942293730697632Q8.233353373069763,0.5640773730697631,8.156073373069763,0.5487053730697632Q8.078793373069763,0.5333333730697631,8.000003373069763,0.5333333730697631L7.666663373069763,0.5333333730697631L6.677083373069763,0.5333333730697631Q3.683703373069763,0.5333333730697631,2.7930833730697633,0.9820213730697631Q1.6151683730697632,1.5754463730697632,1.003773373069763,2.7273933730697633Q0.5333333730697631,3.613753373069763,0.5333333730697631,6.707323373069763L0.5333333730697631,7.999983373069763L0.5333333730697631,9.292673373069764L0.5333333730697631,9.324423373069763Q0.5333153730697632,12.382533373069764,0.9846233730697631,13.262633373069763Q1.5787813730697633,14.421233373069763,2.737383373069763,15.015333373069764Q3.617433373069763,15.466633373069763,6.6755733730697635,15.466633373069763L9.292673373069764,15.466633373069763Q12.386233373069762,15.466633373069763,13.272633373069763,14.996233373069764Q14.424533373069764,14.384833373069764,15.017933373069763,13.206933373069763Q15.466633373069763,12.316333373069764,15.466633373069763,9.322913373069763L15.466633373069763,8.333333373069763Z" fill-rule="evenodd" fill="#000000" fill-opacity="1"/></g></g></g></g></svg>