<svg xmlns="http://www.w3.org/2000/svg" xmlns:xlink="http://www.w3.org/1999/xlink" fill="none" version="1.1" width="16" height="16" viewBox="0 0 16 16"><defs><clipPath id="master_svg0_132_41437"><rect x="0" y="0" width="16" height="16" rx="0"/></clipPath></defs><g clip-path="url(#master_svg0_132_41437)"><g><path d="M2.233871,13.032222747802734Q1.9173499999999999,13.032222747802734,1.708685,13.240959747802734Q1.5,13.449717747802735,1.5,13.766093747802735Q1.5,14.082462747802735,1.708686,14.291222747802735Q1.917351,14.499962747802734,2.233871,14.499962747802734L13.7661,14.499962747802734Q14.0826,14.499962747802734,14.2913,14.291252747802734Q14.5,14.082532747802734,14.5,13.766093747802735Q14.5,13.449640747802734,14.2913,13.240932747802734Q14.0826,13.032222747802734,13.7661,13.032222747802734L2.233871,13.032222747802734Z" fill-rule="evenodd" fill="#000000" fill-opacity="1"/></g><g transform="matrix(1,0,0,-1,0,22.8837890625)"><path d="M8.7342440625,18.51605453125L8.7342440625,12.17576553125C8.7342440625,11.77045953125,8.4056840625,11.44189453125,8.0003740625,11.44189453125C7.5950740625,11.44189453125,7.2665040625,11.77045953125,7.2665040625,12.17576553125L7.2665040625,18.63137453125L4.0122340625,15.37709453125C3.7268240625,15.091694531249999,3.2640920625,15.091694531249999,2.9786860625,15.37709453125C2.6932810625,15.66250453125,2.6932810625,16.12523453125,2.9786860625,16.41064453125L7.3720240625,20.80397453125C7.6918340625,21.12379453125,8.2103640625,21.12379453125,8.5301840625,20.80397453125L12.9151140625,16.419054531249998C13.2051140625,16.12904453125,13.2025140625,15.65802453125,12.9092140625,15.37129453125C12.6206140625,15.08908453125,12.1586140625,15.09168453125,11.8731740625,15.37712453125L8.7342440625,18.51605453125Z" fill-rule="evenodd" fill="#000000" fill-opacity="1"/></g></g></svg>