<svg xmlns="http://www.w3.org/2000/svg" xmlns:xlink="http://www.w3.org/1999/xlink" fill="none" version="1.1" width="16" height="16" viewBox="0 0 16 16"><defs><clipPath id="master_svg0_132_41452"><rect x="0" y="0" width="16" height="16" rx="0"/></clipPath></defs><g clip-path="url(#master_svg0_132_41452)"><g><path d="M11.66340001192093,2.13894L10.394930011920929,1.12417Q9.22955001192093,0.191865,7.709090011920929,0.191865Q6.188630011920929,0.191865,5.023250011920929,1.12417L3.754790011920929,2.13894L1.6010890119209291,3.8619Q1.1920928910669204e-8,5.14277,1.1920928910669204e-8,7.17689L1.1920928910669204e-8,10.3636L1.1920928910669204e-8,11.7254Q1.1920928910669204e-8,13.4879,1.2176410119209289,14.7367Q2.449480011920929,16,4.211760011920929,16L11.206400011920929,16Q12.968700011920928,16,14.200500011920928,14.7367Q15.418200011920929,13.4879,15.418200011920929,11.7254L15.418200011920929,7.17689Q15.418200011920929,5.14277,13.817100011920928,3.8619L11.66340001192093,2.13894ZM10.581820011920929,14.4L11.206400011920929,14.4Q12.294100011920928,14.4,13.05500001192093,13.6197Q13.81820001192093,12.837,13.81820001192093,11.7254L13.81820001192093,7.17689Q13.81820001192093,5.91177,12.817600011920929,5.11129L9.395410011920928,2.37356Q8.668300011920929,1.79186,7.709090011920929,1.79186Q6.749880011920929,1.79186,6.022770011920929,2.37356L4.754300011920929,3.38833L2.600600011920929,5.11129Q1.600000011920929,5.91177,1.600000011920929,7.17689L1.600000011920929,10.3636L1.600000011920929,11.7254Q1.600000011920929,12.837,2.363200011920929,13.6197Q3.124080011920929,14.4,4.211760011920929,14.4L4.836360011920929,14.4L4.836360011920929,9.6546Q4.836360011920929,8.74576,5.494670011920929,8.11078Q6.137300011920929,7.49091,7.036130011920929,7.49091L8.38206001192093,7.49091Q9.28088001192093,7.49091,9.923520011920928,8.11078Q10.581820011920929,8.74576,10.581820011920929,9.6546L10.581820011920929,11.7455L10.581820011920929,14.4ZM6.436360011920929,14.4L8.981820011920929,14.4L8.981820011920929,11.7455L8.981820011920929,9.6546Q8.981820011920929,9.09091,8.38206001192093,9.09091L7.036130011920929,9.09091Q6.436360011920929,9.09091,6.436360011920929,9.6546L6.436360011920929,14.4Z" fill-rule="evenodd" fill="#282829" fill-opacity="1"/></g></g></svg>