<svg xmlns="http://www.w3.org/2000/svg" xmlns:xlink="http://www.w3.org/1999/xlink" fill="none" version="1.1" width="16" height="16" viewBox="-0.2265625 -0.25390625 16 16"><defs><clipPath id="master_svg0_132_41440"><rect x="0" y="0" width="16" height="16" rx="0"/></clipPath></defs><g clip-path="url(#master_svg0_132_41440)"><g><path d="M8.734390000000001,8.57464828125L8.734390000000001,2.23435928125C8.734390000000001,1.82905328125,8.40583,1.50048828125,8.00052,1.50048828125C7.59522,1.50048828125,7.26665,1.82905328125,7.26665,2.23435928125L7.26665,8.68996828125L4.01238,5.43568828125C3.72697,5.15028828125,3.26424,5.15028828125,2.9788300000000003,5.43568828125C2.69343,5.72109828125,2.69343,6.18382828125,2.9788300000000003,6.46923828125L7.37217,10.86256828125C7.69198,11.18238828125,8.21051,11.18238828125,8.53033,10.86256828125L12.9153,6.47764828125C13.2053,6.18763828125,13.2026,5.71661828125,12.9094,5.429888281249999C12.6207,5.14767828125,12.1588,5.150278281249999,11.8733,5.43571828125L8.734390000000001,8.57464828125ZM2.233871,13.03218828125Q1.9173499999999999,13.03218828125,1.708685,13.24098828125Q1.5,13.44968828125,1.5,13.76608828125Q1.5,14.08248828125,1.708686,14.29118828125Q1.917351,14.49998828125,2.233871,14.49998828125L13.7661,14.49998828125Q14.0826,14.49998828125,14.2913,14.29128828125Q14.5,14.08248828125,14.5,13.76608828125Q14.5,13.44968828125,14.2913,13.24088828125Q14.0826,13.03218828125,13.7661,13.03218828125L2.233871,13.03218828125Z" fill-rule="evenodd" fill="#000000" fill-opacity="1"/></g></g></svg>