<svg xmlns="http://www.w3.org/2000/svg" xmlns:xlink="http://www.w3.org/1999/xlink" fill="none" version="1.1" width="16" height="16" viewBox="0 0 16 16"><defs><clipPath id="master_svg0_132_41328"><rect x="0" y="0" width="16" height="16" rx="0"/></clipPath></defs><g clip-path="url(#master_svg0_132_41328)"><g><path d="M1.6669921875,0.66650390625L6.3336621875,0.66650390625C6.8859421875,0.66650390625,7.3336621875,1.11421890625,7.3336621875,1.66650390625L7.3336621875,6.33317390625C7.3336621875,6.88545390625,6.8859421875,7.33317390625,6.3336621875,7.33317390625L1.6669921875,7.33317390625C1.1147071875,7.33317390625,0.6669921875,6.88545390625,0.6669921875,6.33317390625L0.6669921875,1.66650390625C0.6669921875,1.11421890625,1.1147071875,0.66650390625,1.6669921875,0.66650390625M2.0003221875,2.39983390625L2.0003221875,5.59983390625C2.0003221875,5.82075390625,2.1794121875,5.99983390625,2.4003221875,5.99983390625L5.6003221875,5.99983390625C5.8212421875,5.99983390625,6.0003221875,5.82075390625,6.0003221875,5.59983390625L6.0003221875,2.39983390625C6.0003221875,2.17892390625,5.8212421875,1.99983390625,5.6003221875,1.99983390625L2.4003221875,1.99983390625C2.1794121875,1.99983390625,2.0003221875,2.17892390625,2.0003221875,2.39983390625M1.6669921875,8.66650390625L6.3336621875,8.66650390625C6.8859421875,8.66650390625,7.3336621875,9.11421390625,7.3336621875,9.66650390625L7.3336621875,14.33320390625C7.3336621875,14.88550390625,6.8859421875,15.33320390625,6.3336621875,15.33320390625L1.6669921875,15.33320390625C1.1147071875,15.33320390625,0.6669921875,14.88550390625,0.6669921875,14.33320390625L0.6669921875,9.66650390625C0.6669921875,9.11421390625,1.1147071875,8.66650390625,1.6669921875,8.66650390625M2.0003221875,10.39983390625L2.0003221875,13.59980390625C2.0003221875,13.82070390625,2.1794121875,13.99980390625,2.4003221875,13.99980390625L5.6003221875,13.99980390625C5.8212421875,13.99980390625,6.0003221875,13.82070390625,6.0003221875,13.59980390625L6.0003221875,10.39983390625C6.0003221875,10.17892390625,5.8212421875,9.99983390625,5.6003221875,9.99983390625L2.4003221875,9.99983390625C2.1794121875,9.99983390625,2.0003221875,10.17892390625,2.0003221875,10.39983390625M9.6669921875,0.66650390625L14.3336921875,0.66650390625C14.8859921875,0.66650390625,15.3336921875,1.11421890625,15.3336921875,1.66650390625L15.3336921875,6.33317390625C15.3336921875,6.88545390625,14.8859921875,7.33317390625,14.3336921875,7.33317390625L9.6669921875,7.33317390625C9.1147021875,7.33317390625,8.6669921875,6.88545390625,8.6669921875,6.33317390625L8.6669921875,1.66650390625C8.6669921875,1.11421890625,9.1147021875,0.66650390625,9.6669921875,0.66650390625M10.0003221875,2.39983390625L10.0003221875,5.59983390625C10.0003221875,5.82075390625,10.1794121875,5.99983390625,10.4003221875,5.99983390625L13.6002921875,5.99983390625C13.8211921875,5.99983390625,14.0002921875,5.82075390625,14.0002921875,5.59983390625L14.0002921875,2.39983390625C14.0002921875,2.17892390625,13.8211921875,1.99983390625,13.6002921875,1.99983390625L10.4003221875,1.99983390625C10.1794121875,1.99983390625,10.0003221875,2.17892390625,10.0003221875,2.39983390625" fill="#282829" fill-opacity="1"/></g><g><path d="M15.527775312500001,13.1100446875L14.9977853125,12.806154687500001C15.1691753125,12.2856946875,15.1691753125,11.7256746875,14.9977853125,11.2052146875L15.527775312500001,10.9013346875C15.6910453125,10.8077946875,15.7481853125,10.6037746875,15.6564853125,10.4418046875L15.3082053125,9.8636846875C15.215425312499999,9.7003646875,15.0036853125,9.6435346875,14.8387853125,9.7376846875L14.3163653125,10.0341546875C13.932765312499999,9.6359546875,13.437595312500001,9.357494687500001,12.8929653125,9.2336876875L12.8929653125,8.6333346875C12.8888953125,8.4479816875,12.7341653125,8.2998046875,12.5446853125,8.2998046875L11.8557053125,8.2998046875C11.6675353125,8.2998046875,11.5149953125,8.4491306875,11.5149953125,8.6333346875L11.5149953125,9.2336876875C10.9676453125,9.356134687499999,10.4696753125,9.6346946875,10.0840253125,10.0341546875L9.5616063125,9.7376846875C9.3967063125,9.6435346875,9.1849683125,9.7003646875,9.0921873125,9.8636846875L8.7439087125,10.4418046875C8.6522054125,10.6037846875,8.7093492425,10.8077946875,8.8726203125,10.9013346875L9.4026093125,11.2052146875C9.2312203125,11.7256746875,9.2312203125,12.2856946875,9.4026093125,12.806154687500001L8.8726203125,13.1100446875C8.7093492425,13.2035746875,8.6522042125,13.4075946875,8.7439087125,13.569574687500001L9.0921873125,14.1476846875C9.1849683125,14.311004687499999,9.3967063125,14.3678446875,9.5616063125,14.273684687500001L10.0840253125,13.9772146875C10.467625312500001,14.375414687500001,10.962795312499999,14.6538846875,11.5074253125,14.777684687499999L11.5074253125,15.378044687500001C11.5074253125,15.5622446875,11.659965312499999,15.7115746875,11.8481353125,15.7115746875L12.5371153125,15.7115746875C12.7265453125,15.7116146875,12.8812753125,15.5634346875,12.8853953125,15.378044687500001L12.8853953125,14.777684687499999C13.4300253125,14.6538846875,13.9251953125,14.3754246875,14.3087953125,13.9772146875L14.8312153125,14.273684687500001C14.996115312499999,14.3678446875,15.2078553125,14.311004687499999,15.300635312499999,14.1476846875L15.6489153125,13.569574687500001C15.7419353125,13.4095046875,15.688305312499999,13.2060546875,15.527775312500001,13.1100446875ZM12.2039853125,13.688154687499999C11.254785312500001,13.688154687499999,10.4853053125,12.9348946875,10.4853053125,12.0056846875C10.4853053125,11.076484687499999,11.254785312500001,10.3232146875,12.2039853125,10.3232146875C13.1531853125,10.3232146875,13.922665312500001,11.076484687499999,13.922665312500001,12.0056846875C13.9268753125,12.936594687500001,13.1549253125,13.692284687499999,12.2039853125,13.688154687499999Z" fill="#282829" fill-opacity="1"/></g></g></svg>