<svg xmlns="http://www.w3.org/2000/svg" xmlns:xlink="http://www.w3.org/1999/xlink" fill="none" version="1.1" width="16" height="16" viewBox="0 0 16 16"><defs><clipPath id="master_svg0_132_41442"><rect x="0" y="0" width="16" height="16" rx="0"/></clipPath></defs><g clip-path="url(#master_svg0_132_41442)"><g><g><path d="M1.38348,5.51626L1.07489,5.70767C0.736028,5.88793,0.315942,5.77599,0.111997,5.45083C-0.0919473,5.12567,-0.0103042,4.69793,0.299497,4.47134L7.5661,0.105127C7.78956,-0.0350423,8.07409,-0.0350423,8.29754,0.105127L15.6081,4.47231C15.9855,4.67044,16.114,5.14791,15.8874,5.50894C15.6608,5.86996,15.1752,5.96134,14.8327,5.70767L14.5378,5.52505L14.5378,5.94937C14.5378,6.35341,14.2104,6.68081,13.8063,6.68081L13.777,6.68081C13.375,6.6788,13.0493,6.35288,13.0485,5.95083L13.0436,4.60464L8.29754,1.75405C8.06971,1.60803,7.77734,1.60803,7.5495,1.75405L2.83368,4.62563L2.83368,14.1722L13.8061,14.1722C14.2101,14.1722,14.5377,14.4998,14.5377,14.9038C14.5377,15.3079,14.2101,15.6354,13.8061,15.6354L2.09477,15.6318C1.70264,15.6318,1.38513,15.3011,1.38513,14.8936L1.38543,5.51626L1.38348,5.51626ZM4.63965,5.21777L7.26855,5.21777C7.66069,5.21777,8,5.54538,8,5.94922C8,6.35306,7.66069,6.68066,7.26855,6.68066L4.63965,6.68066C4.24752,6.68066,3.9082,6.35306,3.9082,5.94922C3.9082,5.54538,4.24751,5.21777,4.63965,5.21777Z" fill="#282829" fill-opacity="1"/></g><g><path d="M4.731445,8L8,8C8.39213,8,8.731449999999999,8.327606,8.731449999999999,8.731445C8.731449999999999,9.13528,8.39213,9.46289,8,9.46289L4.731445,9.46289C4.339312,9.46289,4,9.13528,4,8.731445C4,8.327606,4.339311,8,4.731445,8Z" fill="#282829" fill-opacity="1"/></g><g><path d="M4.731445,11L8.768550000000001,11C9.160689999999999,11,9.5,11.327606,9.5,11.731445C9.5,12.13528,9.160689999999999,12.46289,8.768550000000001,12.46289L4.731445,12.46289C4.339312,12.46289,4,12.13528,4,11.731445C4,11.327606,4.339311,11,4.731445,11Z" fill="#282829" fill-opacity="1"/></g><g><path d="M15.8491846875,11.49385L15.4184146875,11.24154C15.557714687499999,10.80941,15.557714687499999,10.34444,15.4184146875,9.91231L15.8491846875,9.66C15.9818846875,9.58234,16.0283346875,9.41295,15.9537946875,9.278459999999999L15.6707146875,8.79846C15.5953046875,8.66286,15.4232146875,8.61567,15.2891846875,8.69385L14.8645646875,8.94C14.552774687500001,8.60938,14.1503146875,8.378177,13.7076446875,8.275385L13.7076446875,7.776923C13.7043346875,7.623029,13.5785746875,7.5,13.4245646875,7.5L12.8645646875,7.5C12.7116246875,7.5,12.5876446875,7.623982,12.5876446875,7.776923L12.5876446875,8.275385C12.1427646875,8.37705,11.7380146875,8.60834,11.4245646875,8.94L10.9999496875,8.69385C10.8659206875,8.61567,10.693822687499999,8.66286,10.6184116875,8.79846L10.3353343875,9.278459999999999C10.2607990875,9.41295,10.3072448975,9.58234,10.4399496875,9.66L10.8707186875,9.91231C10.7314156875,10.34444,10.7314156875,10.80941,10.8707186875,11.24154L10.4399496875,11.49385C10.3072448975,11.57151,10.2607980875,11.7409,10.3353343875,11.87539L10.6184116875,12.35538C10.693822687499999,12.49099,10.8659206875,12.53818,10.9999496875,12.46L11.4245646875,12.21385C11.7363546875,12.54447,12.1388246875,12.77567,12.5814846875,12.87846L12.5814846875,13.37692C12.5814846875,13.52986,12.7054746875,13.65385,12.8584146875,13.65385L13.4184146875,13.65385C13.5723746875,13.653880000000001,13.698144687500001,13.530850000000001,13.7014946875,13.37692L13.7014946875,12.87846C14.1441546875,12.77567,14.5466246875,12.54447,14.8584146875,12.21385L15.2830246875,12.46C15.4170546875,12.53818,15.589154687499999,12.49099,15.6645646875,12.35538L15.9476446875,11.87539C16.0232546875,11.74249,15.9796646875,11.57356,15.8491846875,11.49385ZM13.1476446875,11.973849999999999C12.3761446875,11.973849999999999,11.7507246875,11.34842,11.7507246875,10.57692C11.7507246875,9.80542,12.3761446875,9.18,13.1476446875,9.18C13.9191446875,9.18,14.5445646875,9.80542,14.5445646875,10.57692C14.547994687500001,11.34984,13.920554687500001,11.97727,13.1476446875,11.973849999999999Z" fill="#282829" fill-opacity="1"/></g></g></g></svg>