<svg xmlns="http://www.w3.org/2000/svg" xmlns:xlink="http://www.w3.org/1999/xlink" fill="none" version="1.1" width="16" height="16" viewBox="0 0 16 16"><defs><clipPath id="master_svg0_132_41231"><rect x="0" y="0" width="16" height="16" rx="0"/></clipPath></defs><g clip-path="url(#master_svg0_132_41231)"><g><path d="M10.7065634375,1.6359995581970215C10.8940334375,1.8235275581970214,10.9993434375,2.0778355581970214,10.9993434375,2.3429995581970213C10.9993434375,2.6081635581970213,10.8940334375,2.8624735581970215,10.7065634375,3.0500035581970213C10.7065634375,3.0500035581970213,5.7565634375000005,8.000003558197022,5.7565634375000005,8.000003558197022C5.7565634375000005,8.000003558197022,10.7065634375,12.950013558197021,10.7065634375,12.950013558197021C10.8887134375,13.138613558197022,10.989513437500001,13.391213558197022,10.987233437499999,13.653413558197022C10.9849534375,13.915613558197022,10.8797834375,14.166413558197021,10.694373437500001,14.351813558197021C10.5089734375,14.537213558197022,10.258153437499999,14.642413558197022,9.9959634375,14.644713558197022C9.7337634375,14.64691355819702,9.481163437500001,14.546113558197021,9.2925634375,14.364013558197021C9.2925634375,14.364013558197021,3.6355594375,8.707003558197021,3.6355594375,8.707003558197021C3.4480884375,8.51947355819702,3.3427734375000004,8.26516355819702,3.3427734375,8.000003558197022C3.3427734374999996,7.734833558197021,3.4480884375,7.480523558197022,3.6355594375,7.293003558197022C3.6355594375,7.293003558197022,9.2925634375,1.6359995581970215,9.2925634375,1.6359995581970215C9.4800834375,1.4485285581970215,9.7343934375,1.3432135581970217,9.9995634375,1.3432135581970215C10.264723437499999,1.3432135581970215,10.5190334375,1.4485285581970215,10.7065634375,1.6359995581970215C10.7065634375,1.6359995581970215,10.7065634375,1.6359995581970215,10.7065634375,1.6359995581970215C10.7065634375,1.6359995581970215,10.7065634375,1.6359995581970215,10.7065634375,1.6359995581970215Z" fill="#000000" fill-opacity="1"/></g></g></svg>