<svg xmlns="http://www.w3.org/2000/svg" xmlns:xlink="http://www.w3.org/1999/xlink" fill="none" version="1.1" width="16" height="16" viewBox="0 0 16 16"><defs><clipPath id="master_svg0_132_41334"><rect x="0" y="0" width="16" height="16" rx="0"/></clipPath></defs><g clip-path="url(#master_svg0_132_41334)"><g><path d="M12.92,3.09944e-7C13.4709,0.0000263453,13.9745,0.31128,14.2208,0.804L16,4.364L16,14.5456C15.9996,15.3487,15.3487,15.9996,14.5456,16L1.4544,16C0.651157,16,1.54972e-7,15.3488,0,14.5456L0,4.364L1.78,0.804C2.02648,0.311022,2.53044,-0.000276625,3.0816,3.09944e-7L12.9192,3.09944e-7L12.92,3.09944e-7ZM14.5456,5.8184L1.4544,5.8184L1.4544,14.5456L14.5456,14.5456L14.5456,5.8176L14.5456,5.8184ZM4.364,7.272C4.76544,7.27244,5.09076,7.59776,5.0912,7.9992L5.0912,12.3624C5.07819,12.7549,4.75627,13.0663,4.3636,13.0663C3.97093,13.0663,3.64901,12.7549,3.636,12.3624L3.636,8C3.636,7.59794,3.96194,7.272,4.364,7.272ZM8,7.272C8.40193,7.27156,8.728,7.59727,8.728,7.9992L8.728,12.3624C8.728,12.7645,8.40207,13.0904,8,13.0904C7.59794,13.0904,7.272,12.7645,7.272,12.3624L7.272,8C7.27156,7.59775,7.59775,7.27156,8,7.272ZM11.6368,7.272C12.0384,7.272,12.364,7.59758,12.364,7.9992L12.364,12.3624C12.364,12.7642,12.0382,13.09,11.6364,13.09C11.2346,13.09,10.9088,12.7642,10.9088,12.3624L10.9088,8C10.9084,7.59775,11.2346,7.27156,11.6368,7.272ZM12.9192,1.4536L3.0808,1.4536L1.624,4.364L14.3728,4.364L12.92,1.4544L12.9192,1.4536Z" fill="#282829" fill-opacity="1"/></g></g></svg>