<svg xmlns="http://www.w3.org/2000/svg" xmlns:xlink="http://www.w3.org/1999/xlink" fill="none" version="1.1" width="16" height="16" viewBox="0 0 16 16"><defs><clipPath id="master_svg0_163_17223"><rect x="0" y="0" width="16" height="16" rx="0"/></clipPath></defs><g clip-path="url(#master_svg0_163_17223)"><g><path d="M0.46142578125,15L0.46142578125,1C0.46142578125,0.447715,0.90914078125,0,1.46142578125,0L12.35262578125,0C12.67852578125,0,12.98402578125,0.15881,13.17122578125,0.425578L15.35762578125,3.54125C15.47572578125,3.70952,15.53902578125,3.9101,15.53902578125,4.11567L15.53902578125,15C15.53902578125,15.5523,15.09132578125,16,14.53902578125,16L1.46142578125,16C0.90914078125,16,0.46142578125,15.5523,0.46142578125,15M13.87072578125,4.54534L12.36322578125,2.06612C12.25442578125,1.88711,12.06012578125,1.77783,11.85062578125,1.77783L2.64296578125,1.77783C2.3115957812500003,1.77783,2.04296578125,2.04646,2.04296578125,2.37783L2.04296578125,13.6222C2.04296578125,13.9535,2.3115957812500003,14.2222,2.64296578125,14.2222L13.35802578125,14.2222C13.68942578125,14.2222,13.95802578125,13.9535,13.95802578125,13.6222L13.95802578125,4.85705C13.95802578125,4.74711,13.92782578125,4.63928,13.87072578125,4.54534M11.48142578125,8L11.48142578125,11.7852L8.05419578125,13.563L4.58154578125,11.7852L4.58154578125,8L8.05419578125,6.22217L11.48142578125,8ZM5.95410578125,10.896L8.05419578125,11.9893L10.05419578125,10.896L10.05419578125,8.88867L8.05419578125,7.7998L5.95410578125,8.88867L5.95410578125,10.896ZM5.26538578125,3.7998L10.84252578125,3.7998C11.26602578125,3.7998,11.60932578125,4.14313,11.60932578125,4.56665C11.60932578125,4.99017,11.26602578125,5.3335,10.84252578125,5.3335L5.26538578125,5.3335C4.84186578125,5.3335,4.49853578125,4.99017,4.49853578125,4.56665C4.49853578125,4.14313,4.84186578125,3.7998,5.26538578125,3.7998" fill="#282829" fill-opacity="1"/></g></g></svg>