<svg xmlns="http://www.w3.org/2000/svg" width="35" height="35" viewBox="0 0 35 35"><defs><style>.a{fill:none;}.b,.d{fill:#3b3b3b;}.c{fill:#fff;}.d{stroke:#3b3b3b;stroke-width:0.2px;}</style></defs><g transform="translate(-1113 -130)"><rect class="a" width="35" height="35" transform="translate(1113 130)"/><path class="b" d="M119,3.373,117.723,2.1h-11.14a2.543,2.543,0,0,0-2.543,2.543v18.32a2.543,2.543,0,0,0,2.543,2.543h15.165a2.543,2.543,0,0,0,2.543-2.543V8.675Zm-1.26,5.3V3.445l5.235,5.238-5.235-.007Z" transform="translate(1014.961 134.325)"/><circle class="c" cx="7" cy="7" r="7" transform="translate(1130.352 147)"/><rect class="a" width="35" height="35" transform="translate(1113 130)"/><path class="d" d="M5.135,7.109a4.669,4.669,0,0,0,2.12-.532A6.938,6.938,0,0,0,8.848,5.438a8.865,8.865,0,0,0,1.38-1.645.4.4,0,0,0,.059-.238.4.4,0,0,0-.041-.208,7.017,7.017,0,0,0-1.25-1.668A6.073,6.073,0,0,0,7.412.53,5.057,5.057,0,0,0,5.153,0a4.669,4.669,0,0,0-2.12.532A6.939,6.939,0,0,0,1.44,1.671,8.848,8.848,0,0,0,.06,3.316.4.4,0,0,0,0,3.554a.4.4,0,0,0,.041.208A7.016,7.016,0,0,0,1.293,5.43,6.069,6.069,0,0,0,2.876,6.579a5.057,5.057,0,0,0,2.259.53ZM9.427,3.538A8.48,8.48,0,0,1,8.28,4.862,4.807,4.807,0,0,1,5.135,6.3,4.545,4.545,0,0,1,1.88,4.875a6.58,6.58,0,0,1-1.02-1.3A8.484,8.484,0,0,1,2.007,2.247,4.807,4.807,0,0,1,5.153.808,4.545,4.545,0,0,1,8.407,2.235,6.576,6.576,0,0,1,9.427,3.538ZM5.144,5.511A1.948,1.948,0,1,0,3.2,3.564,1.95,1.95,0,0,0,5.144,5.511Zm0-3.087A1.14,1.14,0,1,1,4,3.564a1.14,1.14,0,0,1,1.14-1.139Z" transform="translate(1132.207 150.445)"/></g></svg>