<svg xmlns="http://www.w3.org/2000/svg" width="35" height="35" viewBox="0 0 35 35"><defs><style>.a{fill:none;}.b{fill:#3b3b3b;}</style></defs><g transform="translate(-1112 -130)"><rect class="a" width="35" height="35" transform="translate(1112 130)"/><path class="b" d="M213.021,198.727h2.523a1.682,1.682,0,0,1,1.682,1.682v8.408a1.682,1.682,0,0,1-1.682,1.682H214.7v-1.682a3.363,3.363,0,0,0-3.363-3.363H197.886a3.363,3.363,0,0,0-3.363,3.363V210.5h-.841A1.682,1.682,0,0,1,192,208.817v-8.408a1.682,1.682,0,0,1,1.682-1.682h19.339Zm0-1.682H196.2v-3.363A1.682,1.682,0,0,1,197.886,192h13.453a1.682,1.682,0,0,1,1.682,1.682Zm-15.135,10.09h13.454a1.682,1.682,0,0,1,1.682,1.682v3.243a1.682,1.682,0,0,1-1.682,1.682H197.886a1.682,1.682,0,0,1-1.682-1.682v-3.243A1.682,1.682,0,0,1,197.886,207.135ZM210.5,201.25a.841.841,0,1,0,0,1.682h1.682a.841.841,0,0,0,0-1.682Z" transform="translate(925 -54.371)"/></g></svg>