<svg xmlns="http://www.w3.org/2000/svg" xmlns:xlink="http://www.w3.org/1999/xlink" fill="none" version="1.1" width="16" height="16" viewBox="0 0 16 16"><defs><clipPath id="master_svg0_132_41308"><rect x="0" y="0" width="16" height="16" rx="0"/></clipPath><clipPath id="master_svg1_132_41309"><rect x="0" y="0" width="16" height="16" rx="0"/></clipPath></defs><g clip-path="url(#master_svg0_132_41308)"><g clip-path="url(#master_svg1_132_41309)"><g><path d="M12.3333,11.25510078125L12.3333,14.14400078125C12.3333,14.54290078125,12.01,14.86620078125,11.6111,14.86620078125L4.38889,14.86620078125C3.99002,14.86620078125,3.66667,14.54290078125,3.66667,14.14400078125L3.66667,11.25510078125L2.58333,11.25510078125C1.985025,11.25510078125,1.5000000000000193,10.77007078125,1.5000000000000193,10.17176078125L1.5000000000000193,5.47732078125C1.499999870857,4.679580781249999,2.1467,4.03288078125,2.94444,4.03288078125L3.66667,4.03288078125L3.66699,1.85546878125C3.66699,1.45659678125,3.9898,1.13330078125,4.388669999999999,1.13330078125L11.6113,1.13330078125C12.0102,1.13330078125,12.333,1.45659678125,12.333,1.85546878125L12.3333,4.03288078125L13.0556,4.03288078125C13.8533,4.03288078125,14.5,4.679580781249999,14.5,5.47732078125L14.5,10.17176078125C14.5,10.77007078125,14.015,11.25510078125,13.4167,11.25510078125L12.3333,11.25510078125ZM10.88889,8.36621078125L5.11111,8.36621078125L5.11111,13.42180078125L10.88889,13.42180078125L10.88889,8.36621078125ZM10.88867,2.57764078125L5.111330000000001,2.57764078125L5.11111,4.03288078125L10.88889,4.03288078125L10.88867,2.57764078125ZM12.3333,9.81065078125L13.0556,9.81065078125L13.0556,5.47732078125L2.94444,5.47732078125L2.94444,9.81065078125L3.66667,9.81065078125L3.66667,7.64399078125C3.66667,7.24512078125,3.99002,6.92177078125,4.38889,6.92177078125L11.6111,6.92177078125C12.01,6.92177078125,12.3333,7.24512078125,12.3333,7.64399078125L12.3333,9.81065078125Z" fill="#000000" fill-opacity="1"/></g></g></g></svg>