<svg xmlns="http://www.w3.org/2000/svg" xmlns:xlink="http://www.w3.org/1999/xlink" fill="none" version="1.1" width="16" height="16" viewBox="0 0 16 16"><defs><clipPath id="master_svg0_132_41381"><rect x="0" y="0" width="16" height="16" rx="0"/></clipPath></defs><g clip-path="url(#master_svg0_132_41381)"><g><path d="M14.505238561820985,10.748148561820983Q15.060038561820983,9.436328561820984,15.060038561820983,8.000038561820983Q15.060038561820983,6.5637585618209835,14.505238561820985,5.251928561820984Q13.969338561820983,3.9849585618209837,12.992238561820983,3.007858561820984Q12.015138561820985,2.0307885618209838,10.748148561820983,1.4948875618209838Q9.436338561820984,0.9400385618209839,8.000038561820983,0.9400385618209839Q6.563748561820984,0.9400385618209839,5.251928561820984,1.4948875618209838Q3.984938561820984,2.030778561820984,3.007858561820984,3.007858561820984Q2.030778561820984,3.984938561820984,1.4948875618209838,5.251928561820984Q0.9400385618209839,6.563748561820984,0.9400385618209839,8.000038561820983Q0.9400385618209839,9.436348561820983,1.4948875618209838,10.748148561820983Q2.0307885618209838,12.015138561820985,3.007858561820984,12.992238561820983Q3.9849585618209837,13.969338561820983,5.251928561820984,14.505238561820985Q6.5637585618209835,15.060038561820983,8.000038561820983,15.060038561820983Q9.436308561820985,15.060038561820983,10.748148561820983,14.505238561820985Q12.015138561820985,13.969338561820983,12.992238561820983,12.992238561820983Q13.969338561820983,12.015138561820985,14.505238561820985,10.748148561820983ZM13.404838561820984,5.716898561820984Q13.865838561820985,6.806618561820984,13.865838561820985,8.000038561820983Q13.865738561820985,9.193448561820984,13.404838561820984,10.283158561820985Q12.959638561820984,11.335838561820983,12.147738561820985,12.147738561820985Q11.335838561820983,12.959638561820984,10.283188561820984,13.404838561820984Q9.193458561820984,13.865738561820985,8.000038561820983,13.865838561820985Q6.806608561820984,13.865738561820985,5.716898561820984,13.404838561820984Q4.664278561820984,12.959638561820984,3.852388561820984,12.147738561820985Q3.040508561820984,11.335838561820983,2.595278561820984,10.283188561820984Q2.134358561820984,9.193468561820984,2.134358561820984,8.000038561820983Q2.134358561820984,6.806618561820984,2.595278561820984,5.716898561820984Q3.040498561820984,4.664278561820984,3.852388561820984,3.852388561820984Q4.664278561820984,3.040498561820984,5.716898561820984,2.595278561820984Q6.806618561820984,2.134358561820984,8.000038561820983,2.134358561820984Q9.193468561820984,2.134358561820984,10.283198561820983,2.595278561820984Q11.335838561820983,3.040508561820984,12.147738561820985,3.852388561820984Q12.959638561820984,4.664278561820984,13.404838561820984,5.716898561820984ZM9.850818561820985,7.9272385618209835Q10.082118561820984,7.691768561820984,10.248698561820984,7.371098561820984Q10.420118561820983,7.0409785618209835,10.420118561820983,6.607398561820984Q10.420118561820983,6.058168561820984,10.123788561820984,5.590758561820984Q9.827888561820984,5.123698561820984,9.288348561820984,4.853868561820984Q8.752088561820983,4.585798561820984,8.055638561820984,4.585798561820984Q7.305268561820984,4.585798561820984,6.739638561820984,4.907068561820983Q6.173548561820984,5.2284085618209835,5.877428561820984,5.720258561820984Q5.580038561820984,6.213728561820984,5.580038561820984,6.698838561820984Q5.580038561820984,6.960008561820984,5.785808561820984,7.178918561820984Q5.9937285618209835,7.400678561820984,6.297238561820984,7.400678561820984Q6.812878561820984,7.400678561820984,6.991438561820984,6.785758561820984Q7.151658561820984,6.287518561820984,7.378338561820984,6.036018561820984Q7.589748561820984,5.801878561820984,8.055798561820984,5.801878561820984Q8.451448561820984,5.801878561820984,8.698688561820983,6.038798561820984Q8.943958561820985,6.274358561820984,8.943958561820985,6.616918561820984Q8.943958561820985,6.789208561820984,8.865278561820983,6.935718561820984Q8.781838561820983,7.091918561820984,8.658708561820983,7.219418561820984Q8.532508561820983,7.350548561820984,8.234418561820984,7.621758561820984Q7.891918561820984,7.933438561820984,7.688668561820984,8.161268561820984Q7.4778685618209835,8.398348561820985,7.350648561820984,8.710278561820985Q7.222598561820984,9.024218561820984,7.222598561820984,9.448678561820984Q7.222598561820984,9.813218561820984,7.416838561820984,10.006178561820985Q7.610928561820984,10.198998561820984,7.893318561820984,10.198998561820984Q8.440378561820983,10.198998561820984,8.543618561820985,9.617508561820983Q8.593928561820984,9.385578561820983,8.618528561820984,9.294298561820984Q8.642468561820984,9.206368561820984,8.683498561820983,9.124338561820984Q8.724228561820983,9.041698561820985,8.811918561820985,8.937598561820984Q8.902148561820983,8.830088561820983,9.056328561820983,8.684108561820985Q9.631058561820984,8.150348561820984,9.850818561820985,7.9272385618209835ZM7.944358561820984,10.437078561820984Q7.606138561820984,10.437078561820984,7.372098561820984,10.673998561820984Q7.139078561820984,10.910578561820984,7.139078561820984,11.254738561820984Q7.139078561820984,11.641238561820984,7.383258561820984,11.861238561820985Q7.6228085618209835,12.077138561820984,7.944358561820984,12.077138561820984Q8.257088561820984,12.077138561820984,8.494768561820983,11.858038561820983Q8.735638561820984,11.635638561820985,8.735638561820984,11.254738561820984Q8.735638561820984,10.911628561820985,8.508208561820984,10.674898561820983Q8.279088561820984,10.437078561820984,7.944358561820984,10.437078561820984Z" fill-rule="evenodd" fill="#000000" fill-opacity="1"/></g></g></svg>