<svg xmlns="http://www.w3.org/2000/svg" xmlns:xlink="http://www.w3.org/1999/xlink" fill="none" version="1.1" width="16" height="16" viewBox="0 0 16 16"><defs><clipPath id="master_svg0_132_41471"><rect x="0" y="0" width="16" height="16" rx="0"/></clipPath></defs><g clip-path="url(#master_svg0_132_41471)"><g><path d="M5.292787,1.6359995581970215C5.105316,1.8235275581970214,5,2.0778355581970214,5,2.3429995581970213C5,2.6081635581970213,5.105316,2.8624735581970215,5.292787,3.0500035581970213C5.292787,3.0500035581970213,10.24279,8.000003558197022,10.24279,8.000003558197022C10.24279,8.000003558197022,5.292787,12.950013558197021,5.292787,12.950013558197021C5.110629,13.138613558197022,5.00983372,13.391213558197022,5.0121121,13.653413558197022C5.0143906,13.915613558197022,5.11956,14.166413558197021,5.304968,14.351813558197021C5.490376,14.537213558197022,5.741188,14.642413558197022,6.00339,14.644713558197022C6.26558,14.64691355819702,6.51818,14.546113558197021,6.70679,14.364013558197021C6.70679,14.364013558197021,12.36379,8.707003558197021,12.36379,8.707003558197021C12.55126,8.51947355819702,12.65657,8.26516355819702,12.65657,8.000003558197022C12.65657,7.734833558197021,12.55126,7.480523558197022,12.36379,7.293003558197022C12.36379,7.293003558197022,6.70679,1.6359995581970215,6.70679,1.6359995581970215C6.51926,1.4485285581970215,6.26495,1.3432135581970215,5.999786,1.3432135581970215C5.734622,1.3432135581970215,5.480314,1.4485285581970215,5.292787,1.6359995581970215C5.292787,1.6359995581970215,5.292787,1.6359995581970215,5.292787,1.6359995581970215C5.292787,1.6359995581970215,5.292787,1.6359995581970215,5.292787,1.6359995581970215Z" fill="#000000" fill-opacity="1"/></g></g></svg>