<svg xmlns="http://www.w3.org/2000/svg" xmlns:xlink="http://www.w3.org/1999/xlink" fill="none" version="1.1" width="16" height="16" viewBox="0 0 16 16"><defs><clipPath id="master_svg0_132_41259"><rect x="0" y="0" width="16" height="16" rx="0"/></clipPath></defs><g clip-path="url(#master_svg0_132_41259)"><g><path d="M1.40247,6.212319988079071L1.03098,6.445869988079071C0.67144,6.608639988079071,0.247636,6.456099988079071,0.0742993,6.101529988079071C-0.0990372,5.746959988079071,0.0408975,5.318829988079071,0.390184,5.135079988079071L7.57399,0.804937988079071C7.79742,0.665020588079071,8.08114,0.665020588079071,8.30456,0.804937988079071L15.5482,5.134349988079071C15.9569,5.302909988079071,16.123,5.793159988079071,15.9011,6.175459988079071C15.6792,6.557749988079071,15.1711,6.656559988079071,14.822,6.385289988079071L14.5608,6.221809988079071L14.5396,10.196519988079071C14.5396,11.002299988079072,13.8419,11.633599988079071,13.058,11.633599988079071L8.70817,11.633599988079071L8.70817,12.24519998807907C8.7106,12.440499988079072,8.55463,12.60109998807907,8.3593,12.60429998807907C8.29587,12.60419998807907,8.23371,12.586499988079071,8.17976,12.55319998807907L5.95448,11.184699988079071C5.72888,11.041399988079071,5.72888,10.712099988079071,5.95448,10.56872998807907L8.18049,9.273999988079071C8.34624,9.17227998807907,8.5633,9.228199988079071,8.65927,9.397339988079072C8.69183,9.453419988079071,8.70895,9.517139988079071,8.7089,9.581989988079071L8.7089,10.196519988079071L12.3501,10.196519988079071C12.742,10.196519988079071,13.0799,9.86954998807907,13.0799,9.46666998807907L13.0799,5.297829988079071L8.36733,2.515679988079071C8.13953,2.369929988079071,7.84778,2.369929988079071,7.61998,2.515679988079071L2.86361,5.298559988079071L2.86361,13.84499998807907L13.0799,13.84499998807907L13.0799,13.107799988079071C13.0799,12.704199988079072,13.4178,12.38529998807907,13.8097,12.38529998807907C14.2017,12.38529998807907,14.4958,12.704199988079072,14.4958,13.107799988079071L14.4958,14.56679998807907C14.4958,14.969699988079071,14.2126,15.296599988079072,13.8097,15.296599988079072L2.12574,15.296599988079072C1.73382,15.296599988079072,1.40247,14.966699988079071,1.40247,14.560199988079072L1.40247,6.212319988079071ZM6.51135,5.808719988079071L9.43071,5.808719988079071C9.83379,5.808719988079071,10.1605,6.135479988079071,10.1605,6.538559988079071C10.1605,6.941639988079071,9.83379,7.268399988079071,9.43071,7.268399988079071L6.51135,7.268399988079071C6.10827,7.268399988079071,5.78151,6.941639988079071,5.78151,6.538559988079071C5.78151,6.135479988079071,6.10827,5.808719988079071,6.51135,5.808719988079071Z" fill="#282829" fill-opacity="1"/></g></g></svg>