<svg xmlns="http://www.w3.org/2000/svg" width="35.045" height="35" viewBox="0 0 35.045 35"><defs><style>.a{fill:#fff;}.b{fill:none;}</style></defs><g transform="translate(-816 -130)"><path d="M119,1.373,117.723.1h-11.14a2.543,2.543,0,0,0-2.543,2.543v20.32a2.543,2.543,0,0,0,2.543,2.543h15.165a2.543,2.543,0,0,0,2.543-2.543V6.675Zm-1.26,5.3V1.445l5.235,5.238-5.235-.007Z" transform="translate(716.336 134.325)"/><rect class="a" width="20" height="16" rx="2" transform="translate(827.625 145)"/><path d="M114.38.98,113.5.1h-7.7a1.758,1.758,0,0,0-1.758,1.758V15.906a1.758,1.758,0,0,0,1.758,1.758h10.484a1.758,1.758,0,0,0,1.758-1.758V4.645Zm-.871,3.666V1.03l3.619,3.621-3.619-.005Z" transform="translate(846.461 41.96) rotate(90)"/><g transform="translate(851.045 131.823) rotate(90)"><path d="M392.969,89.207V90.72a.2.2,0,0,0,.319.16l3.458-2.593a.2.2,0,0,0,0-.319l-3.458-2.593a.2.2,0,0,0-.319.16v1.679A8.976,8.976,0,0,0,384,96.189a1,1,0,1,0,1.995,0,6.982,6.982,0,0,1,6.974-6.982Z" transform="translate(-384 -85.334)"/></g><rect class="b" width="35" height="35" transform="translate(816 130)"/></g></svg>