<svg xmlns="http://www.w3.org/2000/svg" width="35" height="35" viewBox="0 0 35 35"><defs><style>.a{fill:none;}.b{fill:#116cca;}.c{fill:#fff;}</style></defs><g transform="translate(-1442 -130)"><rect class="a" width="35" height="35" transform="translate(1442 130)"/><g transform="translate(0 -0.407)"><g transform="translate(65.611 0.575)"><path class="b" d="M32.3,6.923l-4.4-4.4A3.383,3.383,0,0,0,26.627,2H25.2V7.7H16.656V2H14.747A1.81,1.81,0,0,0,13,3.81V23.6a1.81,1.81,0,0,0,1.81,1.81h16.2a1.81,1.81,0,0,0,1.81-1.81V8.193A1.731,1.731,0,0,0,32.3,6.923Z" transform="translate(1371.389 134.425)"/><path class="b" d="M512.009,183.83h2.164a.009.009,0,0,1,.009.009v3.619a.009.009,0,0,1-.009.009h-2.164a.009.009,0,0,1-.009-.009v-3.619A.009.009,0,0,1,512.009,183.83Z" transform="translate(879.068 -45.216)"/></g><rect class="c" width="12" height="6" rx="1" transform="translate(1454 152)"/><circle class="b" cx="2" cy="2" r="2" transform="translate(1458 153)"/></g></g></svg>