<svg xmlns="http://www.w3.org/2000/svg" xmlns:xlink="http://www.w3.org/1999/xlink" fill="none" version="1.1" width="16" height="16" viewBox="0 0 16 16"><defs><clipPath id="master_svg0_143_13720"><rect x="0" y="0" width="16" height="16" rx="0"/></clipPath><clipPath id="master_svg1_143_13721"><rect x="0" y="0" width="16" height="16" rx="0"/></clipPath></defs><g clip-path="url(#master_svg0_143_13720)"><g clip-path="url(#master_svg1_143_13721)"><g><path d="M7.36129,1C10.8746,1,13.7226,3.84799,13.7226,7.36129C13.7226,8.87116,13.1965,10.2583,12.3179,11.3491C12.3904,11.363,12.457,11.3985,12.5091,11.4509L14.8904,13.8322C15.0365,13.9783,15.0365,14.2152,14.8904,14.3613L14.3613,14.8904C14.2152,15.0365,13.9783,15.0365,13.8322,14.8904L11.4509,12.5091C11.3985,12.4569,11.3628,12.3904,11.3483,12.3179C10.21949,13.229,8.81199,13.7249,7.36129,13.7226C3.84799,13.7226,1,10.8746,1,7.36129C1,3.84799,3.84799,1,7.36129,1ZM7.36129,2.4967699999999997C4.674580000000001,2.4967699999999997,2.4967699999999997,4.674580000000001,2.4967699999999997,7.36129C2.4967699999999997,10.048,4.674580000000001,12.2258,7.36129,12.2258C10.048,12.2258,12.2258,10.048,12.2258,7.36129C12.2258,4.674580000000001,10.048,2.4967699999999997,7.36129,2.4967699999999997Z" fill="#222429" fill-opacity="1" style="mix-blend-mode:passthrough"/></g></g></g></svg>