<svg xmlns="http://www.w3.org/2000/svg" xmlns:xlink="http://www.w3.org/1999/xlink" fill="none" version="1.1" width="16" height="16" viewBox="0 0 16 16"><defs><clipPath id="master_svg0_143_13687"><rect x="0" y="0" width="16" height="16" rx="0"/></clipPath><clipPath id="master_svg1_143_13688"><rect x="0" y="0" width="16" height="16" rx="0"/></clipPath></defs><g clip-path="url(#master_svg0_143_13687)"><g clip-path="url(#master_svg1_143_13688)"><g><path d="M8.0732196875,12.6228C8.151419687499999,12.6228,8.231039687500001,12.618,8.3111196875,12.6085C9.0791796875,12.5163,9.7313996875,11.9795,9.9721496875,11.2396C9.9902796875,11.1842,9.9640496875,11.125,9.9111296875,11.1006C9.8586796875,11.0763,9.7952796875,11.0973,9.7657196875,11.147C9.7628596875,11.1518,9.4577296875,11.6446,8.2696496875,11.8051C8.0918196875,11.829,7.9187596875,11.8414,7.7547496875,11.8414C6.9223296875,11.8409,6.5514096875,11.5272,6.5480696875,11.5243C6.5061296875,11.487,6.4422296875,11.4861,6.3993296875,11.5224C6.3559496875,11.5587,6.3459296875,11.6217,6.3754896875,11.67C6.7378296875,12.2574,7.3881196875,12.6228,8.0732196875,12.6228ZM14.4613296875,5.25993C14.4508296875,5.25993,14.4413296875,5.26184,14.4313296875,5.26184C13.7352296875,2.24812,11.0754296875,0,7.8863396875,0C4.6095796875,0,1.8887096875,2.37231,1.2855896875,5.51068C0.6991846875000001,5.61623,0.2529296875,6.13157,0.2529296875,6.75487L0.2529296875,9.24944C0.2529296875,9.94865,0.8136076875,10.5156,1.5058596875,10.5156C1.8963296875,10.5156,2.2410296875,10.3312,2.4703496875,10.048C3.0243196875,11.5133,4.1522896875,12.6948,5.5796396875,13.3181C5.5830696875,13.3107,5.6100996875,13.2582,5.6425696875,13.2163C5.6650896875,13.1873,5.6902196875,13.1635,5.7118396875,13.1635C5.7342496875,13.1635,5.7547596875,13.1716,5.7723896875,13.184C5.4419796875,12.938,4.2486696875,11.6738,3.9902596875,9.90949C3.8767896875,9.13289,4.4584296875,8.37064,5.1359196875,8.24454C6.2234096875,8.04203,7.3051796875,7.81135,8.3926696875,7.61267C9.0839696875,7.48657,9.5564496875,7.10735,9.8453596875,6.47596C9.9130596875,6.32837,10.0107996875,6.02987,10.0556296875,5.59954C10.0675396875,5.53555,10.1199796875,5.48634,10.1872196875,5.48634C10.2320396875,5.48634,10.2701296875,5.50927,10.2954296875,5.54222L10.3255296875,5.5236C10.7541296875,6.14592,11.6041296875,7.52383,11.7262296875,8.97672C11.8663296875,10.6379,11.7882296875,11.7755,10.5166296875,12.9395C10.5152296875,12.9409,10.5133296875,12.9428,10.5114296875,12.9443C10.4937296875,12.9634,10.4833296875,12.9882,10.4833296875,13.0154C10.4833296875,13.0512,10.5023296875,13.0818,10.5300296875,13.1004C10.5405296875,13.1047,10.5510296875,13.1104,10.5615296875,13.1148C10.5700296875,13.1167,10.5781296875,13.1195,10.5867296875,13.1195C10.5953296875,13.1195,10.6029296875,13.1167,10.6106296875,13.1148C10.6287296875,13.1052,10.6458296875,13.0942,10.6635296875,13.0847C11.9493296875,12.3764,12.9357296875,11.1933,13.3915296875,9.77052C13.5760296875,10.0447,13.8649296875,10.2419,14.2006296875,10.3107C13.6623296875,12.7589,11.4787296875,14.2911,8.7736296875,14.5237C8.6115296875,14.1216,8.2124796875,13.8359,7.7438296875,13.8359C7.1316796875,13.8359,6.6353596875,14.3207,6.6353596875,14.9182C6.6353596875,15.5157,7.1316596875,16,7.7438296875,16C8.2372696875,16,8.6506296875,15.6829,8.7941396875,15.2473C11.9255296875,14.9927,14.4356296875,13.1315,14.9596296875,10.2395C15.4225296875,10.0461,15.7477296875,9.59188,15.7477296875,9.06174L15.7477296875,6.53755C15.7476296875,5.83212,15.1717296875,5.25993,14.4613296875,5.25993ZM13.3061296875,5.98495C12.4894296875,3.77266,10.3731296875,2.19224,7.8834896875,2.19224C5.4043196875,2.19224,3.2956296875,3.75928,2.4712996875,5.95724C2.4303096875,5.90709,2.3821496875,5.86412,2.3349496875,5.82065C2.8016896875,3.1422,5.1068296875,1.10567,7.8863396875,1.10567C10.6525296875,1.10567,12.9505296875,3.12214,13.4325296875,5.78196C13.3848296875,5.84597,13.3409296875,5.91284,13.3061296875,5.98495ZM5.5797696875,13.3182C5.5797096875,13.3182,5.5796796875,13.3182,5.5796196875,13.3181C5.5791096875,13.3193,5.5790896875,13.3194,5.5797696875,13.3182Z" fill="#000000" fill-opacity="1"/></g></g></g></svg>