<svg xmlns="http://www.w3.org/2000/svg" xmlns:xlink="http://www.w3.org/1999/xlink" fill="none" version="1.1" width="16" height="16" viewBox="0 0 16 16"><defs><clipPath id="master_svg0_143_13025"><rect x="0" y="0" width="16" height="16" rx="0"/></clipPath><clipPath id="master_svg1_143_13026"><rect x="0" y="0" width="16" height="16" rx="0"/></clipPath></defs><g clip-path="url(#master_svg0_143_13025)"><g clip-path="url(#master_svg1_143_13026)"><g><path d="M15.570273443460465,8.001198570137024Q15.570273443460465,8.692948570137023,15.433373443460464,9.404908570137025Q15.355573443460464,9.791098570137024,14.971073443460465,9.878578570137025Q13.897673443460464,10.121818570137023,13.352873443460464,11.057518570137024Q12.806173443460464,11.990918570137024,13.127973443460464,13.030218570137023Q13.241573443460464,13.405818570137024,12.943973443460465,13.662318570137025Q11.848373443460465,14.597018570137024,10.483173443460464,15.067618570137023Q10.384313443460465,15.100018570137024,10.283563443460464,15.100018570137024Q10.016833443460465,15.100018570137024,9.837553443460465,14.907818570137024Q9.089433443460464,14.113718570137024,7.998833443460464,14.113718570137024Q6.908433443460464,14.113718570137024,6.159723443460464,14.908218570137024Q5.892103443460464,15.193718570137024,5.515233443460464,15.066018570137024Q4.150623443460464,14.595618570137024,3.0546934434604647,13.660518570137024Q2.7573134434604647,13.400318570137024,2.8712634434604647,13.028618570137024Q3.1927934434604643,11.990318570137024,2.6477134434604643,11.056018570137024Q2.1008234434604645,10.120378570137024,1.0293434434604645,9.877188570137024Q0.6405274434604644,9.788428570137023,0.5669764434604645,9.402428570137024Q0.4302734434604645,8.691708570137024,0.4302734434604645,7.999718570137024Q0.4302734434604645,7.3076885701370236,0.5670134434604645,6.597068570137024Q0.6402334434604645,6.212748570137024,1.0296184434604645,6.121328570137024Q2.1032534434604644,5.877198570137024,2.6475534434604646,4.942278570137024Q3.1928134434604645,4.007868570137024,2.8713034434604645,2.969638570137024Q2.7566634434604644,2.595698570137024,3.0549234434604644,2.338838570137024Q4.141113443460465,1.408015570137024,5.514553443460464,0.932476670137024Q5.889763443460464,0.8041816701370239,6.160803443460464,1.090924570137024Q6.909683443460464,1.8858855701370238,8.000323443460465,1.8858855701370238Q9.090963443460465,1.8858855701370238,9.837823443460465,1.092850570137024Q10.017243443460465,0.9003768801370239,10.283213443460465,0.9003768701370239Q10.386173443460464,0.9003768801370239,10.483273443460465,0.9339066701370239Q11.847973443460464,1.4034895701370238,12.943273443460464,2.3381385701370236Q13.246873443460464,2.5958785701370237,13.127573443460465,2.972218570137024Q12.808073443460465,4.009908570137024,13.352873443460464,4.943468570137024Q13.899873443460464,5.879348570137024,14.970973443460464,6.122378570137024Q15.359773443460465,6.210758570137024,15.433673443460464,6.597168570137024Q15.570273443460465,7.307828570137024,15.570273443460465,8.001198570137024ZM12.042173443460465,10.308808570137025Q12.692873443460465,9.191978570137024,13.926073443460464,8.762198570137024Q13.979873443460464,8.366558570137023,13.976473443460465,8.002618570137024Q13.976473443460465,7.623688570137024,13.924573443460465,7.238908570137024Q12.691473443460465,6.809068570137024,12.040773443460465,5.692068570137024Q11.388773443460465,4.574788570137024,11.628673443460464,3.308098570137024Q11.012373443460465,2.840988570137024,10.293233443460464,2.545758570137024Q9.307223443460465,3.383088570137024,7.998853443460464,3.383088570137024Q6.694153443460465,3.383088570137024,5.704773443460464,2.544328570137024Q4.985213443460465,2.839698570137024,4.369053443460464,3.3067685701370237Q4.608103443460465,4.572418570137025,3.9554734434604644,5.690778570137024Q3.3008934434604646,6.810678570137024,2.0716634434604644,7.237638570137024Q2.0197534434604645,7.622598570137024,2.0197534434604645,7.999738570137024Q2.0197534434604645,8.378468570137024,2.0716434434604647,8.762208570137023Q3.3048134434604646,9.191948570137024,3.9554734434604644,10.308818570137024Q4.611393443460464,11.431018570137024,4.369453443460465,12.693118570137024Q4.985823443460465,13.160218570137024,5.705103443460464,13.455418570137024Q6.697183443460465,12.617918570137023,7.9988734434604645,12.617818570137024Q9.307233443460465,12.617818570137024,10.293253443460465,13.455218570137024Q11.012573443460465,13.160018570137025,11.628873443460465,12.692718570137023Q11.391073443460465,11.424618570137024,12.042173443460465,10.308808570137025ZM10.905773443460465,6.145988570137024Q11.891473443460464,7.121028570137024,11.890273443460465,8.496568570137024Q11.890273443460465,8.773978570137025,11.831073443460465,9.090748570137023Q11.785873443460465,9.342788570137024,11.587273443460465,9.506918570137024Q11.389073443460465,9.670688570137024,11.130173443460464,9.670688570137024Q11.065773443460465,9.670688570137024,11.001073443460465,9.659078570137025Q10.710173443460464,9.606718570137025,10.541473443460465,9.365988570137024Q10.372313443460465,9.124608570137024,10.425893443460465,8.835978570137023Q10.462373443460464,8.645918570137024,10.462373443460464,8.496438570137023Q10.462373443460464,7.705978570137024,9.895753443460464,7.145288570137024Q9.328643443460464,6.584158570137024,8.528653443460465,6.584158570137024Q7.729343443460465,6.584158570137024,7.162683443460464,7.1452685701370235Q6.596443443460465,7.705968570137024,6.596443443460465,8.496438570137023Q6.596443443460465,9.286918570137024,7.163543443460465,9.847678570137024Q7.731123443460464,10.408918570137024,8.531733443460464,10.408908570137024Q8.672873443460464,10.408908570137024,8.876803443460464,10.372878570137024Q8.941223443460464,10.360828570137024,9.007553443460464,10.360828570137024Q9.264553443460464,10.360828570137024,9.462193443460464,10.524708570137024Q9.659923443460464,10.688668570137024,9.706793443460464,10.940818570137024Q9.760253443460465,11.228918570137024,9.591093443460464,11.470218570137025Q9.422393443460464,11.710918570137023,9.130783443460464,11.763518570137023Q8.795283443460464,11.821718570137024,8.530223443460464,11.821718570137024Q7.140283443460464,11.821718570137024,6.154643443460465,10.847058570137024Q5.168553443460464,9.871968570137025,5.168553443460464,8.496438570137023Q5.168553443460464,7.120968570137024,6.1546534434604645,6.145938570137024Q7.140273443460464,5.171378570137024,8.530223443460464,5.171378570137024Q9.920553443460465,5.171378570137024,10.905773443460465,6.145988570137024Z" fill-rule="evenodd" fill="#000000" fill-opacity="1"/></g></g></g></svg>