<svg xmlns="http://www.w3.org/2000/svg" width="35" height="35" viewBox="0 0 35 35"><defs><style>.a{fill:none;}.b{fill:#fff;}</style></defs><g transform="translate(-709 -130)"><rect class="a" width="35" height="35" transform="translate(709 130)"/><g transform="translate(-1.121)"><path d="M119,1.373,117.723.1h-11.14a2.543,2.543,0,0,0-2.543,2.543v20.32a2.543,2.543,0,0,0,2.543,2.543h15.165a2.543,2.543,0,0,0,2.543-2.543V6.675Zm-1.26,5.3V1.445l5.235,5.238-5.235-.007Z" transform="translate(612.082 134.325)"/><g transform="translate(18)"><circle class="b" cx="7" cy="7" r="7" transform="translate(709.473 147)"/><g transform="translate(647.285 71.175)"><path d="M73.42,83.674a1.727,1.727,0,0,0-1.353,2.333,4.3,4.3,0,0,1-1.53.882,1.735,1.735,0,0,0-2.7,0,4.329,4.329,0,0,1-1.53-.881,1.726,1.726,0,0,0-1.351-2.333,4.337,4.337,0,0,1,0-1.762A1.725,1.725,0,0,0,66.3,79.582a4.3,4.3,0,0,1,1.53-.882,1.735,1.735,0,0,0,2.7,0,4.314,4.314,0,0,1,1.53.882,1.726,1.726,0,0,0,1.353,2.332,4.291,4.291,0,0,1,0,1.761m.759-2.294a.43.43,0,0,0-.444-.313.862.862,0,0,1-.775-1.339.429.429,0,0,0-.05-.538,5.185,5.185,0,0,0-2.454-1.414.432.432,0,0,0-.493.227.866.866,0,0,1-1.551,0,.434.434,0,0,0-.493-.227,5.184,5.184,0,0,0-2.455,1.414.431.431,0,0,0-.05.539.862.862,0,0,1-.775,1.338.425.425,0,0,0-.443.313,5.179,5.179,0,0,0,0,2.826.432.432,0,0,0,.443.313.867.867,0,0,1,.8.43.852.852,0,0,1-.029.909.429.429,0,0,0,.05.538,5.179,5.179,0,0,0,2.455,1.414.432.432,0,0,0,.493-.226.867.867,0,0,1,1.551,0,.434.434,0,0,0,.493.227A5.184,5.184,0,0,0,72.91,86.4a.431.431,0,0,0,.05-.539.862.862,0,0,1,.775-1.338.434.434,0,0,0,.444-.313,5.114,5.114,0,0,0,.2-1.413,5.18,5.18,0,0,0-.2-1.414"/><path d="M327.262,329.247a1.292,1.292,0,1,1,1.3-1.292,1.3,1.3,0,0,1-1.3,1.292m0-3.447a2.155,2.155,0,1,0,2.162,2.155,2.161,2.161,0,0,0-2.162-2.155" transform="translate(-258.074 -245.161)"/></g></g></g></g></svg>