<svg xmlns="http://www.w3.org/2000/svg" xmlns:xlink="http://www.w3.org/1999/xlink" fill="none" version="1.1" width="16" height="16" viewBox="0 0 16 16"><defs><clipPath id="master_svg0_190_15457"><rect x="0" y="0" width="16" height="16" rx="0"/></clipPath></defs><g clip-path="url(#master_svg0_190_15457)"><g><path d="M10.8852,12.2209265625C9.89958,12.9247265625,8.69205,13.2470265625,7.48681,13.1278265625C7.43052,13.1225265625,7.3753,13.1130265625,7.31795,13.1055265625C7.20963,13.0907265625,7.1013,13.0769265625,6.99616,13.0556265625C6.93135,13.0425265625,6.86689,13.0276265625,6.80288,13.0110265625C6.69964,12.9882265625,6.59727,12.9616265625,6.49597,12.9314265625C6.44818,12.9165265625,6.40039,12.8995265625,6.35154,12.8825265625C6.20933,12.8351265625,6.06936,12.7812265625,5.93205,12.7211265625C5.80008,12.6635265625,5.67075,12.6001265625,5.54442,12.5310265625L5.52743,12.5225265625C4.9613,12.2071265625,4.45947,11.7881265625,4.04807,11.2874265625C4.0279,11.2630265625,4.00878,11.2354265625,3.9886,11.2098965625C3.2649,10.2963965625,2.87153,9.1649265625,2.87245,7.9994965625L4.05338,7.9994965625C4.08507,7.9995265625,4.11413,7.9819165625,4.12878,7.9538265625C4.14399,7.9263465625,4.14235,7.8926165625,4.12454,7.8667465625L2.1418,4.8528165625C2.10841,4.8003365625,2.03181,4.8003365625,1.99843,4.8528165625L0.0146261,7.8667465625C-0.00236579,7.8911765625,-0.00555176,7.9251565625,0.0103781,7.9538265625C0.026308,7.9825065625,0.0549818,7.9994965625,0.0857796,7.9994965625L1.26672,7.9994965625C1.26672,9.4268165625,1.70638,10.7489965625,2.4519,11.8418265625C2.46146,11.8577265625,2.46783,11.8736265625,2.47739,11.8885265625C2.55491,12.0000265625,2.64093,12.1041265625,2.72377,12.2103265625C2.75457,12.2496265625,2.7843,12.2910265625,2.81616,12.3303265625C2.93829,12.4811265625,3.06785,12.6202265625,3.20167,12.7593265625L3.23884,12.7976265625C3.823,13.3908265625,4.51412,13.8683265625,5.27574,14.2047265625L5.39893,14.2599265625C5.54017,14.3194265625,5.68673,14.3714265625,5.83222,14.4213265625C5.90125,14.4447265625,5.96922,14.4691265625,6.03931,14.4904265625C6.16781,14.5286265625,6.29844,14.5605265625,6.43012,14.5923265625C6.51827,14.6136265625,6.60429,14.6359265625,6.69456,14.6529265625C6.73067,14.6613265625,6.76571,14.6720265625,6.80288,14.6773265625C6.92714,14.6996265625,7.05139,14.7123265625,7.1767,14.7272265625L7.31052,14.7463265625C8.90532,14.9088265625,10.5047,14.4845265625,11.8091,13.5526265625C12.1727,13.2923265625,12.2605,12.7886265625,12.0066,12.4205265625C11.7547,12.0517265625,11.249,11.9616265625,10.8852,12.2209265625ZM14.6648,7.9994965625C14.6659,6.6320065625,14.2547,5.2959565625,13.4849,4.1657065625000005C13.4733,4.1465865625,13.4658,4.1274765625,13.4552,4.1115465625C13.3618,3.9808365625,13.2641,3.8533165625,13.1621,3.7292265625L13.127,3.6835565625C12.4581,2.8585065624999997,11.6007,2.2062005625,10.6271,1.7815295625C10.6004,1.7695765625,10.5738,1.7571855625000001,10.5475,1.7443605625C10.3924,1.6812465625,10.2355,1.6228105625,10.077,1.5691315625C10.0165,1.5500155625,9.96019,1.5287755625,9.90071,1.5117835625C9.76185,1.4701165625,9.62158,1.4332795625,9.48017,1.4013365625C9.40264,1.3832825625,9.32405,1.3631045625,9.2444,1.3471745625C9.20511,1.3397415625,9.169,1.3280595625,9.12971,1.3206255625C9.02351,1.3015093625,8.91731,1.2940754625,8.81111,1.2802695625C8.7389,1.2707116625,8.66562,1.2590297625,8.59234,1.2515957625C8.41575,1.2358902625,8.23862,1.2270336225,8.06134,1.2250460125C8.02948,1.2250460125,7.99762,1.21973605745,7.9647,1.21973605745C6.58761,1.2173978925,5.24436,1.6463335625,4.12348,2.4463365625C3.75891,2.7064165625000003,3.67049,3.2109265625,3.92488,3.5794865625C4.17753,3.9474365625,4.68271,4.0368965625,5.04635,3.7780765625C6.03408,3.0744865624999997,7.24316,2.7523165625,8.45003,2.8711365625000003L8.58491,2.8902465625C8.70704,2.9040565625,8.82704,2.9221065625,8.94492,2.9454765624999997C8.99696,2.9550265625,9.049,2.9688365625,9.09997,2.9805165625C9.21573,3.0070665625,9.33255,3.0357465625,9.44512,3.0697265625L9.55132,3.1068965625000002C9.68088,3.1493765625,9.80726,3.1950465625,9.93257,3.2481365625L9.97187,3.2661965625C10.7206,3.5922265625,11.3779,4.0945465625,11.8909,4.7232465625L11.9004,4.7359965625000005C12.6504,5.6584965625,13.059,6.8116465625,13.057,8.0005565625L11.8771,8.0005565625C11.8454,8.0002165625,11.8162,8.0174865625,11.8013,8.0453765625C11.7863,8.073266562499999,11.7881,8.107146562499999,11.8059,8.1333065625L13.7908,11.1461765625C13.8243,11.1975565625,13.8996,11.1975565625,13.9331,11.1461765625L15.9158,8.1333065625C15.9796,8.1326165625,16.02,8.0644565625,15.9898,8.0082165625C15.9597,7.9519765625,15.8806,7.9477965625,15.8447,8.0005565625L14.6648,8.0005565625L14.6648,7.9994965625Z" fill="#000000" fill-opacity="1" style="mix-blend-mode:passthrough"/></g></g></svg>