<svg xmlns="http://www.w3.org/2000/svg" xmlns:xlink="http://www.w3.org/1999/xlink" fill="none" version="1.1" width="16" height="16" viewBox="0 0 16 16"><defs><clipPath id="master_svg0_132_41403"><rect x="0" y="0" width="16" height="16" rx="0"/></clipPath></defs><g clip-path="url(#master_svg0_132_41403)"><g><path d="M1.6355594375,10.707003558197021C1.8230874375,10.89447355819702,2.0773954375,10.999783558197022,2.3425594375,10.999783558197022C2.6077234375,10.999783558197022,2.8620334375,10.89447355819702,3.0495634375,10.707003558197021C3.0495634375,10.707003558197021,7.9995634375,5.757003558197022,7.9995634375,5.757003558197022C7.9995634375,5.757003558197022,12.9495734375,10.707003558197021,12.9495734375,10.707003558197021C13.1381734375,10.889153558197021,13.3907734375,10.989953558197023,13.6529734375,10.98767355819702C13.9151734375,10.985393558197021,14.1659734375,10.880223558197022,14.3513734375,10.694813558197023C14.5367734375,10.509413558197021,14.6419734375,10.25859355819702,14.6442734375,9.996403558197022C14.6464734375,9.734203558197022,14.5456734375,9.481603558197023,14.3635734375,9.293003558197022C14.3635734375,9.293003558197022,8.7065634375,3.6359995581970215,8.7065634375,3.6359995581970215C8.5190334375,3.4485285581970215,8.264723437499999,3.3432135581970215,7.9995634375,3.3432135581970215C7.7343934375,3.3432135581970215,7.4800834375,3.4485285581970215,7.2925634375,3.6359995581970215C7.2925634375,3.6359995581970215,1.6355594375,9.293003558197022,1.6355594375,9.293003558197022C1.4480884375,9.48052355819702,1.3427734375000007,9.734833558197021,1.3427734375,10.000003558197022C1.3427734375,10.26516355819702,1.4480884375,10.51947355819702,1.6355594375,10.707003558197021C1.6355594375,10.707003558197021,1.6355594375,10.707003558197021,1.6355594375,10.707003558197021C1.6355594375,10.707003558197021,1.6355594375,10.707003558197021,1.6355594375,10.707003558197021Z" fill="#000000" fill-opacity="1"/></g></g></svg>