<svg xmlns="http://www.w3.org/2000/svg" xmlns:xlink="http://www.w3.org/1999/xlink" fill="none" version="1.1" width="16" height="16" viewBox="0 0 16 16"><defs><clipPath id="master_svg0_132_41250"><rect x="0" y="0" width="16" height="16" rx="0"/></clipPath></defs><g clip-path="url(#master_svg0_132_41250)"><g><path d="M13.0914796875,5.27362Q13.6678796875,7.23604,12.6806796875,9.02621L12.6799796875,9.02754Q12.5110796875,9.33596,12.6086796875,9.67379Q12.7061796875,10.0116,13.0134796875,10.1826Q13.3243796875,10.3544,13.6642796875,10.2558Q14.0040796875,10.1572,14.1740796875,9.84683Q15.5028796875,7.4379,14.7314796875,4.79554Q13.9632796875,2.16146,11.5482196875,0.837823Q9.1334196875,-0.485694,6.4958696875,0.281561Q4.4586496874999995,0.876086,3.1437796875,2.54134Q1.8289176875,4.2066,1.7231565075,6.32574Q1.7036839875,6.67659,1.9409626875,6.93952Q2.1782416875,7.20245,2.5320166875,7.21911Q2.8814796874999997,7.23948,3.1454396874999997,7.0012Q3.4093996875,6.76293,3.4250496875,6.40767Q3.5039096875,4.83568,4.4810496875000005,3.59788Q5.4581796874999995,2.36008,6.9718296875,1.91757Q8.9303896875,1.34845,10.7257796875,2.33284Q12.5210796875,3.31716,13.0914796875,5.27362Z" fill-rule="evenodd" fill="#282829" fill-opacity="1"/></g><g><path d="M15.7148,14.868790381469726L15.7148,12.369030381469727Q15.715,12.038430381469727,15.5059,11.782280381469727Q15.2967,11.525970381469726,14.9725,11.460050381469728Q13.644,11.187950381469726,11.9973,10.292010381469726Q10.84108,9.523030381469727,10.06378,9.523030381469727Q9.24054,9.523030381469727,8.864180000000001,10.191870381469727Q8.65163,10.563320381469726,8.68091,11.038740381469726Q8.705,11.429860381469727,8.878160000000001,11.745000381469726Q7.16764,11.566970381469726,6.30026,11.128440381469726Q5.68943,10.819610381469726,5.05727,9.986990381469727Q4.69275,9.482690381469727,4.25242,9.042985381469727Q3.27605,8.100031793069727,2.47978,8.100031733469727Q1.725903,8.095533581469727,1.324894,8.735327381469727Q0.9968406,9.237130381469726,1.0000307262,10.060460381469726Q1.002608,10.725610381469727,1.17458,11.123670381469726Q2.24804,13.601700381469726,4.74943,14.923210381469726Q6.0347,15.602230381469727,7.17651,15.782160381469726Q7.24531,15.794220381469726,7.32178,15.794030381469726L14.7878,15.794030381469726Q15.1712,15.794030381469726,15.4426,15.523140381469727Q15.7141,15.252250381469727,15.7148,14.868790381469726ZM14.2098,12.826920381469726Q12.8527,12.465390381469726,11.272,11.613260381469726Q11.2189,11.583270381469728,11.1762,11.555390381469726Q10.54998,11.136020381469727,10.21625,11.050140381469728Q10.38767,11.318390381469726,10.57275,11.580050381469727Q10.95649,12.129700381469727,10.64581,12.723700381469726Q10.33512,13.317710381469727,9.65689,13.315930381469727L9.60371,13.314750381469727L9.59555,13.314240381469727Q7.01499,13.151180381469725,5.70553,12.513540381469728Q4.72602,12.036560381469727,3.85813,10.892830381469727L3.85525,10.889030381469727L3.85246,10.885160381469726Q3.55509,10.473240381469726,3.20154,10.118400381469726Q2.7619499999999997,9.692780381469726,2.55584,9.620030381469727Q2.50579,9.757650381469727,2.50565,10.050470381469726Q2.50549,10.401270381469727,2.55685,10.527110381469726Q3.40907,12.495490381469725,5.38957,13.565750381469726Q6.41901,14.122060381469726,7.37112,14.290030381469727L14.2098,14.290030381469727L14.2098,12.826920381469726Z" fill-rule="evenodd" fill="#282829" fill-opacity="1"/></g><g><path d="M5.129908,4.5461100000000005C5.127692,4.5461100000000005,5.125825,4.54711,5.123725,4.54728L5.13615,4.54728C5.133933,4.54706,5.132067,4.5461100000000005,5.129908,4.5461100000000005ZM5.0847,4.6505600000000005L5.0838251,4.64944C5.084175,4.64983,5.0843499,4.65028,5.0847,4.6505600000000005ZM12,5.5000599999999995L8.9375,3L8.9375,4.2500599999999995Q6.93661,4.48094,5.998083,5.24878Q5.0273584,6.04311,5,8L5.162283,7.985Q5.743167,6.7367799999999995,7.22063,6.7499400000000005C8.01607,6.75694,8.58482,6.75628,8.9375,6.7543299999999995L8.9375,8L12,5.5000599999999995Z" fill="#282829" fill-opacity="1"/></g></g></svg>