<svg xmlns="http://www.w3.org/2000/svg" xmlns:xlink="http://www.w3.org/1999/xlink" fill="none" version="1.1" width="16" height="16" viewBox="0 0 16 16"><defs><clipPath id="master_svg0_254_37426"><rect x="0" y="0" width="16" height="16" rx="0"/></clipPath><clipPath id="master_svg1_254_37458"><rect x="0" y="0" width="16" height="16" rx="0"/></clipPath></defs><g clip-path="url(#master_svg0_254_37426)"><g clip-path="url(#master_svg1_254_37458)"><g><g><path d="M14.5455,8.000765937499999C14.5623,8.2576059375,14.5623,8.5152659375,14.5455,8.7721159375C13.1159,8.9704159375,12.0524,10.1938959375,12.0551,11.6371359375C12.0566,12.0814359375,12.1623,12.5192359375,12.3636,12.9153359375C11.8035,13.3823359375,11.1707,13.7545359375,10.4904,14.0172359375C9.35577,12.2354359375,6.75445,12.2354359375,5.61985,14.0172359375C4.93953,13.7545359375,4.30675,13.3823359375,3.74658,12.9153359375C4.63617,11.1438359375,3.50892,9.0246059375,1.54272,8.7721159375C1.52632,8.5152559375,1.52632,8.2576159375,1.54272,8.000765937499999C1.55229,7.4917259375,1.61882,6.9853559375,1.74107,6.4911259375C3.0885,6.1869059375,4.03394,4.9739859375,4.00002,3.5930559375C4.00036,3.3472359375,3.967,3.1025359375,3.90085,2.8657859375C4.47577,2.4309059375,5.1153,2.0888259375000002,5.79616,1.8520159375C6.32622,2.5338559375,7.13651,2.9389959375,8.00001,2.9539359375C8.85358,2.9493259375,9.66099,2.5658059375,10.2039,1.9071059375C10.8863,2.1478159375,11.5233,2.5017059375,12.0882,2.9539359375C12.0228,3.1908559375,11.9895,3.4354459375,11.989,3.6812059375C11.9891,5.0710759375,12.9724,6.2667059375,14.3361,6.5352059375C14.4588,7.0146759375,14.529,7.5060959375,14.5455,8.000765937499999L16,8.000765937499999C15.9967,7.1857359375,15.8704,6.3758859375,15.6253,5.5985659375C15.528,5.2923759375,15.2413,5.0863159375,14.9201,5.0916759375C14.1166,5.0676959375,13.4849,4.3965159375,13.5096,3.5930559375C13.5114,3.3722559375,13.5603,3.1543759375,13.6529,2.9539359375C13.7966,2.6683759375,13.7336,2.3221659375,13.4986,2.1054559375L13.0028,2.6343759375L13.4986,2.1054559375C12.5445,1.2327939374999999,11.3903,0.6083709374999999,10.1378,0.2872770375L9.9394,0.9814909375L10.1378,0.2872770375C9.80721,0.1870544375,9.45273,0.3409756375,9.30029,0.6509129375C9.05611,1.1454209375,8.55152,1.4575859375,8.00001,1.4553159375C7.4524,1.4545559375,6.9509,1.1485509375,6.69974,0.6619319375L6.06062,0.9925099375L6.69974,0.6619319375C6.55107,0.3477207375,6.19562,0.1887025375,5.86228,0.2872770375C4.62617,0.6262719375,3.49144,1.2617259375,2.5565,2.1385159375000002L2.40223,2.9869959375C2.49489,3.1756959375,2.54385,3.3828459375,2.54548,3.5930559375C2.57035,4.4135359375,1.91179,5.0920559375,1.09093,5.0916759375C0.769701,5.0863159375,0.483013,5.2923759375,0.385701,5.5985659375C0.136921,6.3753059375,0.00689672,7.1851759375,0.0000269945,8.000765937499999C-0.00140351,8.5413459375,0.0539973,9.0805759375,0.165316,9.6095759375C0.236981,9.9779359375,0.573568,10.2339259375,0.947684,10.2046159375L0.881568,9.4773459375L0.947684,10.2046159375L1.09093,10.2046159375C1.88573,10.2045259375,2.53343,10.8424359375,2.54548,11.6371359375C2.54842,11.9803359375,2.42709,12.3130359375,2.20388,12.5737359375C1.96186,12.8516359375,1.96186,13.2655359375,2.20388,13.5434359375C3.16792,14.5591359375,4.37915,15.3071359375,5.71903,15.7142359375C6.09882,15.8216359375,6.49491,15.6064359375,6.61159,15.2294359375L5.92839,15.0090359375L6.61159,15.2294359375C6.79504,14.6139359375,7.35783,14.1896359375,8.00001,14.1825359375C8.63141,14.1800359375,9.19233,14.5851359375,9.38844,15.1853359375C9.50485,15.5620359375,9.90378,15.7737359375,10.281,15.6591359375L10.0716,14.9649359375L10.27,15.6591359375C11.6019,15.2600359375,12.8062,14.5192359375,13.7631,13.5104359375C14.01,13.2343359375,14.01,12.8167359375,13.7631,12.5407359375C13.4001,12.1094359375,13.3189,11.5072359375,13.5549,10.9952359375C13.7908,10.4832359375,14.3013,10.1537359375,14.865,10.1495159375L15.0083,10.1495159375C15.3769,10.1856359375,15.7138,9.9388859375,15.7906,9.5765159375C15.9091,9.0588959375,15.9792,8.5313759375,16,8.000765937499999L14.5455,8.000765937499999Z" fill="#19191A" fill-opacity="1"/></g><g><path d="M7.999998158721924,4.69467306137085C6.174268158721924,4.69467306137085,4.694218158721924,6.17472306137085,4.694218158721924,8.00045306137085C4.694218158721924,9.826183061370848,6.174268158721924,11.30623306137085,7.999998158721924,11.30623306137085C9.825728158721923,11.30623306137085,11.305778158721925,9.826183061370848,11.305778158721925,8.00045306137085C11.305778158721925,6.17472306137085,9.825728158721923,4.69467306137085,7.999998158721924,4.69467306137085ZM7.999998158721924,9.79659306137085C6.992988158721924,9.796523061370848,6.177848158721924,8.97797306137085,6.181968158721924,7.97098306137085C6.186088158721924,6.9639830613708495,7.007898158721924,6.15213306137085,8.014868158721924,6.160293061370849C9.021838158721923,6.168453061370849,9.830378158721924,6.9935230613708494,9.818178158721924,8.00045306137085C9.806178158721924,8.99591306137085,8.995678158721923,9.79659306137085,7.999998158721924,9.79659306137085Z" fill="#19191A" fill-opacity="1"/></g></g></g></g></svg>