<svg xmlns="http://www.w3.org/2000/svg" xmlns:xlink="http://www.w3.org/1999/xlink" fill="none" version="1.1" width="16" height="16" viewBox="0 0 16 16"><defs><clipPath id="master_svg0_132_41399"><rect x="0" y="0" width="16" height="16" rx="0"/></clipPath></defs><g clip-path="url(#master_svg0_132_41399)"><g><path d="M15.88521171875,12.6324L15.88521171875,6.09466Q15.88391171875,4.86329,15.08411171875,3.92511Q14.31661171875,3.02479,13.16741171875,2.801Q13.15821171875,2.75699,13.14531171875,2.72867L12.78351171875,1.95205Q12.19401171875,0.691357,10.88181171875,0.213663Q9.56863171875,-0.262571,8.30809171875,0.322675L3.93359171875,2.36446Q3.68187171875,2.48229,3.57023171875,2.72898L3.36706171875,2.72898Q1.97474171875,2.72898,0.98712471875,3.71659Q-0.00048828125,4.70421,-0.00048828125,6.09653L-0.00048828125,12.6324Q-0.00048828125,14.0248,0.98712471875,15.0124Q1.97474171875,16,3.36706171875,16L12.51771171875,16Q13.91001171875,16,14.89761171875,15.0124Q15.88531171875,14.0248,15.88521171875,12.6324ZM6.71276171875,2.72898L11.48481171875,2.72898L11.41981171875,2.58921Q11.09451171875,1.89444,10.36831171875,1.62988Q9.63828171875,1.3649,8.94500171875,1.68826L6.71276171875,2.72898ZM14.37731171875,5.99782Q14.34421171875,5.29147,13.83351171875,4.78074Q13.28741171875,4.23465,12.51771171875,4.23465L3.36706171875,4.23465Q2.59735171875,4.23465,2.05127171875,4.78074Q1.50518171875,5.32682,1.50518171875,6.09653L1.50518171875,12.6342Q1.50518171875,13.4039,2.05127171875,13.95Q2.59736171875,14.4961,3.36706171875,14.4961L12.51771171875,14.4961Q13.28741171875,14.4961,13.83351171875,13.95Q14.34421171875,13.4393,14.37731171875,12.7329L10.65771171875,12.7329Q9.26539171875,12.7329,8.27783171875,11.7451Q7.29021171875,10.7575,7.28955171875,9.36523Q7.28955171875,7.97291,8.27783171875,6.98535Q9.26543171875,5.99774,10.65771171875,5.99805L14.37731171875,5.99782ZM14.37961171875,7.50349L10.65771171875,7.50342Q9.88800171875,7.50342,9.34131171875,8.0498Q8.79522171875,8.5959,8.79541171875,9.36523Q8.79541171875,10.1349,9.34131171875,10.6812Q9.88739171875,11.2272,10.65771171875,11.2271L14.37961171875,11.2273L14.37961171875,7.50349Z" fill-rule="evenodd" fill="#282829" fill-opacity="1"/></g><g><path d="M12.64649171875,9.37866578125Q12.64649171875,9.44368578125,12.64012171875,9.50839578125Q12.63375171875,9.57309578125,12.62106171875,9.63686578125Q12.60838171875,9.70063578125,12.58950171875,9.76285578125Q12.57063171875,9.82507578125,12.545751718750001,9.88514578125Q12.52087171875,9.945215781249999,12.49022171875,10.00255578125Q12.45957171875,10.059895781249999,12.42344171875,10.11395578125Q12.38732171875,10.16801578125,12.34607171875,10.21828578125Q12.30483171875,10.26854578125,12.25885171875,10.31451578125Q12.21288171875,10.36049578125,12.16262171875,10.40173578125Q12.11236171875,10.44298578125,12.05829171875,10.47910578125Q12.004231718749999,10.51523578125,11.94689171875,10.54588578125Q11.889551718749999,10.57653578125,11.82948171875,10.601415781250001Q11.76941171875,10.62629578125,11.70719171875,10.64516578125Q11.64497171875,10.66404578125,11.58120171875,10.67672578125Q11.51743171875,10.68941578125,11.45273171875,10.69578578125Q11.38802171875,10.70215578125,11.32300171875,10.70215578125Q11.257981718749999,10.70215578125,11.19328171875,10.69578578125Q11.128571718749999,10.68941578125,11.064801718750001,10.67672578125Q11.00103171875,10.66404578125,10.93881371875,10.64516578125Q10.87659471875,10.62629578125,10.81652471875,10.601415781250001Q10.75645571875,10.57653578125,10.69911371875,10.54588578125Q10.64177171875,10.51523578125,10.58771071875,10.47910578125Q10.53364971875,10.44298578125,10.48338871875,10.40173578125Q10.43312871875,10.36049578125,10.38715371875,10.31451578125Q10.34117771875,10.26854578125,10.29993071875,10.21828578125Q10.25868271875,10.16801578125,10.22256071875,10.11395578125Q10.18643771875,10.059895781249999,10.15578771875,10.00255578125Q10.12513771875,9.945215781249999,10.10025671875,9.88514578125Q10.07537481875,9.82507578125,10.05650081875,9.76285578125Q10.03762681875,9.70063578125,10.02494221875,9.63686578125Q10.01225761875,9.57309578125,10.00588468875,9.50839578125Q9.99951171875,9.44368578125,9.99951171875,9.37866578125Q9.99951171875,9.313645781249999,10.00588468875,9.24894578125Q10.01225761875,9.184235781249999,10.02494221875,9.120465781250001Q10.03762681875,9.05669578125,10.05650081875,8.99447778125Q10.07537481875,8.93225878125,10.10025671875,8.87218878125Q10.12513771875,8.81211878125,10.15578771875,8.75477778125Q10.18643771875,8.69743578125,10.22256071875,8.64337478125Q10.25868271875,8.58931378125,10.29993071875,8.53905278125Q10.34117771875,8.48879278125,10.38715371875,8.44281778125Q10.43312871875,8.39684178125,10.48338871875,8.35559478125Q10.53364971875,8.31434678125,10.58771071875,8.27822378125Q10.64177171875,8.24210178125,10.69911371875,8.21145178125Q10.75645571875,8.18080178125,10.81652471875,8.15592078125Q10.87659471875,8.13103888125,10.93881371875,8.11216488125Q11.00103171875,8.09329088125,11.064801718750001,8.08060628125Q11.128571718749999,8.06792168125,11.19328171875,8.06154875125Q11.257981718749999,8.05517578125,11.32300171875,8.05517578125Q11.38802171875,8.05517578125,11.45273171875,8.06154875125Q11.51743171875,8.06792168125,11.58120171875,8.08060628125Q11.64497171875,8.09329088125,11.70719171875,8.11216488125Q11.76941171875,8.13103888125,11.82948171875,8.15592078125Q11.889551718749999,8.18080178125,11.94689171875,8.21145178125Q12.004231718749999,8.24210178125,12.05829171875,8.27822378125Q12.11236171875,8.31434678125,12.16262171875,8.35559478125Q12.21288171875,8.39684178125,12.25885171875,8.44281778125Q12.30483171875,8.48879278125,12.34607171875,8.53905278125Q12.38732171875,8.58931378125,12.42344171875,8.64337478125Q12.45957171875,8.69743578125,12.49022171875,8.75477778125Q12.52087171875,8.81211878125,12.545751718750001,8.87218878125Q12.57063171875,8.93225878125,12.58950171875,8.99447778125Q12.60838171875,9.05669578125,12.62106171875,9.120465781250001Q12.63375171875,9.184235781249999,12.64012171875,9.24894578125Q12.64649171875,9.313645781249999,12.64649171875,9.37866578125Z" fill="#282829" fill-opacity="1"/></g></g></svg>