<svg xmlns="http://www.w3.org/2000/svg" xmlns:xlink="http://www.w3.org/1999/xlink" fill="none" version="1.1" width="48" height="48" viewBox="0 0 48 48"><defs><linearGradient x1="0.1055908203125" y1="0.2517225444316864" x2="0.3773218703110346" y2="0.4252672157940609" id="master_svg0_87_6703"><stop offset="0%" stop-color="#F7BB12" stop-opacity="1"/><stop offset="100%" stop-color="#F7BB12" stop-opacity="0"/></linearGradient><filter id="master_svg1_132_40053" filterUnits="objectBoundingBox" color-interpolation-filters="sRGB" x="-0.39083969465648855" y="-0.24608423520521375" width="1.7816793893129772" height="1.7382527056156412"><feFlood flood-opacity="0" result="BackgroundImageFix"/><feColorMatrix in="SourceAlpha" type="matrix" values="0 0 0 0 0 0 0 0 0 0 0 0 0 0 0 0 0 0 127 0"/><feOffset dy="2" dx="0"/><feGaussianBlur stdDeviation="1.5"/><feColorMatrix type="matrix" values="0 0 0 0 0.6392157077789307 0 0 0 0 0.46797385811805725 0 0 0 0 0.125490203499794 0 0 0 0.5 0"/><feBlend mode="normal" in2="BackgroundImageFix" result="effect1_dropShadow"/><feBlend mode="normal" in="SourceGraphic" in2="effect1_dropShadow" result="shape"/></filter><filter id="master_svg2_132_40055" filterUnits="objectBoundingBox" color-interpolation-filters="sRGB" x="-0.6627831715210356" y="-1.5108815935079307" width="2.325566343042071" height="5.532644780523792"><feFlood flood-opacity="0" result="BackgroundImageFix"/><feColorMatrix in="SourceAlpha" type="matrix" values="0 0 0 0 0 0 0 0 0 0 0 0 0 0 0 0 0 0 127 0"/><feOffset dy="2" dx="0"/><feGaussianBlur stdDeviation="1.5"/><feColorMatrix type="matrix" values="0 0 0 0 0.6392157077789307 0 0 0 0 0.46797385811805725 0 0 0 0 0.125490203499794 0 0 0 0.5 0"/><feBlend mode="normal" in2="BackgroundImageFix" result="effect1_dropShadow"/><feBlend mode="normal" in="SourceGraphic" in2="effect1_dropShadow" result="shape"/></filter><filter id="master_svg3_132_40056" filterUnits="objectBoundingBox" color-interpolation-filters="sRGB" x="-0.5034414945919371" y="-1.5108815935079307" width="2.006882989183874" height="5.532644780523792"><feFlood flood-opacity="0" result="BackgroundImageFix"/><feColorMatrix in="SourceAlpha" type="matrix" values="0 0 0 0 0 0 0 0 0 0 0 0 0 0 0 0 0 0 127 0"/><feOffset dy="2" dx="0"/><feGaussianBlur stdDeviation="1.5"/><feColorMatrix type="matrix" values="0 0 0 0 0.6392157077789307 0 0 0 0 0.46797385811805725 0 0 0 0 0.125490203499794 0 0 0 0.5 0"/><feBlend mode="normal" in2="BackgroundImageFix" result="effect1_dropShadow"/><feBlend mode="normal" in="SourceGraphic" in2="effect1_dropShadow" result="shape"/></filter></defs><g><g><rect x="6" y="7.7978515625" width="36" height="10" rx="2" fill="#FBDB7F" fill-opacity="1"/></g><g><ellipse cx="11.626953125" cy="12.7978515625" rx="2" ry="2" fill="#FAFBFF" fill-opacity="0.8999999761581421"/></g><g><ellipse cx="19.1279296875" cy="12.7978515625" rx="2" ry="2" fill="#FAFBFF" fill-opacity="0.8999999761581421"/></g><g><rect x="6.326171875" y="19.36865234375" width="36" height="24" rx="3" fill="#F4AA13" fill-opacity="1"/><rect x="6.326171875" y="19.36865234375" width="36" height="24" rx="3" fill="url(#master_svg0_87_6703)" fill-opacity="1"/></g><g filter="url(#master_svg1_132_40053)"><path d="M39.967540625,34.90906328125L38.805240624999996,34.24265328125C39.181140625,33.10124328125,39.181140625,31.87307328125,38.805240624999996,30.73166328125L39.967540625,30.06522328125C40.325640625,29.860093281250002,40.450940625,29.41266328125,40.249840625,29.057443281250002L39.486040625,27.78958328125C39.282540624999996,27.43140328125,38.818240625,27.30676328125,38.456540625,27.51325328125L37.310840625,28.16344328125C36.469540625,27.29015328125,35.383640625,26.679453281249998,34.189230625,26.40794328125L34.189230625,25.09132028125C34.180290625,24.68482828125,33.840960625,24.35986328125,33.425420625,24.35986328125L31.914420624999998,24.35986328125C31.501750625,24.35986328125,31.167220625,24.68734728125,31.167220625,25.09132028125L31.167220625,26.40794328125C29.966840625,26.67648328125,28.874740625,27.28739328125,28.028990625,28.16344328125L26.883280625,27.51325328125C26.521640625,27.30676328125,26.057290625,27.43140328125,25.853811625,27.78958328125L25.090007525,29.057443281250002C24.888894625,29.41266328125,25.014215925,29.860093281250002,25.372281625,30.06522328125L26.534590625,30.73166328125C26.158720625,31.87307328125,26.158720625,33.10124328125,26.534590625,34.24265328125L25.372281625,34.90906328125C25.014215925,35.114263281250004,24.888892625,35.56166328125,25.090007525,35.91686328125L25.853811625,37.18476328125C26.057290625,37.542963281249996,26.521640625,37.66756328125,26.883280625,37.46106328125L28.028990625,36.81086328125C28.870260625,37.68416328125,29.956200625,38.29486328125,31.150620625000002,38.56636328125L31.150620625000002,39.88296328125C31.150620625000002,40.286963281249996,31.485150625,40.614463281249996,31.897820625,40.614463281249996L33.408820625000004,40.614463281249996C33.824260625,40.61456328125,34.163590625,40.28956328125,34.172620625,39.88296328125L34.172620625,38.56636328125C35.367040625,38.29486328125,36.452940625,37.68416328125,37.294240625,36.81086328125L38.439940625,37.46106328125C38.801640625,37.66756328125,39.265940625,37.542963281249996,39.469440625000004,37.18476328125L40.233240625,35.91686328125C40.437240625,35.56586328125,40.319640625,35.11966328125,39.967540625,34.90906328125ZM32.678230625,36.176963281249996C30.596560625000002,36.176963281249996,28.909030625,34.52496328125,28.909030625,32.48716328125C28.909030625,30.449343281250002,30.596560625000002,28.79737328125,32.678230625,28.79737328125C34.759900625,28.79737328125,36.447440625,30.449343281250002,36.447440625,32.48716328125C36.456640625,34.52876328125,34.763720625,36.18596328125,32.678230625,36.176963281249996Z" fill="#FAFBFF" fill-opacity="1"/></g><g filter="url(#master_svg2_132_40055)"><rect x="10.3828125" y="27.03466796875" width="9.052734375" height="2.6474609375" rx="1.32373046875" fill="#FAFBFF" fill-opacity="1"/></g><g filter="url(#master_svg3_132_40056)"><rect x="10.3828125" y="34.927734375" width="11.91796875" height="2.6474609375" rx="1.32373046875" fill="#FAFBFF" fill-opacity="1"/></g></g></svg>