<svg xmlns="http://www.w3.org/2000/svg" xmlns:xlink="http://www.w3.org/1999/xlink" fill="none" version="1.1" width="20" height="20" viewBox="0 0 20 20"><defs><clipPath id="master_svg0_202_52224"><rect x="0" y="0" width="20" height="20" rx="0"/></clipPath></defs><g clip-path="url(#master_svg0_202_52224)"><g><path d="M5.841064453125,4.326171875L5.841064453125,17.999971875C5.841064453125,19.104571875,6.736495453125,19.999971875,7.841064453125,19.999971875L11.999994453125,19.999971875C16.418264453124998,19.999971875,19.999964453125,16.418271875000002,19.999964453125,12.000001875L19.999964453125,4.326171875C19.999964453125,3.221602875,19.104564453125,2.326171875,17.999964453125,2.326171875L7.841064453125,2.326171875C6.736495453125,2.326171875,5.841064453125,3.221602875,5.841064453125,4.326171875Z" fill="#F2551E" fill-opacity="1"/></g><g><path d="M0,2L0,18C0,19.1046,0.895431,20,2,20L8,20C12.4183,20,16,16.4183,16,12L16,2C16,0.895431,15.1046,0,14,0L2,0C0.895431,0,0,0.895431,0,2Z" fill="#FA8F37" fill-opacity="1"/></g><g><g transform="matrix(0,1,-1,0,15.83447265625,-3.33544921875)"><path d="M8.5849609375,6.24951171875Q8.5849609375,6.15102031875,8.604175937499999,6.05442171875Q8.6233909375,5.95782271875,8.6610819375,5.86682871875Q8.6987729375,5.77583371875,8.7534909375,5.69394171875Q8.8082099375,5.61204871875,8.8778539375,5.54240471875Q8.9474979375,5.47276071875,9.0293909375,5.41804171875Q9.1112829375,5.36332371875,9.2022779375,5.32563271875Q9.2932719375,5.28794171875,9.3898709375,5.26872671875Q9.4864695375,5.24951171875,9.5849609375,5.24951171875Q9.6834523375,5.24951171875,9.7800509375,5.26872671875Q9.8766499375,5.28794171875,9.9676439375,5.32563271875Q10.0586389375,5.36332371875,10.1405309375,5.41804171875Q10.2224239375,5.47276071875,10.2920679375,5.54240471875Q10.3617119375,5.61204871875,10.4164309375,5.69394171875Q10.4711489375,5.77583371875,10.5088399375,5.86682871875Q10.5465309375,5.95782271875,10.565745937500001,6.05442171875Q10.5849609375,6.15102031875,10.5849609375,6.24951171875L10.5849609375,11.58398171875Q10.5849609375,11.68247171875,10.565745937500001,11.77907171875Q10.5465309375,11.875671718749999,10.5088399375,11.96666171875Q10.4711489375,12.057661718750001,10.4164309375,12.139551718749999Q10.3617119375,12.22145171875,10.2920679375,12.29109171875Q10.2224239375,12.36073171875,10.1405309375,12.415451718749999Q10.0586389375,12.470171718749999,9.9676439375,12.50786171875Q9.8766499375,12.54555171875,9.7800509375,12.56477171875Q9.6834523375,12.58398171875,9.5849609375,12.58398171875Q9.4864695375,12.58398171875,9.3898709375,12.56477171875Q9.2932719375,12.54555171875,9.2022779375,12.50786171875Q9.1112829375,12.470171718749999,9.0293909375,12.415451718749999Q8.9474979375,12.36073171875,8.8778539375,12.29109171875Q8.8082099375,12.22145171875,8.7534909375,12.139551718749999Q8.6987729375,12.057661718750001,8.6610819375,11.96666171875Q8.6233909375,11.875671718749999,8.604175937499999,11.77907171875Q8.5849609375,11.68247171875,8.5849609375,11.58398171875L8.5849609375,6.24951171875Z" fill-rule="evenodd" fill="#FFFFFF" fill-opacity="1"/></g><g transform="matrix(0,1,-1,0,19,3.4990234375)"><path d="M6.75048828125,11.24951171875Q6.75048828125,11.15102031875,6.76970328125,11.05442171875Q6.78891828125,10.95782271875,6.82660928125,10.86682871875Q6.86430028125,10.77583371875,6.91901828125,10.69394171875Q6.97373728125,10.61204871875,7.04338128125,10.54240471875Q7.11302528125,10.47276071875,7.19491828125,10.41804171875Q7.27681028125,10.36332371875,7.36780528125,10.32563271875Q7.45879928125,10.28794171875,7.55539828125,10.268726718749999Q7.65199688125,10.24951171875,7.75048828125,10.24951171875Q7.84897968125,10.24951171875,7.94557828125,10.268726718749999Q8.04217728125,10.28794171875,8.13317128125,10.32563271875Q8.22416628125,10.36332371875,8.30605828125,10.41804171875Q8.38795128125,10.47276071875,8.45759528125,10.54240471875Q8.52723928125,10.61204871875,8.58195828125,10.69394171875Q8.63667628125,10.77583371875,8.67436728125,10.86682871875Q8.71205828125,10.95782271875,8.731273281250001,11.05442171875Q8.75048828125,11.15102031875,8.75048828125,11.24951171875L8.75048828125,14.74951171875Q8.75048828125,14.84800171875,8.731273281250001,14.94460171875Q8.71205828125,15.04120171875,8.67436728125,15.13219171875Q8.63667628125,15.22319171875,8.58195828125,15.30508171875Q8.52723928125,15.38697171875,8.45759528125,15.45662171875Q8.38795128125,15.52626171875,8.30605828125,15.58098171875Q8.22416628125,15.63570171875,8.13317128125,15.67339171875Q8.04217728125,15.71108171875,7.94557828125,15.73029171875Q7.84897968125,15.74951171875,7.75048828125,15.74951171875Q7.65199688125,15.74951171875,7.55539828125,15.73029171875Q7.45879928125,15.71108171875,7.36780528125,15.67339171875Q7.27681028125,15.63570171875,7.19491828125,15.58098171875Q7.11302528125,15.52626171875,7.04338128125,15.45662171875Q6.97373728125,15.38697171875,6.91901828125,15.30508171875Q6.86430028125,15.22319171875,6.82660928125,15.13219171875Q6.78891828125,15.04120171875,6.76970328125,14.94460171875Q6.75048828125,14.84800171875,6.75048828125,14.74951171875L6.75048828125,11.24951171875Z" fill-rule="evenodd" fill="#FFFFFF" fill-opacity="1"/></g></g></g></svg>