<svg xmlns="http://www.w3.org/2000/svg" xmlns:xlink="http://www.w3.org/1999/xlink" fill="none" version="1.1" width="48" height="48" viewBox="8 8 48 48"><defs><clipPath id="master_svg0_202_50856"><rect x="0" y="0" width="64" height="64" rx="17.230770111083984"/></clipPath><filter id="master_svg1_202_50860" filterUnits="objectBoundingBox" color-interpolation-filters="sRGB" x="-0.5061193745658564" y="-0.6413982573257814" width="2.012238749131713" height="2.9241947719773442"><feFlood flood-opacity="0" result="BackgroundImageFix"/><feColorMatrix in="SourceAlpha" type="matrix" values="0 0 0 0 0 0 0 0 0 0 0 0 0 0 0 0 0 0 127 0"/><feOffset dy="2.153846263885498" dx="0"/><feGaussianBlur stdDeviation="1.6153846979141235"/><feColorMatrix type="matrix" values="0 0 0 0 0.6392157077789307 0 0 0 0 0.46666666865348816 0 0 0 0 0.125490203499794 0 0 0 0.36000001430511475 0"/><feBlend mode="normal" in2="BackgroundImageFix" result="effect1_dropShadow"/><feBlend mode="normal" in="SourceGraphic" in2="effect1_dropShadow" result="shape"/></filter></defs><g clip-path="url(#master_svg0_202_50856)"><rect x="0" y="0" width="64" height="64" rx="17.230770111083984" fill="#FFF8F0" fill-opacity="1"/><g><g><path d="M25.521817187499998,43.3083625Q26.2804171875,43.3083625,26.959017187500002,43.5877625Q27.6377171875,43.867262499999995,28.1367171875,44.366262500000005Q28.6358171875,44.8652625,28.9352171875,45.5439625Q29.2346171875,46.2226625,29.2346171875,46.9811625Q29.2346171875,47.7396625,28.9352171875,48.4183625Q28.6358171875,49.0970625,28.1367171875,49.5960625Q27.6377171875,50.0950625,26.959017187500002,50.3944625Q26.2804171875,50.6939625,25.521817187499998,50.6939625Q24.7234171875,50.6939625,24.044717187499998,50.3944625Q23.3660171875,50.0950625,22.8670171875,49.5960625Q22.3680171875,49.0970625,22.0685771875,48.4183625Q21.769167187500003,47.7396625,21.769167187500003,46.9811625Q21.769167187500003,46.2226625,22.0685771875,45.5439625Q22.3680171875,44.8652625,22.8670171875,44.366262500000005Q23.3660171875,43.867262499999995,24.044717187499998,43.5877625Q24.7234171875,43.3083625,25.521817187499998,43.3083625ZM42.129417187499996,43.3881625Q42.8880171875,43.3881625,43.586617187499996,43.6676625Q44.285217187499995,43.9470625,44.7843171875,44.4460625Q45.2833171875,44.945162499999995,45.5827171875,45.6238625Q45.8821171875,46.3024625,45.8821171875,47.0609625Q45.8821171875,47.8195625,45.5827171875,48.4981625Q45.2833171875,49.1768625,44.7843171875,49.6759625Q44.285217187499995,50.1749625,43.586617187499996,50.4743625Q42.8880171875,50.7737625,42.129417187499996,50.7737625Q41.3709171875,50.7737625,40.6922171875,50.4743625Q40.0136171875,50.1749625,39.514517187500005,49.6759625Q39.015517187499995,49.1768625,38.716117187500004,48.4981625Q38.4167171875,47.8195625,38.4167171875,47.0609625Q38.4167171875,46.3024625,38.716117187500004,45.6238625Q39.015517187499995,44.945162499999995,39.514517187500005,44.4460625Q40.0136171875,43.9470625,40.6922171875,43.6676625Q41.3709171875,43.3881625,42.129417187499996,43.3881625ZM48.8364171875,20.7123925Q49.9542171875,20.7123925,50.5730171875,21.0118025Q51.1918171875,21.3112225,51.4513171875,21.7503625Q51.7108171875,22.1895125,51.6908171875,22.6885325Q51.6708171875,23.1875625,51.5511171875,23.5468625Q51.4313171875,23.9061625,51.0321171875,25.0239625Q50.6329171875,26.1417625,50.1738171875,27.4791625Q49.7147171875,28.8165625,49.2555171875,30.1340625Q48.7964171875,31.4514625,48.5170171875,32.2099625Q47.9980171875,33.8068625,47.2195171875,34.4256625Q46.4410171875,35.0444625,45.2833171875,35.0444625L43.8860171875,35.0444625L41.331017187499995,35.0444625L37.9775171875,35.0444625L34.2249171875,35.0444625L24.3242171875,35.0444625L24.883117187499998,38.6374625L45.0438171875,38.6374625Q46.9600171875,38.6374625,46.9600171875,40.2742625Q46.9600171875,41.0726625,46.5808171875,41.6515625Q46.2015171875,42.2304625,45.0837171875,42.2304625L43.1674171875,42.2304625L39.4946171875,42.2304625L34.8636171875,42.2304625L30.1927171875,42.2304625L26.320317187500002,42.2304625L24.1645171875,42.2304625Q23.3660171875,42.2304625,22.8271171875,41.8711625Q22.288157187499998,41.5118625,21.9288571875,40.9329625Q21.5695571875,40.3540625,21.3499871875,39.6753625Q21.1304171875,38.9967625,21.0106471875,38.3978625Q20.9707271875,38.158362499999996,20.7910771875,37.2401625Q20.6114271875,36.3219625,20.3519271875,34.9446625Q20.0924371875,33.5673625,19.7730571875,31.8706625Q19.4536771875,30.1739625,19.1343071875,28.4572625Q18.375787187500002,24.4251625,17.417647187500002,19.4748025L14.423487187500001,19.4748025Q13.8246571875,19.4748025,13.4254371875,19.1753925Q13.0262161875,18.8759725,12.7667221875,18.4567925Q12.5072281875,18.0376025,12.4074225875,17.5585425Q12.307617280451,17.0794725,12.3076171875,16.6802525Q12.3076171875,15.8818125,12.8465661875,15.3628225Q13.3855171875,14.8438325,14.3037271875,14.8438325L15.1420871875,14.8438325L15.9804571875,14.8438325L16.9785071875,14.8438325L18.3358571875,14.8438325Q19.1343071875,14.8438325,19.6133671875,15.0833625Q20.0924371875,15.3229025,20.3718871875,15.682202499999999Q20.6513471875,16.0415025,20.7711071875,16.4407225Q20.8908771875,16.8399425,20.9707271875,17.1193925Q21.0505671875,17.4387725,21.130407187499998,18.0176425Q21.210257187499998,18.5965125,21.290097187500002,19.1953525Q21.409867187499998,19.9139525,21.529627187499997,20.7123925L48.8364171875,20.7123925ZM45.8422171875,19.4348825L31.2307171875,19.4348825L36.5004171875,14.1651575Q37.418617187500004,13.2469482,38.5165171875,13.226987249Q39.6143171875,13.2070263,40.5326171875,14.1252355L45.8422171875,19.4348825Z" fill="#F4AA13" fill-opacity="1" style="mix-blend-mode:passthrough"/></g><g><path d="M25.521722968749998,43.3083625Q26.28024296875,43.3083625,26.95892296875,43.5877625Q27.637602968750002,43.867262499999995,28.13662296875,44.366262500000005Q28.63565296875,44.8652625,28.93507296875,45.5439625Q29.23448296875,46.2226625,29.23448296875,46.9811625Q29.23448296875,47.7396625,28.93507296875,48.4183625Q28.63565296875,49.0970625,28.13662296875,49.5960625Q27.63759296875,50.0950625,26.95892296875,50.3944625Q26.28025296875,50.6939625,25.521722968749998,50.6939625Q24.72328296875,50.6939625,24.04460296875,50.3944625Q23.36593296875,50.0950625,22.86690296875,49.5960625Q22.36787496875,49.0970625,22.06845896875,48.4183625Q21.76904296875,47.7396625,21.76904296875,46.9811625Q21.76904296875,46.2226625,22.06845896875,45.5439625Q22.36787496875,44.8652625,22.86690296875,44.366262500000005Q23.36593296875,43.867262499999995,24.04460296875,43.5877625Q24.72328296875,43.3083625,25.521722968749998,43.3083625ZM42.129342968749995,43.3881625Q42.88784296875,43.3881625,43.586542968749995,43.6676625Q44.28514296875,43.9470625,44.784142968750004,44.4460625Q45.28314296875,44.945162499999995,45.58264296875,45.6238625Q45.88204296875,46.3024625,45.88204296875,47.0609625Q45.88204296875,47.8195625,45.58264296875,48.4981625Q45.28314296875,49.1768625,44.784142968750004,49.6759625Q44.28514296875,50.1749625,43.586542968749995,50.4743625Q42.88784296875,50.7737625,42.129342968749995,50.7737625Q41.37084296875,50.7737625,40.692142968750005,50.4743625Q40.01344296875,50.1749625,39.514442968750004,49.6759625Q39.01544296875,49.1768625,38.71594296875,48.4981625Q38.41654296875,47.8195625,38.41654296875,47.0609625Q38.41654296875,46.3024625,38.71594296875,45.6238625Q39.01544296875,44.945162499999995,39.514442968750004,44.4460625Q40.01344296875,43.9470625,40.692142968750005,43.6676625Q41.37084296875,43.3881625,42.129342968749995,43.3881625ZM45.84214296875,19.4348825L31.230592968750003,19.4348825L36.50034296875,14.1651575Q37.41854296875,13.2469482,38.516342968749996,13.226987199Q39.61424296875,13.2070262,40.532442968750004,14.1252355L45.84214296875,19.4348825Z" fill="#FBDB7F" fill-opacity="1" style="mix-blend-mode:passthrough"/></g><g filter="url(#master_svg1_202_50860)"><path d="M39.7901015625,29.937710888671873L33.3650615625,29.924710888671875L33.3650615625,31.358220888671873C33.3629015625,31.589880888671875,33.2371515625,31.802740888671874,33.0352915625,31.916430888671876C32.8334315625,32.03011088867188,32.5862215625,32.027300888671874,32.387001562500004,31.909050888671874L27.8312225625,29.192510888671876C27.4117275625,28.945100888671874,27.4117275625,28.338270888671875,27.8312225625,28.090850888671874L32.387001562500004,25.374316488671877C32.8163715625,25.121535888671875,33.3586315625,25.426931888671874,33.3650615625,25.925147888671876L33.3650615625,27.358650888671875L39.7911015625,27.358770888671874C40.0630015625,27.358780888671873,40.2834015625,27.579190888671874,40.2834015625,27.851080888671873L40.2834015625,29.445400888671877C40.2834015625,29.717690888671875,40.0624015625,29.938260888671877,39.7901015625,29.937710888671873" fill="#FFFFFF" fill-opacity="1"/></g></g></g></svg>