<svg xmlns="http://www.w3.org/2000/svg" xmlns:xlink="http://www.w3.org/1999/xlink" fill="none" version="1.1" width="64" height="64" viewBox="0 0 64 64"><defs><clipPath id="master_svg0_163_36400"><rect x="0" y="0" width="64" height="64" rx="0"/></clipPath><clipPath id="master_svg1_163_36403"><rect x="5.3330078125" y="0" width="53.33333206176758" height="64" rx="0"/></clipPath><linearGradient x1="0.5" y1="0" x2="0.5" y2="1" id="master_svg2_163_27338"><stop offset="0%" stop-color="#C4EEA3" stop-opacity="1"/><stop offset="100%" stop-color="#F0FBE7" stop-opacity="1"/></linearGradient><clipPath id="master_svg3_163_36414"><rect x="38" y="44" width="20" height="20" rx="0"/></clipPath></defs><g clip-path="url(#master_svg0_163_36400)"><g clip-path="url(#master_svg1_163_36403)"><g><path d="M5.3330078125,0L5.3330078125,64L58.6663078125,64L58.6663078125,17.3333L41.3330078125,0L5.3330078125,0Z" fill="url(#master_svg2_163_27338)" fill-opacity="1"/></g><g><g><rect x="10.666015625" y="9.33349609375" width="16" height="5.333333492279053" rx="0" fill="#FFFFFF" fill-opacity="0.8999999761581421"/></g><g><rect x="31.99934959411621" y="9.33349609375" width="16" height="5.333333492279053" rx="0" fill="#FFFFFF" fill-opacity="0.8999999761581421"/></g><g><rect x="10.666015625" y="20" width="16" height="5.333333492279053" rx="0" fill="#FFFFFF" fill-opacity="0.7799999713897705"/></g><g><rect x="31.99934959411621" y="20.000163078308105" width="16" height="5.333333492279053" rx="0" fill="#FFFFFF" fill-opacity="0.7799999713897705"/></g><g><rect x="10.666015625" y="30.6669921875" width="16" height="5.333333492279053" rx="0" fill="#FFFFFF" fill-opacity="0.6800000071525574"/></g><g><rect x="31.99934959411621" y="30.66683006286621" width="16" height="5.333333492279053" rx="0" fill="#FFFFFF" fill-opacity="0.6800000071525574"/></g><g><rect x="10.666015625" y="41.33349609375" width="16" height="5.333333492279053" rx="0" fill="#FFFFFF" fill-opacity="0.46000000834465027"/></g><g><rect x="31.99934959411621" y="41.33349609375" width="16" height="5.333333492279053" rx="0" fill="#FFFFFF" fill-opacity="0.46000000834465027"/></g></g><g transform="matrix(-1,0,0,-1,117.33203125,34.6669921875)"><path d="M58.666015625,17.33349609375L75.99931562500001,34.66679609375L75.99931562500001,17.33349609375L58.666015625,17.33349609375Z" fill="#A1DE78" fill-opacity="1"/></g><g clip-path="url(#master_svg3_163_36414)"><g><path d="M48,44C42.47715,44,38,48.47715,38,54C38,59.522800000000004,42.47715,64,48,64C53.522800000000004,64,58,59.522800000000004,58,54C58,48.47715,53.522800000000004,44,48,44ZM53.3943,51.442859999999996L46.628569999999996,58.2071C46.49571,58.34,46.26429,58.3257,46.11143,58.1729L45.65857,57.72L42.628569999999996,54.6886C42.477289999999996,54.5364,42.477289999999996,54.2907,42.628569999999996,54.1386L43.455709999999996,53.31143C43.60801,53.1592,43.85485,53.1592,44.00714,53.31143L46.38857,55.6943L52.0171,50.06572C52.15,49.93286,52.3814,49.94714,52.5343,50.1L53.36,50.92572C53.5129,51.07857,53.527100000000004,51.31,53.3943,51.442859999999996Z" fill="#52C41A" fill-opacity="1"/></g></g></g></g></svg>