<svg xmlns="http://www.w3.org/2000/svg" xmlns:xlink="http://www.w3.org/1999/xlink" fill="none" version="1.1" width="64" height="64" viewBox="0 0 64 64"><defs><clipPath id="master_svg0_163_36378"><rect x="0" y="0" width="64" height="64" rx="0"/></clipPath><clipPath id="master_svg1_163_36381"><rect x="5.3330078125" y="0" width="53.33333206176758" height="64" rx="0"/></clipPath><linearGradient x1="0.5" y1="0" x2="0.5" y2="1" id="master_svg2_163_36000"><stop offset="0%" stop-color="#FFD3CF" stop-opacity="1"/><stop offset="100%" stop-color="#FEF0ED" stop-opacity="1"/><stop offset="100%" stop-color="#F0FBE7" stop-opacity="1"/></linearGradient><clipPath id="master_svg3_163_36383"><rect x="38.3330078125" y="44" width="20" height="20" rx="0"/></clipPath></defs><g clip-path="url(#master_svg0_163_36378)"><g clip-path="url(#master_svg1_163_36381)"><g><path d="M5,0L5,64L58.3333,64L58.3333,17.3333L41,0L5,0Z" fill="url(#master_svg2_163_36000)" fill-opacity="1"/></g><g><g><rect x="10.666015625" y="9.33349609375" width="16" height="5.333333492279053" rx="0" fill="#FFFFFF" fill-opacity="0.8600000143051147"/></g><g><rect x="31.99934959411621" y="9.33349609375" width="16" height="5.333333492279053" rx="0" fill="#FFFFFF" fill-opacity="0.8600000143051147"/></g><g><rect x="10.666015625" y="20" width="16" height="5.333333492279053" rx="0" fill="#FFFFFF" fill-opacity="0.6800000071525574"/></g><g><rect x="31.99934959411621" y="20.000163078308105" width="16" height="5.333333492279053" rx="0" fill="#FFFFFF" fill-opacity="0.6800000071525574"/></g><g><rect x="10.666015625" y="30.6669921875" width="16" height="5.333333492279053" rx="0" fill="#FFFFFF" fill-opacity="0.5600000023841858"/></g><g><rect x="31.99934959411621" y="30.66683006286621" width="16" height="5.333333492279053" rx="0" fill="#FFFFFF" fill-opacity="0.5600000023841858"/></g><g><rect x="10.666015625" y="41.33349609375" width="16" height="5.333333492279053" rx="0" fill="#FFFFFF" fill-opacity="0.36000001430511475"/></g><g><rect x="31.99934959411621" y="41.33349609375" width="16" height="5.333333492279053" rx="0" fill="#FFFFFF" fill-opacity="0.36000001430511475"/></g></g><g transform="matrix(-1,0,0,-1,117.33203125,34.6669921875)"><path d="M58.666015625,17.33349609375L75.99931562500001,34.66679609375L75.99931562500001,17.33349609375L58.666015625,17.33349609375Z" fill="#FEA4A1" fill-opacity="1"/></g><g clip-path="url(#master_svg3_163_36383)"><g><path d="M57.907184375,60.455725390625L50.067484375,46.745685390625C49.108584375,45.069472390625,47.541494375,45.069472390625,46.582844375,46.745685390625L38.743175375,60.455725390625C37.784529375,62.133625390625,38.568804375,63.502425390625,40.484764375,63.502425390625L56.165484375,63.502425390625C58.081484375,63.502325390625,58.864984375,62.133525390624996,57.907184375,60.455725390625ZM47.248384375,50.635765390625C47.530104375,50.328205390625,47.888264375,50.174395390625,48.325074375,50.174395390625C48.762084375,50.174395390625,49.119984375,50.326585390625,49.401984375,50.629605390625C49.682084375,50.933315390625,49.822184375,51.313145390625,49.822184375,51.769885390625C49.822184375,52.162855390625,49.237384375,55.052505390625,49.042284375,57.154725390625L47.633674375,57.154725390625C47.462594375,55.052475390625,46.828034375,52.162855390625,46.828034375,51.769885390625C46.828074375,51.320075390625,46.968344375,50.941815390625,47.248384375,50.635765390625ZM49.382184375,60.631825390624996C49.085884375,60.923325390624996,48.733284375,61.068525390625,48.325174375,61.068525390625C47.917144375,61.068525390625,47.564434375,60.923325390624996,47.268164375,60.631825390624996C46.972714375,60.341125390625,46.825864375,59.989025390625,46.825864375,59.575425390625C46.825864375,59.164025390625,46.972714375,58.808025390625,47.268164375,58.509725390625C47.564434375,58.211225390625,47.917144375,58.062025390624996,48.325174375,58.062025390624996C48.733284375,58.062025390624996,49.085884375,58.211225390625,49.382184375,58.509725390625C49.677484375,58.808025390625,49.824684375000004,59.164025390625,49.824684375000004,59.575425390625C49.824684375000004,59.989025390625,49.677484375,60.341125390625,49.382184375,60.631825390624996Z" fill="#F85055" fill-opacity="1"/></g></g></g></g></svg>