<svg xmlns="http://www.w3.org/2000/svg" xmlns:xlink="http://www.w3.org/1999/xlink" fill="none" version="1.1" width="48" height="48" viewBox="8 8 48 48"><defs><clipPath id="master_svg0_202_50868"><rect x="0" y="0" width="64" height="64" rx="17.230770111083984"/></clipPath><clipPath id="master_svg1_202_50871"><rect x="11.53857421875" y="11.5384521484375" width="40.92307662963867" height="40.92307662963867" rx="0"/></clipPath><filter id="master_svg2_202_50874" filterUnits="objectBoundingBox" color-interpolation-filters="sRGB" x="-1.1290419541929684" y="-0.7526944447338684" width="3.2580839083859368" height="3.258083373668505"><feFlood flood-opacity="0" result="BackgroundImageFix"/><feColorMatrix in="SourceAlpha" type="matrix" values="0 0 0 0 0 0 0 0 0 0 0 0 0 0 0 0 0 0 127 0"/><feOffset dy="2.2735044956207275" dx="0"/><feGaussianBlur stdDeviation="1.7051283121109009"/><feColorMatrix type="matrix" values="0 0 0 0 0.07572618871927261 0 0 0 0 0.5181325674057007 0 0 0 0 0.652777910232544 0 0 0 0.5 0"/><feBlend mode="normal" in2="BackgroundImageFix" result="effect1_dropShadow"/><feBlend mode="normal" in="SourceGraphic" in2="effect1_dropShadow" result="shape"/></filter></defs><g clip-path="url(#master_svg0_202_50868)"><rect x="0" y="0" width="64" height="64" rx="17.230770111083984" fill="#F0FBFF" fill-opacity="1"/><g clip-path="url(#master_svg1_202_50871)"><g><path d="M29.73244140625,12.93389022265625C29.88634140625,13.03430922265625,29.92774140625,13.24142222265625,29.82434140625,13.39327822265625L24.56774140625,21.44562822265625L32.003141406249995,49.76007822265625L31.88174140625,50.09807822265625C31.34724140625,51.30827822265625,30.00804140625,51.94577822265625,28.73164140625,51.59767822265625L14.73359140625,47.78477822265625C12.99661340625,47.31097822265625,11.96579840625,45.52607822265625,12.42354340625,43.78477822265625L19.42587140625,17.14053822265625C19.45138140625,17.03966822265625,19.52321140625,16.95688822265625,19.61947140625,16.91740822265625L29.42734140625,12.90763922265625C29.52674140625,12.86759222265625,29.63944140625,12.87861822265625,29.72924140625,12.93717122265625L29.73244140625,12.93389022265625ZM43.90774140625,35.693078222656254C48.20304140625,35.693078222656254,51.68444140625,39.25007822265625,51.68444140625,43.63387822265625C51.68444140625,48.02097822265625,48.20304140625,51.57467822265625,43.90774140625,51.57467822265625C39.61254140625,51.57467822265625,36.13104140625,48.02097822265625,36.13104140625,43.63387822265625C36.13104140625,39.25007822265625,39.61254140625,35.693078222656254,43.90774140625,35.693078222656254ZM34.45104140625,12.34325302265625L44.40984140625,17.36366822265625C44.49224140625,17.40586822265625,44.55304140625,17.48094822265625,44.57714140625,17.57038822265625L49.36134140625,35.771878222656255C47.77154140625,34.63207822265625,45.86394140625,34.020278222656245,43.90774140625,34.022878222656246C38.65764140625,34.022878222656246,34.43134140625,38.34107822265625,34.43134140625,43.637178222656246C34.42404140625,46.59457822265625,35.77374140625,49.39197822265625,38.09324140625,51.22687822265625C36.52214140625,51.35507822265625,35.08254140625,50.34577822265625,34.667541406249995,48.82487822265625L27.632441406250003,22.049388222656248L34.03104140625,12.45153622265625C34.12384140625,12.31486585265625,34.30374140625,12.26848012265625,34.45104140625,12.34325302265625ZM42.66084140625,39.68647822265625L39.60924140625,42.803678222656245C39.41744140625,42.99857822265625,39.32544140625,43.27067822265625,39.35984140625,43.541978222656255L39.37624140625,43.63387822265625C39.30604140625,43.931678222656245,39.39264140625,44.24467822265625,39.60594140625,44.46407822265625L42.66084140625,47.58127822265625C42.99924140625,47.90237822265625,43.53274140625,47.89207822265625,43.85854140625,47.55837822265625C44.187241406249996,47.22007822265625,44.19724140625,46.68477822265625,43.88154140625,46.33437822265625L42.10304140625,44.51657822265625L47.35974140625,44.51657822265625C47.67814140625,44.52677822265625,47.97614140625,44.36017822265625,48.13414140625,44.08337822265625C48.29474140625,43.80527822265625,48.29474140625,43.46247822265625,48.13414140625,43.18437822265625C47.97614140625,42.907578222656255,47.67814140625,42.74097822265625,47.35974140625,42.75117822265625L42.106341406249996,42.75117822265625L43.884841406250004,40.933378222656245C44.20054140625,40.58297822265625,44.19054140625,40.047678222656245,43.86184140625,39.709378222656255C43.53604140625,39.37567822265625,43.00254140625,39.36537822265625,42.664141406249996,39.68647822265625L42.66084140625,39.68647822265625ZM36.377141406250004,17.87554822265625C34.74924140625,17.89357822265625,33.443641406249995,19.22703822265625,33.46004140625,20.85498822265625C33.46004140625,22.498878222656252,34.76604140625,23.834378222656248,36.377141406250004,23.834378222656248C37.985041406250005,23.834378222656248,39.29094140625,22.498878222656252,39.29094140625,20.85498822265625C39.30734140625,19.22829822265625,38.003841406250004,17.895368222656252,36.377141406250004,17.87554822265625Z" fill="#B4EDFF" fill-opacity="1" style="mix-blend-mode:passthrough"/></g><g><path d="M43.90762421875,35.693078222656254C48.20292421875,35.693078222656254,51.68432421875,39.25007822265625,51.68432421875,43.63387822265625C51.68432421875,48.02097822265625,48.20292421875,51.57467822265625,43.90762421875,51.57467822265625C39.61242421875,51.57467822265625,36.13093421875,48.02097822265625,36.13093421875,43.63387822265625C36.13093421875,39.25007822265625,39.61242421875,35.693078222656254,43.90762421875,35.693078222656254ZM34.45089421875,12.34325302265625L44.40972421875,17.36366822265625C44.49212421875,17.40586822265625,44.55292421875,17.48094822265625,44.57702421875,17.57038822265625L49.361224218749996,35.771878222656255C47.77142421875,34.63207822265625,45.86382421875,34.020278222656245,43.90762421875,34.022878222656246C38.65752421875,34.022878222656246,34.43120421875,38.34107822265625,34.43120421875,43.637178222656246C34.42395421875,46.59457822265625,35.77366421875,49.39197822265625,38.09312421875,51.22687822265625C36.52198421875,51.35507822265625,35.08239421875,50.34577822265625,34.66746421875,48.82487822265625L27.63232421875,22.049388222656248L34.03089421875,12.45153622265625C34.12367421875,12.31486585265625,34.30359421875,12.26848012265625,34.45089421875,12.34325302265625ZM42.66072421875,39.68647822265625L39.60912421875,42.803678222656245C39.41732421875,42.99857822265625,39.32532421875,43.27067822265625,39.35972421875,43.541978222656255L39.37612421875,43.63387822265625C39.30592421875,43.931678222656245,39.39252421875,44.24467822265625,39.60582421875,44.46407822265625L42.66072421875,47.58127822265625C42.99912421875,47.90237822265625,43.53262421875,47.89207822265625,43.85842421875,47.55837822265625C44.18712421875,47.22007822265625,44.197124218750005,46.68477822265625,43.88142421875,46.33437822265625L42.10292421875,44.51657822265625L47.35962421875,44.51657822265625C47.67802421875,44.52677822265625,47.97602421875,44.36017822265625,48.13402421875,44.08337822265625C48.29462421875,43.80527822265625,48.29462421875,43.46247822265625,48.13402421875,43.18437822265625C47.97602421875,42.907578222656255,47.67802421875,42.74097822265625,47.35962421875,42.75117822265625L42.10622421875,42.75117822265625L43.88472421875,40.933378222656245C44.20042421875,40.58297822265625,44.190424218749996,40.047678222656245,43.86172421875,39.709378222656255C43.53592421875,39.37567822265625,43.00242421875,39.36537822265625,42.66402421875,39.68647822265625L42.66072421875,39.68647822265625ZM36.37703421875,17.87554822265625C34.74909421875,17.89357822265625,33.44354421875,19.22703822265625,33.459944218749996,20.85498822265625C33.459944218749996,22.498878222656252,34.76590421875,23.834378222656248,36.37703421875,23.834378222656248C37.98492421875,23.834378222656248,39.290824218750004,22.498878222656252,39.290824218750004,20.85498822265625C39.30722421875,19.22829822265625,38.00372421875,17.895368222656252,36.37703421875,17.87554822265625Z" fill="#13C6FE" fill-opacity="1" style="mix-blend-mode:passthrough"/></g><g filter="url(#master_svg2_202_50874)"><path d="M39.3524934375,20.849805185546874Q39.3524934375,20.998185185546873,39.3379534375,21.145865185546874Q39.3234134375,21.293535185546876,39.2944634375,21.439075185546876Q39.2655134375,21.584605185546874,39.2224334375,21.726605185546873Q39.1793634375,21.868605185546876,39.1225734375,22.005695185546877Q39.0657934375,22.142785185546874,38.9958434375,22.273655185546875Q38.9258934375,22.404515185546874,38.8434534375,22.527895185546875Q38.7610134375,22.651275185546876,38.6668734375,22.765985185546874Q38.5727434375,22.880685185546874,38.4678134375,22.985605185546873Q38.3628934375,23.090535185546877,38.2481834375,23.184675185546876Q38.1334834375,23.278805185546876,38.0101034375,23.361245185546874Q37.8867234375,23.443685185546876,37.7558534375,23.513635185546875Q37.6249934375,23.583585185546873,37.4879034375,23.640365185546877Q37.3508134375,23.697155185546876,37.2088134375,23.740225185546876Q37.0668134375,23.783305185546876,36.9212734375,23.812255185546874Q36.7757434375,23.841205185546876,36.6280734375,23.855745185546876Q36.4803934375,23.870295185546876,36.3320134375,23.870295185546876Q36.1836234375,23.870295185546876,36.0359534375,23.855745185546876Q35.8882834375,23.841205185546876,35.7427434375,23.812255185546874Q35.5972034375,23.783305185546876,35.4552134375,23.740225185546876Q35.313213437499996,23.697155185546876,35.1761234375,23.640365185546877Q35.0390234375,23.583585185546873,34.9081634375,23.513635185546875Q34.7772934375,23.443685185546876,34.6539134375,23.361245185546874Q34.5305434375,23.278805185546876,34.4158334375,23.184675185546876Q34.3011294375,23.090535185546877,34.1962034375,22.985605185546873Q34.0912784375,22.880685185546874,33.9971424375,22.765985185546874Q33.9030064375,22.651275185546876,33.8205674375,22.527895185546875Q33.7381274375,22.404515185546874,33.6681784375,22.273655185546875Q33.5982294375,22.142785185546874,33.5414444375,22.005695185546877Q33.4846594375,21.868605185546876,33.4415844375,21.726605185546873Q33.3985101375,21.584605185546874,33.3695612375,21.439075185546876Q33.3406123375,21.293535185546876,33.3260679375,21.145865185546874Q33.3115234375,20.998185185546873,33.3115234375,20.849805185546874Q33.3115234375,20.701415185546875,33.3260679375,20.553745185546873Q33.3406123375,20.406075185546875,33.3695612375,20.260535185546875Q33.3985101375,20.114995185546874,33.4415844375,19.973005185546874Q33.4846594375,19.831005185546875,33.5414444375,19.693915185546874Q33.5982294375,19.556825185546874,33.6681784375,19.425955185546876Q33.7381274375,19.295085185546874,33.8205674375,19.171705185546877Q33.9030064375,19.048335185546875,33.9971424375,18.933625185546873Q34.0912784375,18.818921185546873,34.1962034375,18.713995185546874Q34.3011294375,18.609070185546877,34.4158334375,18.514934185546874Q34.5305434375,18.420798185546875,34.6539134375,18.338359185546874Q34.7772934375,18.255920185546874,34.9081634375,18.185970185546875Q35.0390234375,18.116021185546874,35.1761234375,18.059236185546876Q35.313213437499996,18.002451185546875,35.4552134375,17.959376185546876Q35.5972034375,17.916301885546876,35.7427434375,17.887352985546876Q35.8882834375,17.858404085546876,36.0359534375,17.843859685546875Q36.1836234375,17.829315185546875,36.3320134375,17.829315185546875Q36.4803934375,17.829315185546875,36.6280734375,17.843859685546875Q36.7757434375,17.858404085546876,36.9212734375,17.887352985546876Q37.0668134375,17.916301885546876,37.2088134375,17.959376185546876Q37.3508134375,18.002451185546875,37.4879034375,18.059236185546876Q37.6249934375,18.116021185546874,37.7558534375,18.185970185546875Q37.8867234375,18.255920185546874,38.0101034375,18.338359185546874Q38.1334834375,18.420798185546875,38.2481834375,18.514934185546874Q38.3628934375,18.609070185546877,38.4678134375,18.713995185546874Q38.5727434375,18.818921185546873,38.6668734375,18.933625185546873Q38.7610134375,19.048335185546875,38.8434534375,19.171705185546877Q38.9258934375,19.295085185546874,38.9958434375,19.425955185546876Q39.0657934375,19.556825185546874,39.1225734375,19.693915185546874Q39.1793634375,19.831005185546875,39.2224334375,19.973005185546874Q39.2655134375,20.114995185546874,39.2944634375,20.260535185546875Q39.3234134375,20.406075185546875,39.3379534375,20.553745185546873Q39.3524934375,20.701415185546875,39.3524934375,20.849805185546874Z" fill="#FFFFFF" fill-opacity="1" style="mix-blend-mode:passthrough"/></g><g><path d="M42.66058078125,39.68643947265625L39.60896078125,42.80368947265625C39.41711338125,42.99858947265625,39.32520618125,43.27067947265625,39.35958070125,43.54198947265625L39.37598738125,43.63385947265625C39.30575478125,43.93164947265625,39.39236598125,44.24468947265625,39.60567878125,44.46402947265625L42.66058078125,47.58128947265625C42.99896078125,47.90231947265625,43.53244078125,47.89208947265625,43.85827078125,47.55830947265625C44.18696078125,47.22000947265625,44.19700078125,46.68477947265625,43.88124078125,46.33437947265625L42.10276078125,44.51652947265625L47.35943078125,44.51652947265625C47.677880781249996,44.526809472656254,47.97589078125,44.36011947265625,48.13382078125,44.083399472656254C48.29443078125,43.80521947265625,48.29443078125,43.46249947265625,48.13382078125,43.18431947265625C47.97589078125,42.90759947265625,47.677880781249996,42.74090947265625,47.35943078125,42.75118947265625L42.10604078125,42.75118947265625L43.88452078125,40.93333947265625C44.20029078125,40.58293947265625,44.19024078125,40.04770647265625,43.86154078125,39.70940447265625C43.53572078125,39.37563167265625,43.00225078125,39.36540127265625,42.66386078125,39.68643447265625L42.66058078125,39.68643947265625Z" fill="#FFFFFF" fill-opacity="1" style="mix-blend-mode:passthrough"/></g></g></g></svg>