<svg xmlns="http://www.w3.org/2000/svg" xmlns:xlink="http://www.w3.org/1999/xlink" fill="none" version="1.1" width="48" height="48" viewBox="0 0 48 48"><defs><clipPath id="master_svg0_132_40086"><rect x="5" y="5" width="38" height="38" rx="0"/></clipPath><filter id="master_svg1_132_40089" filterUnits="objectBoundingBox" color-interpolation-filters="sRGB" x="-1.1290419870990316" y="-0.7526944661161589" width="3.258083974198063" height="3.2580833983484765"><feFlood flood-opacity="0" result="BackgroundImageFix"/><feColorMatrix in="SourceAlpha" type="matrix" values="0 0 0 0 0 0 0 0 0 0 0 0 0 0 0 0 0 0 127 0"/><feOffset dy="2.1111111640930176" dx="0"/><feGaussianBlur stdDeviation="1.5833333730697632"/><feColorMatrix type="matrix" values="0 0 0 0 0.07572618871927261 0 0 0 0 0.5181325674057007 0 0 0 0 0.652777910232544 0 0 0 0.5 0"/><feBlend mode="normal" in2="BackgroundImageFix" result="effect1_dropShadow"/><feBlend mode="normal" in="SourceGraphic" in2="effect1_dropShadow" result="shape"/></filter></defs><g><g clip-path="url(#master_svg0_132_40086)"><g><path d="M34.1388828125,40.63979375L34.1388828125,28.35289375C34.0423828125,27.45119375,33.2630828125,26.74609375,32.305682812499995,26.70899375L15.3503928125,26.70899375C14.2890618125,26.70899375,13.4281245125,27.52909375,13.4281245125,28.53849375L13.4281245125,40.51369375C13.5394528125,41.33009375,14.2148428125,41.97579375,15.0646428125,42.09079375L32.628482812499996,42.09079375C33.3929828125,41.94239375,33.9903828125,41.36719375,34.1388828125,40.63979375ZM34.1388828125,11.21211375L13.3798828125,11.21211375L13.3798828125,9.15625375C13.3798828125,7.72011375,14.5414028125,6.55859375,15.9775428125,6.55859375L31.5411828125,6.55859375C32.9773828125,6.55859375,34.1388828125,7.72011375,34.1388828125,9.15625375L34.1388828125,11.21211375Z" fill="#B4EDFF" fill-opacity="1" style="mix-blend-mode:passthrough"/></g><g><path d="M38.70959375,12.71875L8.75859375,12.71875C7.60078175,12.893164,6.70273425,13.8543,6.62109375,15.0418L6.62109375,31.32165C6.71015635,32.49805,7.60078175,33.448049999999995,8.75117375,33.626149999999996L11.79043375,33.626149999999996L11.79043375,26.965049999999998L11.79043375,26.94645C11.79414375,25.89255,12.788673750000001,25.03905,14.016993750000001,25.03905L33.62189375,25.03905C34.73149375,25.07615,35.633193750000004,25.81465,35.744493750000004,26.75355L35.744493750000004,33.626149999999996L38.68359375,33.626149999999996C39.86739375,33.49255,40.80249375,32.54255,40.91019375,31.35135L40.91019375,14.87109C40.75059375,13.74297,39.84509375,12.856055,38.70959375,12.71875Z" fill="#13C6FE" fill-opacity="1" style="mix-blend-mode:passthrough"/></g><g transform="matrix(0,-1,1,0,-17.23974609375,55.98193359375)"><rect x="19.37109375" y="36.61083984375" width="3.587754964828491" height="8.7763671875" rx="1.7938774824142456" fill="#FAFBFF" fill-opacity="0.8999999761581421"/></g><g filter="url(#master_svg1_132_40089)"><path d="M36.9835034375,19.1943884375Q36.9835034375,19.3321784375,36.9699934375,19.4692984375Q36.9564834375,19.6064284375,36.9296034375,19.7415684375Q36.9027234375,19.8767084375,36.8627234375,20.0085584375Q36.8227334375,20.1404184375,36.7700034375,20.2677084375Q36.7172734375,20.3950084375,36.6523234375,20.5165284375Q36.5873634375,20.6380484375,36.5108134375,20.7526184375Q36.4342634375,20.8671784375,36.3468534375,20.9736984375Q36.259443437499996,21.080208437499998,36.1620134375,21.1776384375Q36.0645834375,21.2750684375,35.9580634375,21.362478437500002Q35.8515534375,21.4498884375,35.7369934375,21.5264384375Q35.622423437500004,21.6029884375,35.5009034375,21.6679484375Q35.379383437499996,21.7328984375,35.2520834375,21.7856284375Q35.1247834375,21.8383584375,34.9929334375,21.8783584375Q34.8610834375,21.9183484375,34.725933437500004,21.9452284375Q34.5907934375,21.9721184375,34.4536734375,21.9856184375Q34.3165534375,21.999128437499998,34.1787634375,21.999128437499998Q34.0409734375,21.999128437499998,33.9038534375,21.9856184375Q33.7667234375,21.9721184375,33.6315834375,21.9452284375Q33.4964434375,21.9183484375,33.3645934375,21.8783584375Q33.2327334375,21.8383584375,33.1054334375,21.7856284375Q32.9781334375,21.7328984375,32.8566134375,21.6679484375Q32.7351034375,21.6029884375,32.6205334375,21.5264384375Q32.5059634375,21.4498884375,32.3994534375,21.362478437500002Q32.2929424375,21.2750684375,32.1955124375,21.1776384375Q32.0980814375,21.080208437499998,32.0106694375,20.9736984375Q31.9232574375,20.8671784375,31.8467064375,20.7526184375Q31.7701564375,20.6380484375,31.7052034375,20.5165284375Q31.6402504375,20.3950084375,31.5875214375,20.2677184375Q31.5347924375,20.1404184375,31.4947944375,20.0085584375Q31.4547967375,19.8767084375,31.4279156375,19.7415684375Q31.4010346375,19.6064284375,31.3875290375,19.4692984375Q31.3740234375,19.3321784375,31.3740234375,19.1943884375Q31.3740234375,19.0565984375,31.3875290375,18.9194784375Q31.4010346375,18.7823484375,31.4279156375,18.647208437499998Q31.4547967375,18.512068437499998,31.4947944375,18.380218437499998Q31.5347924375,18.2483584375,31.5875214375,18.1210584375Q31.6402504375,17.9937584375,31.7052034375,17.872238437500002Q31.7701564375,17.7507284375,31.8467064375,17.6361584375Q31.9232574375,17.5215884375,32.0106694375,17.4150784375Q32.0980814375,17.3085684375,32.1955124375,17.2111374375Q32.2929424375,17.1137064375,32.3994534375,17.0262944375Q32.5059634375,16.9388834375,32.6205334375,16.8623324375Q32.7351034375,16.7857814375,32.8566134375,16.7208284375Q32.9781334375,16.6558754375,33.1054334375,16.6031464375Q33.2327334375,16.5504174375,33.3645934375,16.5104194375Q33.4964434375,16.470421837499998,33.6315834375,16.4435407375Q33.7667234375,16.4166596375,33.9038534375,16.4031540375Q34.0409734375,16.3896484375,34.1787634375,16.3896484375Q34.3165534375,16.3896484375,34.4536734375,16.4031540375Q34.5907934375,16.4166596375,34.725933437500004,16.4435407375Q34.8610834375,16.470421837499998,34.9929334375,16.5104194375Q35.1247834375,16.5504174375,35.2520834375,16.6031464375Q35.379383437499996,16.6558754375,35.5009034375,16.7208284375Q35.622423437500004,16.7857814375,35.7369934375,16.8623324375Q35.8515534375,16.9388834375,35.9580634375,17.0262944375Q36.0645834375,17.1137064375,36.1620134375,17.2111374375Q36.259443437499996,17.3085684375,36.3468534375,17.4150784375Q36.4342634375,17.5215884375,36.5108134375,17.6361584375Q36.5873634375,17.7507284375,36.6523234375,17.872238437500002Q36.7172734375,17.9937584375,36.7700034375,18.1210584375Q36.8227334375,18.2483584375,36.8627234375,18.380218437499998Q36.9027234375,18.512068437499998,36.9296034375,18.647208437499998Q36.9564834375,18.7823484375,36.9699934375,18.9194784375Q36.9835034375,19.0565984375,36.9835034375,19.1943884375Z" fill="#FFFFFF" fill-opacity="1" style="mix-blend-mode:passthrough"/></g></g></g></svg>