<svg xmlns="http://www.w3.org/2000/svg" xmlns:xlink="http://www.w3.org/1999/xlink" fill="none" version="1.1" width="20" height="20" viewBox="0 0 20 20"><defs><clipPath id="master_svg0_163_36455"><rect x="0" y="0" width="20" height="20" rx="0"/></clipPath></defs><g clip-path="url(#master_svg0_163_36455)"><g><path d="M13.33333,0.83349609375L5.833333,0.83349609375C5.333333,0.83349609375,5,1.16682909375,5,1.66682909375L5,5.83349609375L13.33333,10.00016609375L16.6667,11.25019609375L20,10.00016609375L20,5.83349609375L13.33333,0.83349609375Z" fill="#21A366" fill-opacity="1" style="mix-blend-mode:passthrough"/></g><g><path d="M5,5.83349609375L13.33333,5.83349609375L13.33333,10.00016609375L5,10.00016609375L5,5.83349609375Z" fill="#107C41" fill-opacity="1" style="mix-blend-mode:passthrough"/></g><g><path d="M20.00016609375,1.66682909375L20.00016609375,5.83349609375L13.33349609375,5.83349609375L13.33349609375,0.83349609375L19.16682609375,0.83349609375C19.58349609375,0.83349609375,20.00016609375,1.25016309375,20.00016609375,1.66682909375Z" fill="#33C481" fill-opacity="1" style="mix-blend-mode:passthrough"/></g><g><path d="M13.33333,10L5,10L5,18.33333C5,18.83333,5.333334,19.16667,5.833333,19.16667L19.1667,19.16667C19.6667,19.16667,20,18.83333,20,18.33333L20,14.16667L13.33333,10Z" fill="#185C37" fill-opacity="1" style="mix-blend-mode:passthrough"/></g><g style="opacity:0.5;"><path d="M11.5,5L5,5L5,16.6667L11.33333,16.6667C11.91667,16.6667,12.5,16.0833,12.5,15.5L12.5,6C12.5,5.416667,12.08333,5,11.5,5Z" fill="#3D3D3D" fill-opacity="1" style="mix-blend-mode:passthrough"/></g><g><path d="M10.6667,15.83320390625L1,15.83320390625C0.416667,15.83320390625,0,15.41650390625,0,14.83320390625L0,5.16650390625C0,4.58317090625,0.416667,4.16650390625,1,4.16650390625L10.75,4.16650390625C11.25,4.16650390625,11.6667,4.58317090625,11.6667,5.16650390625L11.6667,14.91650390625C11.6667,15.41650390625,11.25,15.83320390625,10.6667,15.83320390625Z" fill="#107C41" fill-opacity="1" style="mix-blend-mode:passthrough"/></g><g><path d="M2.833251953125,13.33317390625L4.999921953125,9.99983390625L2.999918953125,6.66650390625L4.583251953125,6.66650390625L5.666581953125,8.74983390625C5.833251953125,8.99983390625,5.833251953125,9.16650390625,5.916581953125,9.24983390625L6.166581953125,8.74983390625L7.333251953125,6.66650390625L8.833251953125,6.66650390625L6.833251953125,9.99983390625L8.916581953125,13.33317390625L7.249921953125,13.33317390625L5.999921953125,10.99983390625C5.999921953125,10.91650390625,5.916581953125,10.83317390625,5.833251953125,10.66650390625C5.833251953125,10.74983390625,5.749921953125,10.83317390625,5.666581953125,10.99983390625L4.416581953125,13.33317390625L2.833251953125,13.33317390625Z" fill="#FFFFFF" fill-opacity="1" style="mix-blend-mode:passthrough"/></g><g><path d="M13.33349728584,10L20.00016609375,10L20.00016609375,14.16667L13.33349609375,14.16667L13.33349728584,10Z" fill="#107C41" fill-opacity="1" style="mix-blend-mode:passthrough"/></g></g></svg>