<svg xmlns="http://www.w3.org/2000/svg" xmlns:xlink="http://www.w3.org/1999/xlink" fill="none" version="1.1" width="48" height="48" viewBox="0 0 48 48"><defs><filter id="master_svg0_132_40043" filterUnits="objectBoundingBox" color-interpolation-filters="sRGB" x="-0.1336798068362443" y="-0.11613187755497395" width="1.2673596136724885" height="1.232263755109948"><feFlood flood-opacity="0" result="BackgroundImageFix"/><feBlend mode="normal" in="SourceGraphic" in2="BackgroundImageFix" result="shape"/><feGaussianBlur stdDeviation="1.025631308555603" result="effect1_foregroundBlur"/></filter></defs><g><g><g><path d="M19.5621,16.39495C19.505499999999998,19.7646,21.2426,22.907899999999998,24.129,24.6493C26.9414,26.3297,30.4503,26.3297,33.262699999999995,24.6493C36.1099,22.933999999999997,37.8426,19.8473,37.8296,16.525550000000003C37.8992,14.03968,36.9676,11.63217,35.2436,9.84286C33.5196,8.053560000000001,31.1513,7.0261215,28.6654,7C23.563,7.0827174,19.4881,11.28824,19.5621,16.39495ZM19.3009,26.0729L19.3009,19.4555C19.2312,18.7197,18.5826,18.1755,17.8468,18.2365L5.4543099999999995,18.2364C4.675029,18.288600000000002,4.0522428,18.907,4,19.6907L4,41.6456L11.51241,41.6455C9.80147,34.4056,13.77626,29.5252,19.3009,26.0729ZM8.387979999999999,22.0504L15.2521,22.0502C15.7092,22.0502,16.0836,22.420299999999997,16.0836,22.881700000000002C16.0836,23.3389,15.7136,23.7133,15.2521,23.7133L8.387979999999999,23.7131C7.93086,23.7131,7.55666,23.3432,7.55666,22.8818C7.55666,22.424599999999998,7.93086,22.0504,8.387979999999999,22.0504ZM7.55666,25.7118C7.55666,25.4897,7.6443200000000004,25.2806,7.80105,25.1238C7.95777,24.9671,8.165949999999999,24.8799,8.387979999999999,24.8799L15.2521,24.88C15.7092,24.88,16.0836,25.2501,16.0836,25.7115C16.0836,26.1687,15.7136,26.5431,15.2521,26.5431L8.387979999999999,26.5431C8.165949999999999,26.5431,7.95777,26.4559,7.80105,26.2992C7.6443200000000004,26.1425,7.55666,25.9294,7.55666,25.7118ZM34.455600000000004,27.5531L31.0555,34.8453L29.8365,31.6802C29.9453,31.062,30.1935,30.4743,30.5635,29.9693C31.0555,28.7503,31.2906,28.2584,30.0716,27.5313C29.5274,27.2309,28.8831,27.1613,28.2866,27.3441C27.6902,27.527,27.1939,27.9405,26.9065,28.4935C26.4146,29.7124,27.6336,30.2044,27.6336,30.9314C27.4594,32.2419,27.2157,33.5392,26.9065,34.823499999999996C26.5974,36.1078,26.9065,35.7856,25.6876,33.3694C24.7646,31.3755,23.9592,29.3293,23.2757,27.244C16.7105,29.5035,13.31043,33.8614,13.31043,40.2219C13.31043,42.6599,43.2323,43.8789,43.9594,38.7678C44.6821,33.6524,35.443799999999996,25.1412,34.455600000000004,27.5792L34.455600000000004,27.5531Z" fill="#8FB8FF" fill-opacity="1" style="mix-blend-mode:passthrough"/></g><g filter="url(#master_svg0_132_40043)"><path d="M19.56249913543701,16.39495C19.505899135437012,19.7646,21.24296913543701,22.907899999999998,24.12940913543701,24.6493C26.941709135437012,26.3297,30.450709135437013,26.3297,33.26310913543701,24.6493C36.11030913543701,22.933999999999997,37.843009135437015,19.8473,37.83000913543701,16.525550000000003C37.89960913543701,14.03968,36.968009135437015,11.63217,35.24400913543701,9.84286C33.52000913543701,8.053560000000001,31.151609135437013,7.0261215,28.665809135437012,7C23.563409135437013,7.0827174,19.48848913543701,11.28824,19.56249913543701,16.39495ZM34.456009135437014,27.5531L31.055809135437013,34.8453L29.83690913543701,31.6802C29.94570913543701,31.062,30.19380913543701,30.4743,30.56390913543701,29.9693C31.055809135437013,28.7503,31.290909135437012,28.2584,30.07190913543701,27.5313C29.52780913543701,27.2309,28.883409135437013,27.1613,28.28700913543701,27.3441C27.69060913543701,27.527,27.19430913543701,27.9405,26.90690913543701,28.4935C26.41500913543701,29.7124,27.63400913543701,30.2044,27.63400913543701,30.9314C27.459809135437013,32.2419,27.216009135437012,33.5392,26.90690913543701,34.823499999999996C26.59780913543701,36.1078,26.90690913543701,35.7856,25.68790913543701,33.3694C24.765009135437012,31.3755,23.959609135437013,29.3293,23.276069135437012,27.244C16.710929135437013,29.5035,13.310809135437012,33.8614,13.310809135437012,40.2219C13.310809135437012,42.6599,43.23270913543701,43.8789,43.95980913543701,38.7678C44.68240913543701,33.6524,35.44420913543701,25.1412,34.456009135437014,27.5792L34.456009135437014,27.5531Z" fill="#3D72FB" fill-opacity="1" style="mix-blend-mode:passthrough"/></g><g><path d="M19.56249913543701,16.39495C19.505899135437012,19.7646,21.24296913543701,22.907899999999998,24.12940913543701,24.6493C26.941709135437012,26.3297,30.450709135437013,26.3297,33.26310913543701,24.6493C36.11030913543701,22.933999999999997,37.843009135437015,19.8473,37.83000913543701,16.525550000000003C37.89960913543701,14.03968,36.968009135437015,11.63217,35.24400913543701,9.84286C33.52000913543701,8.053560000000001,31.151609135437013,7.0261215,28.665809135437012,7C23.563409135437013,7.0827174,19.48848913543701,11.28824,19.56249913543701,16.39495ZM34.456009135437014,27.5531L31.055809135437013,34.8453L29.83690913543701,31.6802C29.94570913543701,31.062,30.19380913543701,30.4743,30.56390913543701,29.9693C31.055809135437013,28.7503,31.290909135437012,28.2584,30.07190913543701,27.5313C29.52780913543701,27.2309,28.883409135437013,27.1613,28.28700913543701,27.3441C27.69060913543701,27.527,27.19430913543701,27.9405,26.90690913543701,28.4935C26.41500913543701,29.7124,27.63400913543701,30.2044,27.63400913543701,30.9314C27.459809135437013,32.2419,27.216009135437012,33.5392,26.90690913543701,34.823499999999996C26.59780913543701,36.1078,26.90690913543701,35.7856,25.68790913543701,33.3694C24.765009135437012,31.3755,23.959609135437013,29.3293,23.276069135437012,27.244C16.710929135437013,29.5035,13.310809135437012,33.8614,13.310809135437012,40.2219C13.310809135437012,42.6599,43.23270913543701,43.8789,43.95980913543701,38.7678C44.68240913543701,33.6524,35.44420913543701,25.1412,34.456009135437014,27.5792L34.456009135437014,27.5531Z" fill="#3D72FB" fill-opacity="1" style="mix-blend-mode:passthrough"/></g></g></g></svg>