<svg xmlns="http://www.w3.org/2000/svg" xmlns:xlink="http://www.w3.org/1999/xlink" fill="none" version="1.1" width="20" height="20" viewBox="0 0 20 20"><defs><clipPath id="master_svg0_93_05722"><rect x="0" y="0" width="20" height="20" rx="0"/></clipPath></defs><g clip-path="url(#master_svg0_93_05722)"><g><rect x="0" y="14.5" width="20" height="5.5" rx="0" fill="#00E5E5" fill-opacity="1"/></g><g><path d="M3,17.5L17,17.5L17,9.5L17,6.75L12.5,2L10,2L3,2L3,17.5Z" fill="#1A64FA" fill-opacity="1"/></g><g><path d="M6,7L10.5,7Q10.59849,7,10.69509,7.019215Q10.79169,7.03843,10.88268,7.076121Q10.97368,7.113812,11.05557,7.16853Q11.13746,7.223249,11.20711,7.292893Q11.27675,7.362537,11.33147,7.44443Q11.38619,7.526322,11.42388,7.617317Q11.46157,7.708311,11.48078,7.80491Q11.5,7.9015086,11.5,8Q11.5,8.0984914,11.48078,8.19509Q11.46157,8.291689,11.42388,8.382683Q11.38619,8.473678,11.33147,8.55557Q11.27675,8.637463,11.20711,8.707107Q11.13746,8.776751,11.05557,8.83147Q10.97368,8.886188,10.88268,8.923879Q10.79169,8.96157,10.69509,8.980785000000001Q10.59849,9,10.5,9L6,9Q5.9015086,9,5.80491,8.980785000000001Q5.708311,8.96157,5.617317,8.923879Q5.526322,8.886188,5.44443,8.83147Q5.362537,8.776751,5.292893,8.707107Q5.223249,8.637463,5.16853,8.55557Q5.113812,8.473678,5.076121,8.382683Q5.03843,8.291689,5.019215,8.19509Q5,8.0984914,5,8Q5,7.9015086,5.019215,7.80491Q5.03843,7.708311,5.076121,7.617317Q5.113812,7.526322,5.16853,7.44443Q5.223249,7.362537,5.292893,7.292893Q5.362537,7.223249,5.44443,7.16853Q5.526322,7.113812,5.617317,7.076121Q5.708311,7.03843,5.80491,7.019215Q5.9015086,7,6,7Z" fill-rule="evenodd" fill="#FFFFFF" fill-opacity="1"/></g></g></svg>