<svg xmlns="http://www.w3.org/2000/svg" xmlns:xlink="http://www.w3.org/1999/xlink" fill="none" version="1.1" width="56.02392578125" height="49.2001953125" viewBox="0 0 56.02392578125 49.2001953125"><defs><linearGradient x1="0.1055908203125" y1="0.2517225444316864" x2="0.3320000779214574" y2="0.5152547726193162" id="master_svg0_87_6703"><stop offset="0%" stop-color="#F7BB12" stop-opacity="1"/><stop offset="100%" stop-color="#F7BB12" stop-opacity="0"/></linearGradient><filter id="master_svg1_132_40124" filterUnits="objectBoundingBox" color-interpolation-filters="sRGB" x="-0.34384257075697267" y="-0.23755059477927237" width="1.6876851415139453" height="1.712651784337817"><feFlood flood-opacity="0" result="BackgroundImageFix"/><feColorMatrix in="SourceAlpha" type="matrix" values="0 0 0 0 0 0 0 0 0 0 0 0 0 0 0 0 0 0 127 0"/><feOffset dy="2" dx="0"/><feGaussianBlur stdDeviation="1.5"/><feColorMatrix type="matrix" values="0 0 0 0 0.6392157077789307 0 0 0 0 0.46797385811805725 0 0 0 0 0.125490203499794 0 0 0 0.5 0"/><feBlend mode="normal" in2="BackgroundImageFix" result="effect1_dropShadow"/><feBlend mode="normal" in="SourceGraphic" in2="effect1_dropShadow" result="shape"/></filter><filter id="master_svg2_163_11335" filterUnits="objectBoundingBox" color-interpolation-filters="sRGB" x="-0.1817177625986616" y="-0.37369606606673267" width="1.3634355251973231" height="1.8541624367239604"><feFlood flood-opacity="0" result="BackgroundImageFix"/><feColorMatrix in="SourceAlpha" type="matrix" values="0 0 0 0 0 0 0 0 0 0 0 0 0 0 0 0 0 0 127 0"/><feOffset dy="1" dx="0"/><feGaussianBlur stdDeviation="2"/><feColorMatrix type="matrix" values="0 0 0 0 0.8432540893554688 0 0 0 0 0.5797637104988098 0 0 0 0 0.0421009436249733 0 0 0 1 0"/><feBlend mode="normal" in2="BackgroundImageFix" result="effect1_dropShadow"/><feBlend mode="normal" in="SourceGraphic" in2="effect1_dropShadow" result="shape"/></filter></defs><g><g><g><g><path d="M8.985225625,20.283026800918577C8.112009625,20.73622680091858,7.762172625,21.79212680091858,8.195513625,22.66662680091858C8.628855625,23.54112680091858,9.688365625,23.91732680091858,10.587225625,23.515926800918578L11.515945625,22.939926800918577L11.515945625,43.52852680091858C11.515945625,44.53112680091858,12.344315625,45.34472680091858,13.324125625,45.34472680091858L42.534165625,45.34472680091858C43.541265625,45.34472680091858,44.249265625,44.53832680091858,44.249265625,43.54472680091858L44.249265625,39.94642680091858L44.358765625,32.76622680091858L44.411665625,22.96332680091858L45.064865625,23.366526800918578C45.937365625,24.03552680091858,47.207765625,23.791826800918578,47.762565625,22.84892680091858C48.317365625,21.906126800918578,47.901965625,20.69702680091858,46.880365625,20.28122680091858L28.771165625,9.60353880091858C28.212565625,9.258456400918579,27.503365625,9.258456400918579,26.944765625,9.60353880091858L8.985225625,20.283026800918577Z" fill="#F4AA13" fill-opacity="1"/><path d="M8.985225625,20.283026800918577C8.112009625,20.73622680091858,7.762172625,21.79212680091858,8.195513625,22.66662680091858C8.628855625,23.54112680091858,9.688365625,23.91732680091858,10.587225625,23.515926800918578L11.515945625,22.939926800918577L11.515945625,43.52852680091858C11.515945625,44.53112680091858,12.344315625,45.34472680091858,13.324125625,45.34472680091858L42.534165625,45.34472680091858C43.541265625,45.34472680091858,44.249265625,44.53832680091858,44.249265625,43.54472680091858L44.249265625,39.94642680091858L44.358765625,32.76622680091858L44.411665625,22.96332680091858L45.064865625,23.366526800918578C45.937365625,24.03552680091858,47.207765625,23.791826800918578,47.762565625,22.84892680091858C48.317365625,21.906126800918578,47.901965625,20.69702680091858,46.880365625,20.28122680091858L28.771165625,9.60353880091858C28.212565625,9.258456400918579,27.503365625,9.258456400918579,26.944765625,9.60353880091858L8.985225625,20.283026800918577Z" fill="url(#master_svg0_87_6703)" fill-opacity="1"/></g><g filter="url(#master_svg1_132_40124)"><path d="M28.017016101837157,21.723632097244263C32.076916101837156,21.723632097244263,35.368016101837156,25.014712097244264,35.368016101837156,29.074632097244262C35.368016101837156,30.81941209724426,34.76001610183716,32.422332097244265,33.744716101837156,33.68283209724426C33.82851610183716,33.69893209724427,33.90551610183716,33.739932097244264,33.96571610183716,33.80043209724426L37.98921610183716,37.21243209724426C38.15801610183716,37.381232097244265,38.15801610183716,37.65483209724427,37.98921610183716,37.82373209724426L37.37791610183716,38.43553209724426C37.209116101837154,38.60433209724427,36.93541610183716,38.60433209724427,36.76661610183716,38.43553209724426L32.74281610183716,35.023332097244264C32.68231610183716,34.963032097244266,32.64101610183716,34.886132097244264,32.62431610183716,34.80233209724426C31.31991610183716,35.855332097244265,29.69340610183716,36.428332097244265,28.017016101837157,36.42563209724426C23.95709610183716,36.42563209724426,20.666016101837158,33.13453209724426,20.666016101837158,29.074632097244262C20.666016101837158,25.014712097244264,23.95709610183716,21.723632097244263,28.017016101837157,21.723632097244263ZM28.017016101837157,23.453282097244262C24.912296101837157,23.453282097244262,22.395666101837158,25.96991209724426,22.395666101837158,29.074632097244262C22.395666101837158,32.17933209724426,24.912296101837157,34.69593209724427,28.017016101837157,34.69593209724427C31.12171610183716,34.69593209724427,33.63831610183716,32.17933209724426,33.63831610183716,29.074632097244262C33.63831610183716,25.96991209724426,31.12171610183716,23.453282097244262,28.017016101837157,23.453282097244262Z" fill="#FAFBFF" fill-opacity="1"/><path d="M22.465496101837157,23.52311209724426Q20.166016101837158,25.82259209724426,20.166016101837158,29.074632097244262Q20.166015101837157,32.326632097244264,22.465496101837157,34.626132097244266Q24.76496610183716,36.92563209724426,28.01619610183716,36.92563209724426Q30.52665610183716,36.92973209724426,32.53201610183716,35.500032097244265L36.42881610183716,38.80473209724426Q37.08011610183716,39.44023209724426,37.73161610183716,38.78893209724426L38.34291610183716,38.177232097244264Q39.00181610183716,37.51803209724426,38.34281610183716,36.858932097244264L38.32831610183716,36.84433209724426L34.46031610183716,33.56433209724426Q35.868016101837156,31.569822097244263,35.868016101837156,29.074632097244262Q35.868016101837156,25.822582097244265,33.56851610183716,23.52311209724426Q31.26901610183716,21.223632097244263,28.017016101837157,21.223632097244263Q24.764976101837156,21.223632097244263,22.465496101837157,23.52311209724426ZM33.10951610183716,34.678732097244264L37.06951610183716,38.03683209724426L37.58271610183716,37.52323209724426L33.627816101837155,34.169532097244264L32.98351610183716,34.045632097244265L33.10951610183716,34.678732097244264ZM32.89351610183716,33.94253209724426L33.35531610183716,33.369232097244264Q34.868016101837156,31.491252097244264,34.868016101837156,29.074632097244262Q34.868016101837156,26.23680209724426,32.86141610183716,24.230212097244262Q30.85481610183716,22.223632097244263,28.017016101837157,22.223632097244263Q25.179186101837157,22.22363109724426,23.172596101837158,24.230212097244262Q21.166016101837158,26.23680209724426,21.166015101837157,29.074632097244262Q21.166016101837158,31.912432097244263,23.172596101837158,33.91903209724426Q25.179186101837157,35.92563209724426,28.01782610183716,35.92563209724426Q30.43185610183716,35.92953209724426,32.31031610183716,34.413332097244265L32.89351610183716,33.94253209724426ZM32.34551610183716,33.40313209724427Q34.13831610183716,31.610272097244263,34.13831610183716,29.074632097244262Q34.13831610183716,26.53898209724426,32.34551610183716,24.746132097244264Q30.552656101837158,22.953282097244262,28.017016101837157,22.953282097244262Q25.481366101837157,22.953282097244262,23.68851610183716,24.746132097244264Q21.895656101837158,26.53898209724426,21.895666101837158,29.074632097244262Q21.895666101837158,31.610272097244263,23.68851610183716,33.40313209724427Q25.481366101837157,35.19593209724427,28.017016101837157,35.19593209724427Q30.552656101837158,35.19593209724427,32.34551610183716,33.40313209724427ZM31.63841610183716,25.453242097244264Q33.13831610183716,26.95320209724426,33.13831610183716,29.074632097244262Q33.13831610183716,31.196062097244262,31.63841610183716,32.69603209724426Q30.138436101837158,34.19593209724427,28.017016101837157,34.19593209724427Q25.895576101837158,34.19593209724427,24.39562610183716,32.69603209724426Q22.895666101837158,31.196052097244262,22.895666101837158,29.074632097244262Q22.895656101837158,26.95320209724426,24.39562610183716,25.453242097244264Q25.895586101837157,23.953282097244262,28.017016101837157,23.953282097244262Q30.138436101837158,23.953282097244262,31.63841610183716,25.453242097244264Z" fill-rule="evenodd" fill="#FAFBFF" fill-opacity="1"/></g><g filter="url(#master_svg2_163_11335)"><path d="M16.166717371368406,20.341041246414186L12.740447371368408,22.495141246414185L11.539777371368409,23.253641246414183L11.415347371368409,23.310241246414183Q9.999327371368409,23.954341246414184,8.536607371368408,23.425341246414185Q7.0771373713684085,22.897541246414185,6.397075371368408,21.499741246414185Q5.718872371368408,20.105841246414187,6.198504371368408,18.631341246414184Q6.668702371368408,17.185841246414185,7.991547371368409,16.460641246414184L25.908617371368408,5.609054246414185Q27.85791737136841,4.382123246414185,29.83631737136841,5.626994246414185L47.80141737136841,16.415441246414183Q49.278617371368405,17.094041246414186,49.807717371368405,18.662241246414183Q50.36281737136841,20.307741246414185,49.49431737136841,21.810941246414185Q48.623017371368405,23.319141246414183,46.91641737136841,23.652541246414184Q45.264717371368405,23.975241246414186,43.926517371368405,22.984341246414186L42.95401737136841,22.372941246414186L39.560117371368406,20.249441246414186L27.99351737136841,13.388161246414185L16.166717371368406,20.341041246414186Z" fill-rule="evenodd" fill="#FBDB7F" fill-opacity="1"/></g></g></g></g></svg>