<svg xmlns="http://www.w3.org/2000/svg" xmlns:xlink="http://www.w3.org/1999/xlink" fill="none" version="1.1" width="20" height="20" viewBox="0 0 20 20"><defs><clipPath id="master_svg0_93_05652"><rect x="0" y="0" width="20" height="20" rx="0"/></clipPath><linearGradient x1="0.5" y1="0" x2="0.5" y2="1" id="master_svg1_82_36365"><stop offset="0%" stop-color="#F79035" stop-opacity="1"/><stop offset="100%" stop-color="#F79035" stop-opacity="0"/></linearGradient><linearGradient x1="0.5" y1="1" x2="0.5" y2="0" id="master_svg2_82_36395"><stop offset="0%" stop-color="#F98E36" stop-opacity="1"/><stop offset="100%" stop-color="#F98E36" stop-opacity="0"/></linearGradient></defs><g clip-path="url(#master_svg0_93_05652)"><g><path d="M2.5 7.5C2.5000000000000004 3.357864376269049 5.85786437626905 0 10 0L10 0C14.142135623730951 0 17.5 3.35786437626905 17.5 7.5L17.5 16C17.5 16 17.5 16 17.5 16L2.5 16C2.5 16 2.5 16 2.5 16Z" fill="#F24A1A" fill-opacity="1"/><path d="M2.5 7.5C2.5000000000000004 3.357864376269049 5.85786437626905 0 10 0L10 0C14.142135623730951 0 17.5 3.35786437626905 17.5 7.5L17.5 16C17.5 16 17.5 16 17.5 16L2.5 16C2.5 16 2.5 16 2.5 16Z" fill="url(#master_svg1_82_36365)" fill-opacity="1"/></g><g><path d="M14.72799,8.685585L14.7282,8.685365000000001Q14.85914,8.546241,14.92957,8.368646Q15,8.191051,15,8Q15,7.9015086,14.98078,7.80491Q14.96157,7.708311,14.92388,7.617317Q14.88619,7.526322,14.83147,7.44443Q14.77675,7.362537,14.70711,7.292893Q14.63746,7.223249,14.55557,7.16853Q14.47368,7.113812,14.38268,7.076121Q14.29169,7.03843,14.19509,7.019215Q14.09849,7,14,7Q13.793199999999999,7,13.60337,7.0820229999999995Q13.41353,7.164045,13.271799999999999,7.314635L13.27119,7.315281L11.24548,9.467600000000001L9.61038,7.38286Q9.48763,7.226345,9.31432,7.128721Q9.14101,7.031097,8.943529999999999,7.007227Q8.74606,6.98336,8.55448,7.036873Q8.3629,7.09039,8.206389999999999,7.213147Q8.14703,7.259702,8.09533,7.314635L5.27187,10.31456L5.2718,10.31464Q5.14086,10.453759999999999,5.07043,10.63135Q5,10.80895,5,11Q5,11.09849,5.019215,11.19509Q5.03843,11.29169,5.076121,11.38268Q5.113812,11.47368,5.16853,11.55557Q5.223249,11.63746,5.292893,11.70711Q5.362537,11.77675,5.44443,11.83147Q5.526322,11.88619,5.617317,11.92388Q5.708311,11.96157,5.80491,11.98078Q5.9015086,12,6,12Q6.206797,12,6.396633,11.91798Q6.586468,11.83595,6.7282,11.68536L6.72827,11.68529L8.75452,9.532399999999999L10.38962,11.61714Q10.43617,11.6765,10.491109999999999,11.728200000000001Q10.635950000000001,11.86453,10.821950000000001,11.93505Q11.00794,12.005569999999999,11.20676,11.99954Q11.40558,11.99352,11.586960000000001,11.91186Q11.76834,11.830210000000001,11.90467,11.68536L14.72799,8.685585Z" fill-rule="evenodd" fill="#FFFFFF" fill-opacity="1"/></g><g><rect x="0" y="16" width="20" height="4" rx="0" fill="#FB9138" fill-opacity="1"/><rect x="0" y="16" width="20" height="4" rx="0" fill="url(#master_svg2_82_36395)" fill-opacity="1"/></g></g></svg>