<svg xmlns="http://www.w3.org/2000/svg" xmlns:xlink="http://www.w3.org/1999/xlink" fill="none" version="1.1" width="48" height="48" viewBox="0 0 48 48"><defs><clipPath id="master_svg0_132_40072"><rect x="0.57421875" y="6.1650390625" width="46.8515625" height="35.66988754272461" rx="0"/></clipPath><radialGradient cx="0" cy="0" r="1" gradientUnits="userSpaceOnUse" id="master_svg1_87_8304" gradientTransform="translate(29.167969060476025 10.807129091124807) rotate(99.01253162858994) scale(24.674254795949164 26.927234540449238)"><stop offset="0%" stop-color="#41E28E" stop-opacity="1"/><stop offset="100%" stop-color="#41E28E" stop-opacity="0"/></radialGradient><filter id="master_svg2_132_40074" filterUnits="objectBoundingBox" color-interpolation-filters="sRGB" x="-1.740016992353441" y="-0.4299318729351261" width="4.480033984706882" height="2.2897956188053783"><feFlood flood-opacity="0" result="BackgroundImageFix"/><feColorMatrix in="SourceAlpha" type="matrix" values="0 0 0 0 0 0 0 0 0 0 0 0 0 0 0 0 0 0 127 0"/><feOffset dy="2" dx="0"/><feGaussianBlur stdDeviation="1.5"/><feColorMatrix type="matrix" values="0 0 0 0 0.04899725690484047 0 0 0 0 0.49801599979400635 0 0 0 0 0.22112110257148743 0 0 0 0.5 0"/><feBlend mode="normal" in2="BackgroundImageFix" result="effect1_dropShadow"/><feBlend mode="normal" in="SourceGraphic" in2="effect1_dropShadow" result="shape"/></filter></defs><g><g clip-path="url(#master_svg0_132_40072)"><g><path d="M38.363164062500005,31.7109390625C37.402564062500005,30.2903390625,36.1788640625,29.0666390625,34.7581640625,28.1060390625C33.2576640625,27.0666390625,31.6134640625,26.2517390625,29.8777640625,25.6869390625L27.6654640625,24.8698390625L29.5189640625,23.3501390625C32.771264062499995,21.0389390625,34.2255640625,16.9368390625,33.1551640625,13.0932590625C32.084664062499996,9.2496690625,28.7193640625,6.4897580625,24.7406640625,6.1924531625Q24.3719640625,6.16504873831,23.9932640625,6.16504873831C21.608464062499998,6.1616254025,19.3118640625,7.0667070625,17.570634062499998,8.696219062499999C13.1649740625,12.775559062500001,13.6209340625,19.8730390625,18.512364062499998,23.3551390625L20.373364062500002,24.8748390625L18.158584062499997,25.6944390625C16.4247340625,26.2587390625,14.7816940625,27.0709390625,13.2805940625,28.1060390625C11.8545640625,29.0660390625,10.6250640625,30.2895390625,9.6582340625,31.7109390625C8.7630520625,33.001239062500005,8.2706044625,34.5280390625,8.2431640625,36.098139062499996C8.2431640625,37.4957390625,8.6567220625,38.5894390625,9.5087540625,39.4738390625C11.6313440625,41.6513390625,16.1381340625,41.8306390625,20.9687640625,41.8306390625L25.5627640625,41.8306390625C31.0162640625,41.8530390625,36.1682640625,41.8730390625,38.4926640625,39.4863390625C39.3471640625,38.6119390625,39.7607640625,37.4933390625,39.7607640625,36.1031390625C39.7330640625,34.5349390625,39.243464062499996,33.0097390625,38.3531640625,31.7184390625L38.363164062500005,31.7109390625Z" fill="#2DD66F" fill-opacity="1" style="mix-blend-mode:passthrough"/><path d="M38.363164062500005,31.7109390625C37.402564062500005,30.2903390625,36.1788640625,29.0666390625,34.7581640625,28.1060390625C33.2576640625,27.0666390625,31.6134640625,26.2517390625,29.8777640625,25.6869390625L27.6654640625,24.8698390625L29.5189640625,23.3501390625C32.771264062499995,21.0389390625,34.2255640625,16.9368390625,33.1551640625,13.0932590625C32.084664062499996,9.2496690625,28.7193640625,6.4897580625,24.7406640625,6.1924531625Q24.3719640625,6.16504873831,23.9932640625,6.16504873831C21.608464062499998,6.1616254025,19.3118640625,7.0667070625,17.570634062499998,8.696219062499999C13.1649740625,12.775559062500001,13.6209340625,19.8730390625,18.512364062499998,23.3551390625L20.373364062500002,24.8748390625L18.158584062499997,25.6944390625C16.4247340625,26.2587390625,14.7816940625,27.0709390625,13.2805940625,28.1060390625C11.8545640625,29.0660390625,10.6250640625,30.2895390625,9.6582340625,31.7109390625C8.7630520625,33.001239062500005,8.2706044625,34.5280390625,8.2431640625,36.098139062499996C8.2431640625,37.4957390625,8.6567220625,38.5894390625,9.5087540625,39.4738390625C11.6313440625,41.6513390625,16.1381340625,41.8306390625,20.9687640625,41.8306390625L25.5627640625,41.8306390625C31.0162640625,41.8530390625,36.1682640625,41.8730390625,38.4926640625,39.4863390625C39.3471640625,38.6119390625,39.7607640625,37.4933390625,39.7607640625,36.1031390625C39.7330640625,34.5349390625,39.243464062499996,33.0097390625,38.3531640625,31.7184390625L38.363164062500005,31.7109390625Z" fill="url(#master_svg1_87_8304)" fill-opacity="1"/></g><g filter="url(#master_svg2_132_40074)"><rect x="22.2890625" y="28.626953125" width="3.4482421875" height="9.303799629211426" rx="1.72412109375" fill="#FFFAFA" fill-opacity="1"/></g><g><path d="M11.87221875,26.0337109375C13.01231875,25.2430109375,14.22821875,24.567910937500002,15.50211875,24.0182109375C11.87141875,20.3587109375,11.00491875,14.7798209375,13.35461875,10.1914651375C9.87969875,9.9933529375,6.69355875,12.1199209375,5.54345875,15.4049209375C4.39335875,18.6899209375,5.55725875,22.339510937500002,8.39685875,24.3521109375C7.05832875,24.7904109375,5.78972875,25.418810937499998,4.62999875,26.2181109375C3.49852875,26.9821109375,2.52353875,27.9554109375,1.75751875,29.0856109375C1.00849975,30.1711109375,0.59760695,31.4540109375,0.57663554,32.7727109375C0.53789115,33.9268109375,0.96633575,35.0478109375,1.76498875,35.881910937499995C2.73659875,36.8784109375,4.18654875,37.376610937500004,5.90554875,37.6258109375C5.81015875,37.1114109375,5.76261875,36.5893109375,5.76354875,36.0662109375C5.78880875,34.0094109375,6.42438875,32.0064109375,7.58967875,30.3113109375C8.73134875,28.6254109375,10.18499875,27.1734109375,11.87221875,26.0337109375ZM46.26731875,29.0856109375C45.50101875,27.9563109375,44.52601875,26.9839109375,43.39481875,26.2206109375C42.23521875,25.4204109375,40.96661875,24.7912109375,39.62791875,24.3521109375C42.45951875,22.3373109375,43.61801875,18.6931509375,42.46971875,15.4131309375C41.32131875,12.1331109375,38.14271875,10.0074219375,34.67271875,10.1989404375C37.02241875,14.7872909375,36.15591875,20.3662109375,32.52521875,24.0257109375C33.79911875,24.5754109375,35.01501875,25.2505109375,36.15501875,26.0412109375C37.84181875,27.1794109375,39.29541875,28.6297109375,40.43761875,30.3138109375C41.60291875,32.008910937500005,42.23851875,34.011910937500005,42.26371875,36.0687109375C42.26471875,36.5918109375,42.21711875,37.113910937499995,42.12171875,37.628310937500004C43.84071875,37.3791109375,45.29071875,36.880910937500005,46.26231875,35.8844109375C47.06091875,35.0503109375,47.48941875,33.9293109375,47.45061875,32.7752109375C47.42941875,31.4554109375,47.01761875,30.1715109375,46.26731875,29.0856109375Z" fill="#A3E9C5" fill-opacity="1" style="mix-blend-mode:passthrough"/></g></g></g></svg>