<svg xmlns="http://www.w3.org/2000/svg" xmlns:xlink="http://www.w3.org/1999/xlink" fill="none" version="1.1" width="20" height="20" viewBox="0 0 20 20"><defs><clipPath id="master_svg0_93_05765"><rect x="0" y="0" width="20" height="20" rx="0"/></clipPath></defs><g clip-path="url(#master_svg0_93_05765)"><g><path d="M19.55553135040283,14.26658849105835C18.79998135040283,13.33328849105835,17.644431350402833,12.53328849105835,16.177751350402833,12.088828491058349Q15.599981350402832,11.95548849105835,15.422211350402833,11.86659849105835C15.111071350402831,11.64439849105835,14.933321350402831,11.28882849105835,14.933321350402831,10.88882849105835C14.933321350402831,10.44439849105835,15.288861350402833,10.08882849105835,15.511091350402832,9.86659849105835C16.088871350402833,9.15548849105835,16.44443135040283,8.22216849105835,16.44443135040283,7.15548849105835C16.44443135040283,4.97771849105835,14.888861350402832,3.1554884910583496,12.933301350402832,3.1554884910583496C12.622201350402833,3.1554884910583496,12.311092350402832,3.1999415910583497,12.044431350402832,3.2888284910583496C12.711091350402832,4.26659849105835,13.066641350402833,5.42216849105835,13.066641350402833,6.711058491058349C13.066641350402833,8.08882849105835,12.577771350402832,9.42216849105835,11.733318350402833,10.53327849105835L11.644431350402831,10.62214849105835L11.644431350402831,10.66659849105835C11.555524350402832,10.75548849105835,11.422204950402833,10.88882849105835,11.377751350402832,11.022168491058348C11.377751350402832,11.06659849105835,11.377751350402832,11.06659849105835,11.422204950402833,11.06659849105835C11.511071350402831,11.11105849105835,11.644431350402831,11.15548849105835,11.777751350402832,11.15548849105835L11.822204350402831,11.15548849105835L11.999977350402832,11.24439849105835C13.822201350402832,11.822168491058349,15.377751350402832,12.84439849105835,16.399981350402832,14.13328849105835C16.844431350402832,14.71108849105835,17.11109135040283,15.37768849105835,17.11109135040283,16.08878849105835C17.11109135040283,16.48878849105835,17.02220135040283,16.79998849105835,16.888861350402834,17.15548849105835L18.177751350402833,17.15548849105835C19.199971350402834,17.15548849105835,19.99997135040283,16.39998849105835,19.99997135040283,15.42218849105835C19.955521350402833,14.933288491058349,19.822201350402832,14.57768849105835,19.55553135040283,14.26658849105835Z" fill="#00E5E5" fill-opacity="1" style="mix-blend-mode:passthrough"/></g><g><path d="M4.26664359375,12.399934375C3.53328359375,12.799834375,0.04443359375,14.048934375,0.04443359375,15.999934375C0.04443359375,17.066634375,-0.06669940625,19.000034375,1.04443359375,19.000034375L14.77783359375,19.000034375C15.93343359375,19.000034375,15.82223359375,17.111034375,15.82223359375,15.999934375C15.82223359375,15.555534375,15.64443359375,15.155534375,15.42223359375,14.799934375C14.57773359375,13.688834375,13.24443359375,12.844434375,11.59993359375,12.311034375Q10.93333359375,12.133284375,10.75553359375,12.044394375C10.39993359375,11.822164375,10.17773359375,11.377714375,10.17773359375,10.933264375C10.17773359375,10.444394375,10.57773359375,10.044394375,10.84443359375,9.733264375000001C11.51113359375,8.933264375,11.86663359375,7.866604375,11.86663359375,6.666604375C11.86663359375,4.177734375,10.08883359375,2.177734375,7.91109359375,2.177734375C5.73331359375,2.177734375,3.95552359375,4.222154375000001,3.95552359375,6.711034375C3.95552359375,7.911034375,4.45550359375,9.055394374999999,4.97775359375,9.777694375C5.50000359375,10.500004375,5.64443359375,10.488834375,5.64443359375,10.977694375C5.64443359375,11.719754375,5.00000359375,12.000004375,4.26664359375,12.399934375Z" fill="#1A64FA" fill-opacity="1" style="mix-blend-mode:passthrough"/></g><g><path d="M6,15L9.5,15Q9.59849,15,9.69509,15.019214999999999Q9.79169,15.03843,9.88268,15.076121Q9.97368,15.113812,10.05557,15.16853Q10.13746,15.223249,10.20711,15.292893Q10.27675,15.362537,10.33147,15.44443Q10.38619,15.526322,10.42388,15.617317Q10.46157,15.708311,10.48078,15.80491Q10.5,15.9015086,10.5,16Q10.5,16.0984914,10.48078,16.19509Q10.46157,16.291689,10.42388,16.382683Q10.38619,16.473678,10.33147,16.55557Q10.27675,16.637463,10.20711,16.707107Q10.13746,16.776751,10.05557,16.83147Q9.97368,16.886188,9.88268,16.923879Q9.79169,16.961570000000002,9.69509,16.980785Q9.59849,17,9.5,17L6,17Q5.9015086,17,5.80491,16.980785Q5.708311,16.961570000000002,5.617317,16.923879Q5.526322,16.886188,5.44443,16.83147Q5.362537,16.776751,5.292893,16.707107Q5.223249,16.637463,5.16853,16.55557Q5.113812,16.473678,5.076121,16.382683Q5.03843,16.291689,5.019215,16.19509Q5,16.0984914,5,16Q5,15.9015086,5.019215,15.80491Q5.03843,15.708311,5.076121,15.617317Q5.113812,15.526322,5.16853,15.44443Q5.223249,15.362537,5.292893,15.292893Q5.362537,15.223249,5.44443,15.16853Q5.526322,15.113812,5.617317,15.076121Q5.708311,15.03843,5.80491,15.019214999999999Q5.9015086,15,6,15Z" fill-rule="evenodd" fill="#FFFFFF" fill-opacity="1"/></g></g></svg>