<svg xmlns="http://www.w3.org/2000/svg" xmlns:xlink="http://www.w3.org/1999/xlink" fill="none" version="1.1" width="20" height="20" viewBox="0 0 20 20"><defs><clipPath id="master_svg0_93_05808"><rect x="0" y="0" width="20" height="20" rx="0"/></clipPath><mask id="master_svg1_93_05810" style="mask-type:alpha" maskUnits="objectBoundingBox"><g><path d="M10.49999,0L15,2.5L15,7.5L10.49999,10L6,7.5L6,2.5L10.49999,0Z" fill="#FFFFFF" fill-opacity="1"/></g></mask><mask id="master_svg2_93_05811" style="mask-type:alpha" maskUnits="objectBoundingBox"><g><path d="M5.49999,9L10,11.5L10,16.5L5.49999,19L1,16.5L1,11.5L5.49999,9Z" fill="#FFFFFF" fill-opacity="1"/></g></mask><mask id="master_svg3_93_05812" style="mask-type:alpha" maskUnits="objectBoundingBox"><g><path d="M15.49999,9L20,11.5L20,16.5L15.49999,19L11,16.5L11,11.5L15.49999,9Z" fill="#FFFFFF" fill-opacity="1"/></g></mask></defs><g clip-path="url(#master_svg0_93_05808)"><g><g mask="url(#master_svg1_93_05810)"><g><path d="M10.49999,0L15,2.5L15,7.5L10.49999,10L6,7.5L6,2.5L10.49999,0Z" fill="#1A64FA" fill-opacity="1"/></g></g><g mask="url(#master_svg2_93_05811)"><g><path d="M5.49999,9L10,11.5L10,16.5L5.49999,19L1,16.5L1,11.5L5.49999,9Z" fill="#1A64FA" fill-opacity="1"/></g></g><g mask="url(#master_svg3_93_05812)"><g><path d="M15.49999,9L20,11.5L20,16.5L15.49999,19L11,16.5L11,11.5L15.49999,9Z" fill="#00E5E5" fill-opacity="1"/></g></g></g></g></svg>