<svg xmlns="http://www.w3.org/2000/svg" xmlns:xlink="http://www.w3.org/1999/xlink" fill="none" version="1.1" width="48" height="48" viewBox="8 8 48 48"><defs><clipPath id="master_svg0_202_50877"><rect x="0" y="0" width="64" height="64" rx="17.230770111083984"/></clipPath><mask id="master_svg1_202_50881" style="mask-type:alpha" maskUnits="objectBoundingBox"><g><path d="M32.000342187499996,13.153839111328125L40.927542187499995,18.113349111328127L40.927542187499995,28.032339111328128L32.000342187499996,32.99193911132812L23.0732421875,28.032339111328128L23.0732421875,18.113349111328127L32.000342187499996,13.153839111328125Z" fill="#FFFFFF" fill-opacity="1"/></g></mask><mask id="master_svg2_202_50885" style="mask-type:alpha" maskUnits="objectBoundingBox"><g><path d="M22.08090859375,31.0084228515625L31.00810859375,35.9679328515625L31.00810859375,45.8869228515625L22.08090859375,50.8465228515625L13.15380859375,45.8869228515625L13.15380859375,35.9679328515625L22.08090859375,31.0084228515625Z" fill="#FFFFFF" fill-opacity="1"/></g></mask><filter id="master_svg3_202_50884" filterUnits="objectBoundingBox" color-interpolation-filters="sRGB" x="-1.740017038283105" y="-0.665414781307133" width="4.48003407656621" height="2.996244343921399"><feFlood flood-opacity="0" result="BackgroundImageFix"/><feColorMatrix in="SourceAlpha" type="matrix" values="0 0 0 0 0 0 0 0 0 0 0 0 0 0 0 0 0 0 127 0"/><feOffset dy="2.153846263885498" dx="0"/><feGaussianBlur stdDeviation="1.6153846979141235"/><feColorMatrix type="matrix" values="0 0 0 0 0.04899725690484047 0 0 0 0 0.49801599979400635 0 0 0 0 0.22112110257148743 0 0 0 0.5 0"/><feBlend mode="normal" in2="BackgroundImageFix" result="effect1_dropShadow"/><feBlend mode="normal" in="SourceGraphic" in2="effect1_dropShadow" result="shape"/></filter><mask id="master_svg4_202_50883" style="mask-type:alpha" maskUnits="objectBoundingBox"><g><path d="M41.918799218749996,31.0084228515625L50.845999218749995,35.9679328515625L50.845999218749995,45.8869228515625L41.918799218749996,50.8465228515625L32.99169921875,45.8869228515625L32.99169921875,35.9679328515625L41.918799218749996,31.0084228515625Z" fill="#FFFFFF" fill-opacity="1"/></g></mask><filter id="master_svg5_202_50882" filterUnits="objectBoundingBox" color-interpolation-filters="sRGB" x="-1.740017038283105" y="-0.665414781307133" width="4.48003407656621" height="2.996244343921399"><feFlood flood-opacity="0" result="BackgroundImageFix"/><feColorMatrix in="SourceAlpha" type="matrix" values="0 0 0 0 0 0 0 0 0 0 0 0 0 0 0 0 0 0 127 0"/><feOffset dy="2.153846263885498" dx="0"/><feGaussianBlur stdDeviation="1.6153846979141235"/><feColorMatrix type="matrix" values="0 0 0 0 0.04899725690484047 0 0 0 0 0.49801599979400635 0 0 0 0 0.22112110257148743 0 0 0 0.5 0"/><feBlend mode="normal" in2="BackgroundImageFix" result="effect1_dropShadow"/><feBlend mode="normal" in="SourceGraphic" in2="effect1_dropShadow" result="shape"/></filter></defs><g clip-path="url(#master_svg0_202_50877)"><rect x="0" y="0" width="64" height="64" rx="17.230770111083984" fill="#EBFFFD" fill-opacity="1"/><g><g mask="url(#master_svg1_202_50881)"><g><path d="M32.000342187499996,13.153839111328125L40.927542187499995,18.113349111328127L40.927542187499995,28.032339111328128L32.000342187499996,32.99193911132812L23.0732421875,28.032339111328128L23.0732421875,18.113349111328127L32.000342187499996,13.153839111328125Z" fill="#A3E9C5" fill-opacity="1"/></g></g><g mask="url(#master_svg2_202_50885)"><g><path d="M22.08090859375,31.0084228515625L31.00810859375,35.9679328515625L31.00810859375,45.8869228515625L22.08090859375,50.8465228515625L13.15380859375,45.8869228515625L13.15380859375,35.9679328515625L22.08090859375,31.0084228515625Z" fill="#3BDF84" fill-opacity="1"/></g><g filter="url(#master_svg3_202_50884)"><rect x="22.6865234375" y="40.15142822265625" width="3.713491678237915" height="6.473695278167725" rx="1.8567458391189575" fill="#FFFAFA" fill-opacity="1"/></g></g><g mask="url(#master_svg4_202_50883)"><g><path d="M41.918799218749996,31.0084228515625L50.845999218749995,35.9679328515625L50.845999218749995,45.8869228515625L41.918799218749996,50.8465228515625L32.99169921875,45.8869228515625L32.99169921875,35.9679328515625L41.918799218749996,31.0084228515625Z" fill="#3BDF84" fill-opacity="1"/></g><g filter="url(#master_svg5_202_50882)"><rect x="42.896484375" y="40.15142822265625" width="3.713491678237915" height="6.473695278167725" rx="1.8567458391189575" fill="#FFFAFA" fill-opacity="1"/></g></g></g></g></svg>