<svg xmlns="http://www.w3.org/2000/svg" xmlns:xlink="http://www.w3.org/1999/xlink" fill="none" version="1.1" width="51.65380859375" height="48" viewBox="0 0 51.65380859375 48"><defs><linearGradient x1="0.03193933889269829" y1="0.15046265721321106" x2="0.6693883136969361" y2="0.8444004525554326" id="master_svg0_87_6349"><stop offset="0%" stop-color="#FF7F7F" stop-opacity="1"/><stop offset="56.92962408065796%" stop-color="#FF7F7F" stop-opacity="0"/></linearGradient><filter id="master_svg1_132_40104" filterUnits="objectBoundingBox" color-interpolation-filters="sRGB" x="-0.24799593131675182" y="-0.5969540188005538" width="1.4959918626335036" height="2.4923850470013846"><feFlood flood-opacity="0" result="BackgroundImageFix"/><feColorMatrix in="SourceAlpha" type="matrix" values="0 0 0 0 0 0 0 0 0 0 0 0 0 0 0 0 0 0 127 0"/><feOffset dy="2" dx="0"/><feGaussianBlur stdDeviation="2.5"/><feColorMatrix type="matrix" values="0 0 0 0 0.8908731341362 0 0 0 0 0.1779131442308426 0 0 0 0 0.2556074857711792 0 0 0 1 0"/><feBlend mode="normal" in2="BackgroundImageFix" result="effect1_dropShadow"/><feBlend mode="normal" in="SourceGraphic" in2="effect1_dropShadow" result="shape"/></filter><filter id="master_svg2_132_40107" filterUnits="objectBoundingBox" color-interpolation-filters="sRGB" x="-1.740016992353441" y="-0.4640045312942509" width="4.480033984706882" height="2.3920135938827527"><feFlood flood-opacity="0" result="BackgroundImageFix"/><feColorMatrix in="SourceAlpha" type="matrix" values="0 0 0 0 0 0 0 0 0 0 0 0 0 0 0 0 0 0 127 0"/><feOffset dy="2" dx="0"/><feGaussianBlur stdDeviation="1.5"/><feColorMatrix type="matrix" values="0 0 0 0 0.6646826863288879 0 0 0 0 0.10931650549173355 0 0 0 0 0.2851824164390564 0 0 0 0.5 0"/><feBlend mode="normal" in2="BackgroundImageFix" result="effect1_dropShadow"/><feBlend mode="normal" in="SourceGraphic" in2="effect1_dropShadow" result="shape"/></filter><filter id="master_svg3_132_40106" filterUnits="objectBoundingBox" color-interpolation-filters="sRGB" x="-1.740016992353441" y="-0.38650258299366297" width="4.480033984706882" height="2.159507748980989"><feFlood flood-opacity="0" result="BackgroundImageFix"/><feColorMatrix in="SourceAlpha" type="matrix" values="0 0 0 0 0 0 0 0 0 0 0 0 0 0 0 0 0 0 127 0"/><feOffset dy="2" dx="0"/><feGaussianBlur stdDeviation="1.5"/><feColorMatrix type="matrix" values="0 0 0 0 0.6646826863288879 0 0 0 0 0.10931650549173355 0 0 0 0 0.2851824164390564 0 0 0 0.5 0"/><feBlend mode="normal" in2="BackgroundImageFix" result="effect1_dropShadow"/><feBlend mode="normal" in="SourceGraphic" in2="effect1_dropShadow" result="shape"/></filter><filter id="master_svg4_132_40108" filterUnits="objectBoundingBox" color-interpolation-filters="sRGB" x="-1.740016992353441" y="-0.4640045312942509" width="4.480033984706882" height="2.3920135938827527"><feFlood flood-opacity="0" result="BackgroundImageFix"/><feColorMatrix in="SourceAlpha" type="matrix" values="0 0 0 0 0 0 0 0 0 0 0 0 0 0 0 0 0 0 127 0"/><feOffset dy="2" dx="0"/><feGaussianBlur stdDeviation="1.5"/><feColorMatrix type="matrix" values="0 0 0 0 0.6646826863288879 0 0 0 0 0.10931650549173355 0 0 0 0 0.2851824164390564 0 0 0 0.5 0"/><feBlend mode="normal" in2="BackgroundImageFix" result="effect1_dropShadow"/><feBlend mode="normal" in="SourceGraphic" in2="effect1_dropShadow" result="shape"/></filter></defs><g><g><g><g><path d="M8.755859375,18.66845703125L8.755859375,38.99995703125C8.755859375,40.65685703125,10.099009375,41.99995703125,11.755859375,41.99995703125L39.755859375,41.99995703125C41.412759375,41.99995703125,42.755859375,40.65685703125,42.755859375,38.99995703125L42.755859375,18.66845703125C42.755859375,17.01160703125,41.412759375,15.66845703125,39.755859375,15.66845703125L11.755859375,15.66845703125C10.099009375,15.66845703125,8.755859375,17.01160703125,8.755859375,18.66845703125Z" fill="#FF6374" fill-opacity="1"/><path d="M8.755859375,18.66845703125L8.755859375,38.99995703125C8.755859375,40.65685703125,10.099009375,41.99995703125,11.755859375,41.99995703125L39.755859375,41.99995703125C41.412759375,41.99995703125,42.755859375,40.65685703125,42.755859375,38.99995703125L42.755859375,18.66845703125C42.755859375,17.01160703125,41.412759375,15.66845703125,39.755859375,15.66845703125L11.755859375,15.66845703125C10.099009375,15.66845703125,8.755859375,17.01160703125,8.755859375,18.66845703125Z" fill="url(#master_svg0_87_6349)" fill-opacity="1"/></g><g filter="url(#master_svg1_132_40104)"><path d="M7.83486,16.1269065625C6.81086,18.1232265625,8.26053,20.496126562500002,10.504190000000001,20.496126562500002L41.14995,20.496126562500002C43.35885,20.496126562500002,44.81025,18.1897265625,43.85465,16.1982265625L40.30315,8.7968565625C39.80385,7.7565355625,38.75225,7.0947265625,37.59835,7.0947265625L14.3006,7.0947265625C13.1754,7.0947265625,12.14481,7.7243595625,11.63128,8.7255365625L7.83486,16.1269065625Z" fill="#FF9DB0" fill-opacity="1"/></g><g><path d="M35.841146875,13.51880453125Q35.842746875,13.51723453125,35.844346875,13.51566453125L35.844646874999995,13.51535453125L34.432646875,12.09890653125L34.432646875,12.09895053125L34.431546874999995,12.10002153125Q31.629146875,14.89306453125,29.092746875,14.89306453125Q28.446646875,14.89306453125,27.852146875000003,14.44627453125Q27.422246875,14.12318453125,26.603146875,13.16811453125Q25.633476875,12.03761753125,25.020556875,11.57849153125Q23.878696875,10.72314453125,22.544916875,10.72314453125Q19.113506875,10.72314453125,15.636651875,14.50753453125Q15.509504875,14.64592453125,15.441275875,14.82103453125Q15.373046875,14.99614453125,15.373046875,15.18408453125Q15.373046875,15.282574531249999,15.392261874999999,15.37917453125Q15.411476875,15.47577453125,15.449167875,15.56676453125Q15.486858875,15.65775453125,15.541576875,15.73965453125Q15.596295875,15.82154453125,15.665939875,15.891184531250001Q15.735583875,15.96083453125,15.817476875,16.01555453125Q15.899368875,16.07027453125,15.990363875,16.10796453125Q16.081357875,16.14565453125,16.177956875,16.16486453125Q16.274555475,16.18408453125,16.373046875,16.18408453125Q16.582983875,16.18408453125,16.775195875,16.09965453125Q16.967408875,16.01523453125,17.109441875,15.86063453125Q19.991966875,12.72314453125,22.544916875,12.72314453125Q23.212686875,12.72314453125,23.821496875,13.17919453125Q24.258486875,13.50653453125,25.085026875,14.47019453125Q26.046236874999998,15.59086453125,26.650546875,16.04503453125Q27.778846875,16.89306453125,29.092746875,16.89306453125Q32.454546875,16.89306453125,35.841146875,13.51880453125Z" fill-rule="evenodd" fill="#FFFFFF" fill-opacity="0.36000001430511475"/></g><g><g filter="url(#master_svg2_132_40107)"><rect x="16.5830078125" y="26.3759765625" width="3.4482421875" height="8.62060546875" rx="1.72412109375" fill="#FFFAFA" fill-opacity="1"/></g><g filter="url(#master_svg3_132_40106)"><rect x="24.03125" y="25.51171875" width="3.4482421875" height="10.34921932220459" rx="1.72412109375" fill="#FFFAFA" fill-opacity="1"/></g><g filter="url(#master_svg4_132_40108)"><rect x="31.4794921875" y="26.3759765625" width="3.4482421875" height="8.62060546875" rx="1.72412109375" fill="#FFFAFA" fill-opacity="1"/></g></g></g></g></g></svg>