<svg xmlns="http://www.w3.org/2000/svg" xmlns:xlink="http://www.w3.org/1999/xlink" fill="none" version="1.1" width="20" height="20" viewBox="0 0 20 20"><defs><clipPath id="master_svg0_202_52201"><rect x="0" y="0" width="20" height="20" rx="0"/></clipPath><mask id="master_svg1_202_52206" style="mask-type:alpha" maskUnits="objectBoundingBox"><g><path d="M9.99998,0L19,5L19,15L9.99998,20L1,15L1,5L9.99998,0Z" fill="#FFFFFF" fill-opacity="1"/></g></mask></defs><g clip-path="url(#master_svg0_202_52201)"><g mask="url(#master_svg1_202_52206)"><g><path d="M9.99998,0L19,5L19,15L9.99998,20L1,15L1,5L9.99998,0Z" fill="#1A64FA" fill-opacity="1"/></g><g><path d="M15,7C15,7.55228,15.447715,8,16,8L23.5,8L15,2L15,7Z" fill="#00E5E5" fill-opacity="1"/></g></g><g><path d="M9,7Q9,6.9015086,9.019210000000001,6.80491Q9.03843,6.708311,9.07612,6.617317Q9.11381,6.526322,9.16853,6.44443Q9.22325,6.362537,9.29289,6.292893Q9.36254,6.223249,9.44443,6.16853Q9.52632,6.113812,9.61732,6.076121Q9.70831,6.03843,9.80491,6.019215Q9.90151,6,10,6Q10.09849,6,10.19509,6.019215Q10.29169,6.03843,10.38268,6.076121Q10.47368,6.113812,10.55557,6.16853Q10.63746,6.223249,10.70711,6.292893Q10.77675,6.362537,10.83147,6.44443Q10.88619,6.526322,10.92388,6.617317Q10.96157,6.708311,10.98078,6.80491Q11,6.9015086,11,7L11,9.96482L13.5547,11.667950000000001Q13.65743,11.73644,13.74042,11.827860000000001Q13.823409999999999,11.91928,13.88167,12.02814Q13.93994,12.137,13.96997,12.25677Q14,12.376529999999999,14,12.5Q14,12.59849,13.98078,12.69509Q13.96157,12.79169,13.92388,12.88268Q13.88619,12.97368,13.83147,13.05557Q13.77675,13.13746,13.70711,13.20711Q13.63746,13.27675,13.55557,13.33147Q13.47368,13.38619,13.38268,13.42388Q13.29169,13.46157,13.19509,13.48078Q13.09849,13.5,13,13.5Q12.69722,13.5,12.4453,13.332049999999999L12.44486,13.33176L10,11.70185L7.5547,13.332049999999999Q7.302776,13.5,7,13.5Q6.9015086,13.5,6.80491,13.48078Q6.708311,13.46157,6.617317,13.42388Q6.526322,13.38619,6.44443,13.33147Q6.362537,13.27675,6.292893,13.20711Q6.223249,13.13746,6.16853,13.05557Q6.113812,12.97368,6.076121,12.88268Q6.03843,12.79169,6.019215,12.69509Q6,12.59849,6,12.5Q6,12.376529999999999,6.030032,12.25677Q6.060065,12.137,6.1183250000000005,12.02814Q6.176586,11.91928,6.259576,11.827860000000001Q6.342566,11.73644,6.4453,11.667950000000001L9,9.96482L9,7Z" fill-rule="evenodd" fill="#FFFFFF" fill-opacity="1"/></g></g></svg>