<svg xmlns="http://www.w3.org/2000/svg" xmlns:xlink="http://www.w3.org/1999/xlink" fill="none" version="1.1" width="20" height="20" viewBox="0 0 20 20"><defs><clipPath id="master_svg0_202_52188"><rect x="0" y="0" width="20" height="20" rx="0"/></clipPath></defs><g clip-path="url(#master_svg0_202_52188)"><g><g><path d="M16.43246078491211,3.38650010625Q16.71871578491211,4.22146090625,16.59115178491211,7.73708890625Q16.46358868491211,11.25270890625,16.61495578491211,11.43153890625Q18.48263078491211,11.08565890625,19.20285078491211,9.49631890625C19.92306078491211,7.90697890625,20.22946078491211,5.33678890625,19.81015078491211,4.30285690625C19.56899078491211,3.70821890625,18.855560784912107,3.42761230625,18.46981078491211,3.38671870625C18.29006078491211,3.36766302625,18.06896078491211,3.37428275625,17.77527078491211,3.38307610625C17.438690784912108,3.39315330625,17.00676278491211,3.40608510625,16.43246078491211,3.38650010625Z" fill="#00E5E5" fill-opacity="1"/></g><g transform="matrix(-1,0,0,1,7.13671875,0)"><path d="M3.568359375,3.38650010625Q3.854614375,4.22146090625,3.727050375,7.73708890625Q3.599487275,11.25270890625,3.750854375,11.43153890625Q5.618529375,11.08565890625,6.338749375,9.49631890625C7.058959375000001,7.90697890625,7.365359375000001,5.33678890625,6.946049374999999,4.30285690625C6.7048893750000005,3.70821890625,5.991459375,3.42761230625,5.605709375,3.38671870625C5.425959375,3.36766302625,5.204859375,3.37428275625,4.911169375,3.38307610625C4.574589375,3.39315330625,4.142661375,3.40608510625,3.568359375,3.38650010625Z" fill="#00E5E5" fill-opacity="1"/></g><g><path d="M2.802090644836426,10.0752L2.802090644836426,3.4375C2.802090644836426,1.91872,4.033310644836426,0.6875,5.552090644836426,0.6875L14.497890644836426,0.6875C16.016690644836427,0.6875,17.247890644836424,1.91872,17.247890644836424,3.4375L17.247890644836424,10.0752C17.247890644836424,13.2668,13.844990644836425,15.8973,10.749720644836426,16.2563L10.749720644836426,17.8685L13.579590644836426,17.8685C13.978190644836426,17.8685,14.301390644836426,18.1917,14.301390644836426,18.5903C14.301390644836426,18.9889,13.978190644836426,19.312,13.579590644836426,19.312L6.469020644836426,19.312C6.070410644836426,19.312,5.747280644836426,18.9889,5.747280644836426,18.5903C5.747280644836426,18.1917,6.070410644836426,17.8685,6.469020644836426,17.8685L9.299530644836427,17.8685L9.299530644836427,16.2563C6.204520644836426,15.8969,2.802090644836426,13.2666,2.802090644836426,10.0752Z" fill-rule="evenodd" fill="#1A64FA" fill-opacity="1"/></g><g><path d="M10.851180781250001,6.3670740625C10.89456078125,6.5068540625,11.01898078125,6.6015040625,11.15935078125,6.6015040625L13.49614078125,6.6016040625C13.810040781249999,6.6016140624999995,13.94056078125,7.0221940625000006,13.68661078125,7.2153940625L11.79616078125,8.6536340625C11.682600781249999,8.740034062500001,11.63508078125,8.8931740625,11.67845078125,9.0329640625L12.40047078125,11.3599840625C12.49746078125,11.6725840625,12.15577078125,11.9325140625,11.90181078125,11.7393340625L10.01126078125,10.3012440625C9.897690781249999,10.214854062499999,9.74391078125,10.214854062499999,9.63034078125,10.3012440625L7.73979078125,11.7393340625C7.48583078125,11.9325140625,7.14414078125,11.6725840625,7.24113078125,11.3599840625L7.96315078125,9.0329640625C8.00652078125,8.8931740625,7.959000781249999,8.740034062500001,7.84544078125,8.6536340625L5.95499078125,7.2153940625C5.70104378125,7.0221940625000006,5.83155738125,6.6016140624999995,6.14546178125,6.6016040625L8.48225078125,6.6015040625C8.62262078125,6.6015040625,8.74704078125,6.5068540625,8.790420781249999,6.3670740625L9.51261078125,4.0401030625C9.60963078125,3.7275176625,10.03197078125,3.7275176625,10.12899078125,4.0401030625L10.851180781250001,6.3670740625Z" fill="#FFFFFF" fill-opacity="1"/></g></g></g></svg>