<svg xmlns="http://www.w3.org/2000/svg" xmlns:xlink="http://www.w3.org/1999/xlink" fill="none" version="1.1" width="48" height="48" viewBox="0 0 48 48"><defs><linearGradient x1="0.1055908203125" y1="0.2517225444316864" x2="0.564994177819792" y2="0.9577064832994281" id="master_svg0_87_4758"><stop offset="0%" stop-color="#63A1FF" stop-opacity="1"/><stop offset="100%" stop-color="#63A1FF" stop-opacity="0"/></linearGradient><filter id="master_svg1_132_40099" filterUnits="objectBoundingBox" color-interpolation-filters="sRGB" x="-0.20895117698638851" y="-0.13846411444586412" width="1.417902353972777" height="1.4153923433375923"><feFlood flood-opacity="0" result="BackgroundImageFix"/><feColorMatrix in="SourceAlpha" type="matrix" values="0 0 0 0 0 0 0 0 0 0 0 0 0 0 0 0 0 0 127 0"/><feOffset dy="2" dx="0"/><feGaussianBlur stdDeviation="1.5"/><feColorMatrix type="matrix" values="0 0 0 0 0.125490203499794 0 0 0 0 0.27843138575553894 0 0 0 0 0.6392157077789307 0 0 0 0.5 0"/><feBlend mode="normal" in2="BackgroundImageFix" result="effect1_dropShadow"/><feBlend mode="normal" in="SourceGraphic" in2="effect1_dropShadow" result="shape"/></filter></defs><g><g><g><path d="M4.97546,19.08283101158142C4.102244,19.53603101158142,3.752407,20.591931011581423,4.185748,21.46643101158142C4.61909,22.34093101158142,5.6786,22.717131011581422,6.57746,22.31573101158142L7.5061800000000005,21.73973101158142L7.5061800000000005,42.32833101158142C7.5061800000000005,43.33093101158142,8.33455,44.14453101158142,9.31436,44.14453101158142L38.5244,44.14453101158142C39.5315,44.14453101158142,40.2395,43.338131011581424,40.2395,42.344531011581424L40.2395,38.74623101158142L40.349,31.566031011581423L40.4019,21.76313101158142L41.0551,22.16633101158142C41.9276,22.83533101158142,43.198,22.59163101158142,43.7528,21.64873101158142C44.3076,20.70593101158142,43.8922,19.49683101158142,42.8705,19.081031011581423L24.7614,8.403343011581422C24.2028,8.05826061158142,23.4935,8.05826061158142,22.935,8.403343011581422L4.97546,19.08283101158142Z" fill="#3E73FE" fill-opacity="1"/><path d="M4.97546,19.08283101158142C4.102244,19.53603101158142,3.752407,20.591931011581423,4.185748,21.46643101158142C4.61909,22.34093101158142,5.6786,22.717131011581422,6.57746,22.31573101158142L7.5061800000000005,21.73973101158142L7.5061800000000005,42.32833101158142C7.5061800000000005,43.33093101158142,8.33455,44.14453101158142,9.31436,44.14453101158142L38.5244,44.14453101158142C39.5315,44.14453101158142,40.2395,43.338131011581424,40.2395,42.344531011581424L40.2395,38.74623101158142L40.349,31.566031011581423L40.4019,21.76313101158142L41.0551,22.16633101158142C41.9276,22.83533101158142,43.198,22.59163101158142,43.7528,21.64873101158142C44.3076,20.70593101158142,43.8922,19.49683101158142,42.8705,19.081031011581423L24.7614,8.403343011581422C24.2028,8.05826061158142,23.4935,8.05826061158142,22.935,8.403343011581422L4.97546,19.08283101158142Z" fill="url(#master_svg0_87_4758)" fill-opacity="1"/></g><g filter="url(#master_svg1_132_40099)"><path d="M12.159557648162842,19.09303507408142L11.492857648162841,19.51219507408142C10.847597648162841,19.804295074081423,10.087004648162841,19.530495074081422,9.775920648162842,18.894195074081424C9.464837648162842,18.25785507408142,9.715975448162842,17.48950507408142,10.342831648162841,17.159725074081422L23.235477648162842,9.388525074081421C23.636477648162842,9.13741837408142,24.145577648162842,9.13741837408142,24.54657764816284,9.388525074081421L37.54657764816284,17.15841507408142C38.27997764816284,17.460925074081423,38.57827764816284,18.34078507408142,38.17997764816285,19.02687507408142C37.78167764816284,19.71299507408142,36.86967764816284,19.890295074081422,36.24337764816284,19.40349507408142L35.77447764816284,19.11006507408142L35.73637764816284,28.93549507408142C35.73637764816284,30.38159507408142,34.48437764816284,31.51449507408142,33.07767764816284,31.51449507408142L25.27067764816284,31.51449507408142L25.27067764816284,32.612095074081424C25.274977648162842,32.96259507408142,24.99547764816284,33.250795074081424,24.644977648162843,33.25659507408142C24.531077648162842,33.25649507408142,24.41927764816284,33.22489507408142,24.32247764816284,33.16499507408142L20.32917764816284,30.708695074081422C19.924277648162843,30.45139507408142,19.924277648162843,29.86059507408142,20.32917764816284,29.60329507408142L24.32427764816284,27.27969507408142C24.621677648162844,27.09719507408142,25.010777648162843,27.19739507408142,25.18297764816284,27.50099507408142C25.241477648162842,27.60169507408142,25.27247764816284,27.716295074081422,25.27237764816284,27.83269507408142L25.27237764816284,28.93549507408142L31.806977648162842,28.93549507408142C32.510377648162844,28.93549507408142,33.11707764816284,28.34849507408142,33.11707764816284,27.62539507408142L33.11677764816284,17.451815074081424L24.659277648162842,12.45875507408142C24.25037764816284,12.197185074081421,23.72677764816284,12.197185074081421,23.31797764816284,12.45875507408142L14.781837648162842,17.45312507408142L14.782117648162842,35.483295074081425L33.11707764816284,35.483295074081425L33.11707764816284,34.160495074081425C33.11707764816284,33.436195074081425,33.72287764816284,32.86359507408142,34.42627764816284,32.86359507408142C35.12967764816284,32.86359507408142,35.65747764816284,33.436195074081425,35.65747764816284,34.160495074081425L35.65747764816284,36.77849507408142C35.65747764816284,37.50149507408142,35.14937764816284,38.088595074081425,34.42627764816284,38.088595074081425L13.458017648162842,38.088595074081425C12.754647648162841,38.088595074081425,12.159327648162842,37.49619507408142,12.159327648162842,36.76659507408142L12.159557648162842,19.09303507408142ZM21.328177648162843,21.06059507408142L26.567577648162843,21.06059507408142C27.29097764816284,21.06059507408142,27.87767764816284,21.64729507408142,27.87767764816284,22.37069507408142C27.87767764816284,23.094095074081423,27.29097764816284,23.68029507408142,26.567577648162843,23.68029507408142L21.328177648162843,23.68029507408142C20.60477764816284,23.68029507408142,20.018977648162842,23.094095074081423,20.018977648162842,22.37069507408142C20.018977648162842,21.64729507408142,20.60477764816284,21.06059507408142,21.328177648162843,21.06059507408142Z" fill="#FAFBFF" fill-opacity="1"/></g><g><path d="M7.13293,19.93705703125L7.13294,19.938657031250003L6.57746,20.28955703125C5.6786,20.69845703125,4.61909,20.31525703125,4.185748,19.42455703125C3.752407,18.53385703125,4.102244,17.45845703125,4.97546,16.996857031250002L22.935,6.11956103125C23.4935,5.76808903125,24.2028,5.76808903125,24.7614,6.11956103125L42.8706,16.99505703125C43.8922,17.41845703125,44.3076,18.64995703125,43.7528,19.61025703125C43.198,20.57055703125,41.9276,20.818857031249998,41.0551,20.137357031249998L40.4473,19.75525703125L40.4473,19.75385703125L36.6998,17.40925703125L36.6998,17.40565703125L24.9183,10.41693703125C24.3488,10.05081703125,23.6194,10.05081703125,23.0499,10.41693703125L11.194379999999999,17.38675703125L11.191130000000001,17.38565703125L7.13293,19.93705703125Z" fill-rule="evenodd" fill="#8FB8FF" fill-opacity="1"/><path d="M12.1569,19.14085703125L8.72994,21.295457031250002L7.53001,22.05345703125L7.4055800000000005,22.11005703125Q5.98956,22.75415703125,4.526836,22.22515703125Q3.0673719999999998,21.69735703125,2.3873100000000003,20.29955703125Q1.70911,18.905557031249998,2.18874,17.431157031250002Q2.6589400000000003,15.98565703125,3.9817761,15.26045703125L21.8989,4.40885703125Q23.8482,3.18192703125,25.8266,4.4267970312500005L43.7916,15.21521703125Q45.2689,15.89385703125,45.7979,17.462057031249998Q46.353,19.10755703125,45.4845,20.61075703125Q44.6132,22.11895703125,42.9066,22.45235703125Q41.255,22.77505703125,39.9167,21.78405703125L38.9435,21.17225703125L35.5503,19.04925703125L23.9838,12.18796703125L12.1569,19.14085703125ZM23.4811,8.12699703125Q23.8213,8.07243703125,24.1614,8.091667031250001L23.8491,7.90412703125L23.4811,8.12699703125ZM23.9627,7.83534703125Q23.9669,7.83290703125,23.9711,7.83026703125L23.9627,7.83534703125ZM23.7131,7.8224670312499995Q23.7047,7.81766703125,23.6963,7.81232703125L23.7131,7.8224670312499995Z" fill-rule="evenodd" fill="#8FB8FF" fill-opacity="1"/></g></g></g></svg>