<svg xmlns="http://www.w3.org/2000/svg" xmlns:xlink="http://www.w3.org/1999/xlink" fill="none" version="1.1" width="64" height="64" viewBox="0 0 64 64"><defs><clipPath id="master_svg0_163_36339"><rect x="0" y="0" width="64" height="64" rx="0"/></clipPath><clipPath id="master_svg1_163_36342"><rect x="5.3330078125" y="0" width="53.33333206176758" height="64" rx="0"/></clipPath><linearGradient x1="0.5" y1="0" x2="0.5" y2="1" id="master_svg2_163_35980"><stop offset="0%" stop-color="#B3DFFF" stop-opacity="1"/><stop offset="94.28571462631226%" stop-color="#EDF7FF" stop-opacity="1"/></linearGradient><clipPath id="master_svg3_163_36352"><rect x="34" y="40" width="24" height="24" rx="0"/></clipPath></defs><g clip-path="url(#master_svg0_163_36339)"><g clip-path="url(#master_svg1_163_36342)"><g><path d="M5.3330078125,0L5.3330078125,64L58.6663078125,64L58.6663078125,17.3333L41.3330078125,0L5.3330078125,0Z" fill="url(#master_svg2_163_35980)" fill-opacity="1"/></g><g><g><rect x="10.666015625" y="9.33349609375" width="16" height="5.333333492279053" rx="0" fill="#FFFFFF" fill-opacity="0.8999999761581421"/></g><g><rect x="31.99934959411621" y="9.33349609375" width="16" height="5.333333492279053" rx="0" fill="#FFFFFF" fill-opacity="0.8999999761581421"/></g><g><rect x="10.666015625" y="20" width="16" height="5.333333492279053" rx="0" fill="#FFFFFF" fill-opacity="0.7799999713897705"/></g><g><rect x="31.99934959411621" y="20.000163078308105" width="16" height="5.333333492279053" rx="0" fill="#FFFFFF" fill-opacity="0.7799999713897705"/></g><g><rect x="10.666015625" y="30.6669921875" width="16" height="5.333333492279053" rx="0" fill="#FFFFFF" fill-opacity="0.6800000071525574"/></g><g><rect x="31.99934959411621" y="30.66683006286621" width="16" height="5.333333492279053" rx="0" fill="#FFFFFF" fill-opacity="0.6800000071525574"/></g><g><rect x="10.666015625" y="41.33349609375" width="16" height="5.333333492279053" rx="0" fill="#FFFFFF" fill-opacity="0.46000000834465027"/></g><g><rect x="31.99934959411621" y="41.33349609375" width="16" height="5.333333492279053" rx="0" fill="#FFFFFF" fill-opacity="0.46000000834465027"/></g></g><g transform="matrix(-1,0,0,-1,117.33203125,34.6669921875)"><path d="M58.666015625,17.33349609375L75.99931562500001,34.66679609375L75.99931562500001,17.33349609375L58.666015625,17.33349609375Z" fill="#76BFFE" fill-opacity="1"/></g><g clip-path="url(#master_svg3_163_36352)"><g><path d="M46.8571,62.800048828125C46.8571,62.800048828125,46.8571,57.657148828125,46.8571,57.657148828125C46.8571,57.657148828125,50.2857,57.657148828125,50.2857,57.657148828125C50.2857,57.657148828125,46,52.514338828125,46,52.514338828125C46,52.514338828125,41.71429,57.657148828125,41.71429,57.657148828125C41.71429,57.657148828125,45.1429,57.657148828125,45.1429,57.657148828125C45.1429,57.657148828125,45.1429,62.800048828125,45.1429,62.800048828125C45.1429,62.800048828125,40.42857,62.800048828125,40.42857,62.800048828125C38.628569999999996,62.714348828125,37.08571,62.114348828125,35.88571,60.914348828125C34.685714,59.714348828125,34.0857143,58.171448828125,34,56.371448828125C34,54.657188828125,34.6,53.285758828125,35.62857,52.085758828125C36.65714,50.885758828125,38.02857,50.200048828125,39.65714,50.028618828125C40,48.485758828125,40.68571,47.200048828125,41.88572,46.257188828125C43.08572,45.314334828125,44.4571,44.800048828125,46,44.800048828125C47.5429,44.800048828125,48.9143,45.314334828125,50.1143,46.257188828125C51.3143,47.200048828125,52,48.485758828125,52.3429,50.028618828125C53.9714,50.200048828125,55.3429,50.971478828125,56.3714,52.085758828125C57.4,53.285758828125,58,54.657188828125,58,56.371448828125C57.9143,58.171448828125,57.3143,59.714348828125,56.1143,60.914348828125C54.9143,62.114348828125,53.3714,62.714348828125,51.5714,62.800048828125C51.5714,62.800048828125,46.8571,62.800048828125,46.8571,62.800048828125Z" fill="#2588FD" fill-opacity="1"/></g></g></g></g></svg>