<svg xmlns="http://www.w3.org/2000/svg" xmlns:xlink="http://www.w3.org/1999/xlink" fill="none" version="1.1" width="20" height="20" viewBox="0 0 20 20"><defs><clipPath id="master_svg0_93_05955"><rect x="0" y="0" width="20" height="20" rx="0"/></clipPath></defs><g clip-path="url(#master_svg0_93_05955)"><g><rect x="4" y="15" width="12" height="4" rx="0" fill="#00E5E5" fill-opacity="1"/></g><g><rect x="0" y="2" width="20" height="14" rx="0" fill="#1A64FA" fill-opacity="1"/></g><g><path d="M11.20711,11.70711L14.20711,8.707107Q14.34776,8.566454,14.42388,8.382683Q14.5,8.198912,14.5,8Q14.5,7.9015086,14.48078,7.80491Q14.46157,7.708311,14.42388,7.617317Q14.38619,7.526322,14.33147,7.44443Q14.27675,7.362537,14.20711,7.292893Q14.13746,7.223249,14.05557,7.16853Q13.97368,7.113812,13.88268,7.076121Q13.79169,7.03843,13.69509,7.019215Q13.59849,7,13.5,7Q13.30109,7,13.11732,7.0761199999999995Q12.93355,7.152241,12.79289,7.292893L12.792580000000001,7.293207L10.5672,9.51859L8.76822,7.359816Q8.64088,7.207007,8.46476,7.114561Q8.28863,7.0221160000000005,8.09054,7.004107Q7.892440000000001,6.9861,7.702529999999999,7.045268Q7.51262,7.104438,7.35982,7.2317789999999995Q7.32497,7.260818,7.29289,7.292893L4.292893,10.29289Q4.152241,10.43355,4.0761199999999995,10.61732Q4,10.80109,4,11Q4,11.09849,4.019215,11.19509Q4.03843,11.29169,4.076121,11.38268Q4.113812,11.47368,4.16853,11.55557Q4.223249,11.63746,4.292893,11.70711Q4.362537,11.77675,4.44443,11.83147Q4.526322,11.88619,4.617317,11.92388Q4.708311,11.96157,4.80491,11.98078Q4.9015086,12,5,12Q5.198912,12,5.382683,11.92388Q5.566454,11.847760000000001,5.707107,11.70711L7.9328,9.48141L9.73178,11.64018Q9.760819999999999,11.67503,9.79289,11.70711Q9.93355,11.847760000000001,10.11732,11.92388Q10.30109,12,10.5,12Q10.69891,12,10.88268,11.92388Q11.06645,11.847760000000001,11.20711,11.70711Z" fill-rule="evenodd" fill="#FFFFFF" fill-opacity="1"/></g></g></svg>