<svg xmlns="http://www.w3.org/2000/svg" xmlns:xlink="http://www.w3.org/1999/xlink" fill="none" version="1.1" width="48" height="48" viewBox="0 0 48 48"><defs><linearGradient x1="0.1055908203125" y1="0.2517225444316864" x2="0.5649941713897868" y2="0.9577064883799274" id="master_svg0_87_9663"><stop offset="0%" stop-color="#7F9DFF" stop-opacity="1"/><stop offset="100%" stop-color="#63A1FF" stop-opacity="0"/></linearGradient><filter id="master_svg1_132_40065" filterUnits="objectBoundingBox" color-interpolation-filters="sRGB" x="-0.20895116310706027" y="-0.13846410530379444" width="1.4179023262141206" height="1.4153923159113833"><feFlood flood-opacity="0" result="BackgroundImageFix"/><feColorMatrix in="SourceAlpha" type="matrix" values="0 0 0 0 0 0 0 0 0 0 0 0 0 0 0 0 0 0 127 0"/><feOffset dy="2" dx="0"/><feGaussianBlur stdDeviation="1.5"/><feColorMatrix type="matrix" values="0 0 0 0 0.19607843458652496 0 0 0 0 0.14901961386203766 0 0 0 0 0.6901960968971252 0 0 0 0.36000001430511475 0"/><feBlend mode="normal" in2="BackgroundImageFix" result="effect1_dropShadow"/><feBlend mode="normal" in="SourceGraphic" in2="effect1_dropShadow" result="shape"/></filter><filter id="master_svg2_132_40063" filterUnits="objectBoundingBox" color-interpolation-filters="sRGB" x="-0.4146868250539957" y="-0.3870409907974155" width="1.8293736501079914" height="2.1611229723922465"><feFlood flood-opacity="0" result="BackgroundImageFix"/><feColorMatrix in="SourceAlpha" type="matrix" values="0 0 0 0 0 0 0 0 0 0 0 0 0 0 0 0 0 0 127 0"/><feOffset dy="2" dx="0"/><feGaussianBlur stdDeviation="1.5"/><feColorMatrix type="matrix" values="0 0 0 0 0.125490203499794 0 0 0 0 0.27843138575553894 0 0 0 0 0.6392157077789307 0 0 0 0.5 0"/><feBlend mode="normal" in2="BackgroundImageFix" result="effect1_dropShadow"/><feBlend mode="normal" in="SourceGraphic" in2="effect1_dropShadow" result="shape"/></filter></defs><g><g><g><path d="M4.97546,19.082831249999998C4.102244,19.53603125,3.752407,20.591931250000002,4.185748,21.46643125C4.61909,22.34093125,5.6786,22.71713125,6.57746,22.31573125L7.5061800000000005,21.73973125L7.5061800000000005,42.32833125C7.5061800000000005,43.33093125,8.33455,44.14453125,9.31436,44.14453125L38.5244,44.14453125C39.5315,44.14453125,40.2395,43.33813125,40.2395,42.34453125L40.2395,38.74623125L40.349,31.56603125L40.4019,21.76313125L41.0551,22.16633125C41.9276,22.83533125,43.198,22.59163125,43.7528,21.64873125C44.3076,20.70593125,43.8922,19.49683125,42.8706,19.081031250000002L24.7614,8.40334325C24.2028,8.05826085,23.4936,8.05826085,22.935,8.40334325L4.97546,19.082831249999998Z" fill="#687DFE" fill-opacity="1"/><path d="M4.97546,19.082831249999998C4.102244,19.53603125,3.752407,20.591931250000002,4.185748,21.46643125C4.61909,22.34093125,5.6786,22.71713125,6.57746,22.31573125L7.5061800000000005,21.73973125L7.5061800000000005,42.32833125C7.5061800000000005,43.33093125,8.33455,44.14453125,9.31436,44.14453125L38.5244,44.14453125C39.5315,44.14453125,40.2395,43.33813125,40.2395,42.34453125L40.2395,38.74623125L40.349,31.56603125L40.4019,21.76313125L41.0551,22.16633125C41.9276,22.83533125,43.198,22.59163125,43.7528,21.64873125C44.3076,20.70593125,43.8922,19.49683125,42.8706,19.081031250000002L24.7614,8.40334325C24.2028,8.05826085,23.4936,8.05826085,22.935,8.40334325L4.97546,19.082831249999998Z" fill="url(#master_svg0_87_9663)" fill-opacity="1"/></g><g filter="url(#master_svg1_132_40065)"><path d="M36.243378125,19.4034953125C36.869678125,19.8902953125,37.781678125,19.7129953125,38.179978125000005,19.0268753125C38.578278125,18.3407853125,38.279978125,17.4609353125,37.546578124999996,17.1584153125L24.546578125,9.3885253125C24.145578125,9.1374186125,23.636478125,9.1374186125,23.235478125,9.3885253125L10.342832125,17.1597253125C9.715975925,17.4895053125,9.464838125,18.2578553125,9.775921125,18.894195312500003C10.087005125,19.5304953125,10.847598125,19.804295312500003,11.492858125,19.512195312499998L12.159558125,19.0930353125L12.159338125,36.7665953125C12.159338125,37.4961953125,12.754648125,38.088595312500004,13.458018125,38.088595312500004L34.426278124999996,38.088595312500004C35.149378125,38.088595312500004,35.657478125,37.5014953125,35.657478125,36.7784953125L35.657178125,31.3827953125C35.657178125,30.6584953125,35.130178125,30.0858953125,34.426778125,30.0858953125C33.723378124999996,30.0858953125,33.117178124999995,30.6584953125,33.117178124999995,31.3827953125L33.117078125,35.483295312500005L14.782118125,35.483295312500005L14.781838125,17.4531253125L23.318378125000002,11.4589853125C23.727178125000002,11.197405312499999,24.250378124999997,11.197405312499999,24.659178125,11.4589853125C32.107978125,15.8565353125,42.165878125,23.1091953125,36.243378125,19.4034953125Z" fill="#FAFBFF" fill-opacity="1"/></g><g filter="url(#master_svg2_132_40063)"><path d="M19.133750374999998,22.6791584375C19.129168375,22.6791584375,19.125310375,22.6812184375,19.120969375,22.6815684375L19.146651375,22.6815684375C19.142069375,22.6811084375,19.138211375,22.6791584375,19.133750374999998,22.6791584375ZM19.040306375,22.8950384375L19.038497375,22.8927384375C19.039221375,22.8935484375,19.039582375,22.8944684375,19.040306375,22.8950384375ZM33.334034375,24.6509284375L27.003904374999998,19.4833984375L27.003904374999998,22.0672184375Q22.868134375,22.5444584375,20.928234375,24.131538437499998Q18.921783075,25.7733984375,18.865234375,29.8181984375L19.200668375,29.787198437500003Q20.401334375,27.2071884375,23.455204375,27.2343984375C25.099334374999998,27.2488684375,26.274924375,27.2474884375,27.003904374999998,27.2434684375L27.003904374999998,29.8181984375L33.334034375,24.6509284375Z" fill="#FAFBFF" fill-opacity="1"/></g><g><path d="M7.13293,19.93705703125L7.13294,19.938657031250003L6.57746,20.28955703125C5.6786,20.69845703125,4.61909,20.31525703125,4.185748,19.42455703125C3.752407,18.53385703125,4.102244,17.45845703125,4.97546,16.996857031250002L22.935,6.11956103125C23.4936,5.76808903125,24.2028,5.76808903125,24.7614,6.11956103125L42.8706,16.99505703125C43.8922,17.41845703125,44.3076,18.64995703125,43.7528,19.61025703125C43.198,20.57055703125,41.9276,20.818857031249998,41.0551,20.137357031249998L40.4473,19.75525703125L40.4473,19.75385703125L36.6998,17.40925703125L36.6998,17.40565703125L24.9183,10.41693703125C24.3488,10.05081703125,23.6194,10.05081703125,23.0499,10.41693703125L11.194379999999999,17.38675703125L11.191130000000001,17.38565703125L7.13293,19.93705703125Z" fill-rule="evenodd" fill="#8FB8FF" fill-opacity="1"/><path d="M12.15691,19.14085703125L8.73068,21.29495703125L7.53001,22.05345703125L7.4055800000000005,22.11005703125Q5.98956,22.75415703125,4.52684,22.22515703125Q3.067374,21.69735703125,2.3873100000000003,20.29955703125Q1.70911,18.905557031249998,2.18874,17.431157031250002Q2.6589400000000003,15.98565703125,3.9817771,15.26045703125L21.8989,4.40885703125Q23.8482,3.18192703125,25.8266,4.4267970312500005L43.7916,15.21521703125Q45.2689,15.89385703125,45.7979,17.462057031249998Q46.353,19.10755703125,45.4845,20.61075703125Q44.6132,22.11895703125,42.9066,22.45235703125Q41.255,22.77505703125,39.9167,21.78415703125L38.9442,21.17265703125L35.5503,19.04925703125L23.9838,12.18796703125L12.15691,19.14085703125ZM23.4811,8.12699703125Q23.8213,8.07243703125,24.1614,8.091667031250001L23.8491,7.90412703125L23.4811,8.12699703125ZM23.9627,7.83533703125Q23.9669,7.83290703125,23.9711,7.83026703125L23.9627,7.83533703125ZM23.7132,7.82247703125Q23.7048,7.81767703125,23.6963,7.81232703125L23.7132,7.82247703125Z" fill-rule="evenodd" fill="#C0CFFF" fill-opacity="1"/></g></g></g></svg>