<svg xmlns="http://www.w3.org/2000/svg" xmlns:xlink="http://www.w3.org/1999/xlink" fill="none" version="1.1" width="20" height="20" viewBox="0 0 20 20"><defs><clipPath id="master_svg0_254_68267"><rect x="0" y="0" width="20" height="20" rx="0"/></clipPath><clipPath id="master_svg1_254_68276"><rect x="0" y="0" width="20" height="20" rx="0"/></clipPath></defs><g clip-path="url(#master_svg0_254_68267)"><g clip-path="url(#master_svg1_254_68276)"><g><path d="M9.9974025,1.69921875C10.9188625,1.69921875,11.7614625,2.18544975,12.2420625,2.9872087499999997L18.9372625,14.14421875C19.4360625,14.97541875,19.4622625,16.01881875,19.0069625,16.87431875C18.5466625,17.74201875,17.6596625,18.28591875,16.6925625,18.28591875L3.3022025,18.28591875C2.3350925,18.28591875,1.4481435,17.74201875,0.9883584999999999,16.875318749999998C0.5324795,16.01881875,0.5587685,14.97541875,1.0575575,14.14421875L7.7525425,2.98757875C8.2333025,2.18542975,9.0759525,1.69921875,9.9974025,1.69921875ZM9.9974025,3.29921875C9.6431225,3.29921875,9.3190625,3.4862087500000003,9.1246825,3.81048875L2.4295125,14.96741875C2.2198025,15.31691875,2.2085925,15.76251875,2.4012725,16.12451875C2.5864825,16.47361875,2.9326125,16.68591875,3.3022025,16.68591875L16.6925625,16.68591875C17.0621625,16.68591875,17.4082625,16.47361875,17.5940625,16.12361875C17.7861625,15.76251875,17.7749625,15.31691875,17.5652625,14.96751875L10.8698625,3.81013875C10.6757625,3.4862087500000003,10.3516825,3.29921875,9.9974025,3.29921875ZM9.9974025,12.77081875C10.5866425,12.77081875,11.0642625,13.26841875,11.0642625,13.88211875C11.0642625,14.49581875,10.5866425,14.99331875,9.9974025,14.99331875C9.4081625,14.99331875,8.9305125,14.49581875,8.9305125,13.88211875C8.9305125,13.26841875,9.4081625,12.77081875,9.9974025,12.77081875ZM9.9974025,7.11567875C10.4391625,7.11567875,10.7975625,7.48898875,10.7975625,7.94911875L10.7975625,11.10378875C10.7975625,11.56392875,10.4391825,11.93721875,9.9973825,11.93721875C9.5556225,11.93721875,9.1972225,11.56392875,9.1972225,11.10380875L9.1972225,7.94911875C9.1972225,7.48897875,9.5556225,7.11567875,9.9974025,7.11567875Z" fill="#FF3F57" fill-opacity="1" style="mix-blend-mode:passthrough"/></g></g></g></svg>