<svg xmlns="http://www.w3.org/2000/svg" xmlns:xlink="http://www.w3.org/1999/xlink" fill="none" version="1.1" width="24" height="24" viewBox="0 0 24 24"><defs><clipPath id="master_svg0_2050_49080"><rect x="0" y="0" width="24" height="24" rx="0"/></clipPath></defs><g clip-path="url(#master_svg0_2050_49080)"><path d="M0.747436583046753,7.2498779C0.747436583046753,6.1912689,0.7418413758467529,5.4615216,0.748779297046753,4.7319946C0.759709179046753,3.5774395,1.370029811046753,2.9725814,2.559082001046753,2.9873657C3.691392401046753,3.0014341,4.817123201046753,2.9627373,5.931152101046753,2.751709C7.430538901046753,2.4676404,9.592975401046752,1.5849061,10.699322501046753,0.61395705C11.596487901046753,-0.17352289,12.274806901046754,-0.20430303,13.200218901046753,0.52643484C13.347758901046753,0.6430577,13.506009901046752,0.74792475,13.643419901046753,0.87531251C15.497658901046753,2.5950048,18.74124790104675,3.10288,21.194458901046755,2.987854C22.666286901046753,2.9187777,23.262626901046755,3.5024099,23.258056901046753,4.9806519C23.249824901046754,7.7079654,23.367655901046753,10.441071,22.810669901046754,13.140137C22.001659901046754,17.06077,20.222219901046753,20.338078,16.811466901046753,22.663818C14.190920901046752,24.450716,9.726992401046752,24.447062,7.115422001046753,22.642822C3.939868701046753,20.449068,2.1791807010467528,17.407738,1.323120121046753,13.750854C0.7968027590467529,11.502643,0.6999726300467529,9.2175732,0.747436583046753,7.2498779Z" fill="#D6EAFF" fill-opacity="1" style="mix-blend-mode:passthrough"/><path d="M18.150867953125,16.368734878906253L18.150867953125,17.91997287890625L5.848876953125,17.91997287890625L5.848876953125,16.368734878906253L18.150867953125,16.368734878906253ZM5.929811135125,9.745623578906251Q7.710362353125,9.300485878906251,8.411791753125,8.05949547890625L6.159124553125,8.05949547890625L6.159124553125,6.41383432890625L11.109596753125,6.41383432890625L11.109596753125,5.56402587890625L12.890148153125,5.56402587890625L12.890148153125,6.41383432890625L17.840618953125002,6.41383432890625L17.840618953125002,8.05949547890625L15.587952653125,8.05949547890625Q16.289381953125,9.300485878906251,18.069932953125,9.745623578906251L18.069932953125,11.47221897890625Q17.301058953125,11.26988317890625,16.896387953125,11.10801507890625L16.896387953125,15.85615187890625L7.103356253125,15.85615187890625L7.103356253125,11.10801507890625Q6.698685523125,11.26988317890625,5.929811135125,11.47221897890625L5.929811135125,9.745623578906251ZM16.491716953125,10.946146978906249Q14.360451653125,10.01540377890625,13.766934853125,8.05949547890625L12.863169653125,8.05949547890625L12.863169653125,10.433563278906249L11.136574753125,10.433563278906249L11.136574753125,8.05949547890625L10.232810053125,8.05949547890625Q9.639293153125,10.01540377890625,7.508026853125,10.946146978906249L16.491716953125,10.946146978906249ZM15.142814653125,14.54771617890625L15.142814653125,13.96768857890625L8.856929553125,13.96768857890625L8.856929553125,14.54771617890625L15.142814653125,14.54771617890625ZM15.142814653125,12.79414317890625L15.142814653125,12.24109267890625L8.856929553125,12.24109267890625L8.856929553125,12.79414317890625L15.142814653125,12.79414317890625Z" fill="#1677FF" fill-opacity="1"/></g></svg>