<svg xmlns="http://www.w3.org/2000/svg" xmlns:xlink="http://www.w3.org/1999/xlink" fill="none" version="1.1" width="24" height="24" viewBox="0 0 24 24"><defs><clipPath id="master_svg0_2050_49024"><rect x="0" y="0" width="24" height="24" rx="4"/></clipPath></defs><g clip-path="url(#master_svg0_2050_49024)"><rect x="0" y="0" width="24" height="24" rx="4" fill="#FFFFFF" fill-opacity="1"/><path d="M15.415688828125,14.73252746484375C16.044499828124998,14.73252746484375,16.554249828125002,15.24227946484375,16.554249828125002,15.87108946484375L16.554249828125002,18.603639464843752C16.554249828125002,19.23245146484375,16.044499828124998,19.742201464843752,15.415688828125,19.742201464843752L8.584312428125,19.742201464843752C7.955501128125,19.742200464843748,7.445750228125,19.23245046484375,7.445749328125,18.603639464843752L7.445749328125,15.87108946484375C7.445750228125,15.24227946484375,7.955501128125,14.73252746484375,8.584312428125,14.73252746484375L15.415688828125,14.73252746484375ZM16.326537828124998,4.25775179058911C17.172946828125,4.25768664151875,17.871815828125,4.91916406484375,17.918247828125,5.76429776484375L17.920524828125,5.85173926484375L17.920524828125,6.53487656484375L18.148237828124998,6.53487656484375C19.492543828125,6.534769264843749,20.597238828125,7.595844464843751,20.651254828125,8.93906496484375L20.653075828125,9.039714764843751L20.653075828125,15.87109046484375C20.653184828125,17.21539746484375,19.592107828125,18.32009046484375,18.248885828124997,18.37410646484375L18.148237828124998,18.37592746484375L17.920524828125,18.37592746484375L17.920524828125,15.87109046484375C17.920526828125,14.48770846484375,16.799071828125,13.36625386484375,15.415688828125,13.36625386484375L8.584312428125,13.36625386484375C7.200928428125,13.36625386484375,6.079474228125,14.48770846484375,6.079473928125,15.87109046484375L6.079473928125,18.37592746484375L5.851761628125,18.37592746484375C4.507454528125,18.376037464843748,3.402761798125,17.314962464843752,3.348745233625,15.97173946484375L3.346923828125,15.87108946484375L3.346923828125,9.039713864843751C3.346816006405,7.6954071648437505,4.407891628125,6.59071536484375,5.751112928125,6.536698064843749L5.851761628125,6.53487656484375L6.079474228125,6.53487656484375L6.079474228125,5.85173926484375C6.079409328125,5.00533092484375,6.740886428125,4.30646017184375,7.586020428125,4.26002875064375L7.673462428125,4.25775146484375L16.326537828124998,4.25775179058911ZM17.237388828125,9.26742696484375L16.326537828124998,9.26742696484375C15.962145828125,9.26760676484375,15.662038828125,9.55376246484375,15.644526828125,9.91773466484375C15.627013828125,10.28170826484375,15.898263828125,10.59535316484375,16.260955828125,10.63051366484375L16.326537828124998,10.63370276484375L17.237388828125,10.63370276484375C17.614675828125,10.63370276484375,17.920526828125,10.32785086484375,17.920526828125,9.95056486484375C17.920526828125,9.57327746484375,17.614675828125,9.26742696484375,17.237388828125,9.26742696484375ZM16.326537828124998,5.62402656484375L7.673462428125,5.62402656484375C7.563480328125,5.62399006484375,7.469190128125,5.70256566484375,7.449393228125,5.81075096484375L7.445749328125,5.85173926484375L7.445749328125,6.53487656484375L16.554249828125002,6.53487656484375L16.554249828125002,5.85173926484375C16.554286828125,5.74175786484375,16.475711828125,5.64746686484375,16.367525828125,5.62767006484375L16.326537828124998,5.62402656484375Z" fill="#1677FF" fill-opacity="1"/></g></svg>