<svg xmlns="http://www.w3.org/2000/svg" xmlns:xlink="http://www.w3.org/1999/xlink" fill="none" version="1.1" width="24" height="24" viewBox="0 0 24 24"><defs><clipPath id="master_svg0_2050_49130"><rect x="0" y="0" width="24" height="24" rx="4"/></clipPath></defs><g clip-path="url(#master_svg0_2050_49130)"><rect x="0" y="0" width="24" height="24" rx="4" fill="#D6EAFF" fill-opacity="1"/><path d="M16.368024390625,4Q16.672024390624998,4,16.936024390625,4.112Q17.200024390625,4.22400001,17.400024390625,4.42400002Q17.600024390625002,4.62400007,17.712024390625,4.88800001Q17.824025390625,5.152,17.824025390625,5.4560001L17.824025390625,18.544001Q17.824025390625,19.152,17.400025390625,19.576Q16.976025390625,20,16.368025390625,20L7.632025490625,20Q7.024025440625,20,6.600025410625,19.576Q6.176025390625,19.152,6.176025390625,18.544001L6.176025390625,5.4560002999999995Q6.176025390625,5.1520003,6.288025380625,4.88800031Q6.400025370625,4.62400031,6.600025410625,4.42400032Q6.800025460625,4.22400033,7.064025400625,4.11200032Q7.328025390625,4.00000029802322,7.632025490625,4.00000031292439L16.368024390625,4ZM10.544024490624999,5.4559999999999995L13.440024390625,5.4559999999999995L13.440024390625,4.71999997L10.544024490624999,4.71999997L10.544024490624999,5.4559999999999995ZM11.984024990624999,19.264Q12.288024890625,19.264,12.552024890624999,19.151999Q12.816024790625,19.039999,13.016024590625001,18.839999Q13.216024390625,18.639999,13.328024890624999,18.375999Q13.440025290625,18.112000000000002,13.440025290625,17.808Q13.440025290625,17.503999999999998,13.328024890624999,17.240000000000002Q13.216024390625,16.976,13.016024590625001,16.783999Q12.816024790625,16.591999,12.552024890624999,16.48Q12.288024890625,16.368000000000002,11.984024990624999,16.367998999999998Q11.376025190625,16.367998999999998,10.960024790624999,16.783999Q10.544024490624999,17.2,10.544024490624999,17.808Q10.544025390625,18.415999,10.960024790624999,18.839999Q11.376024290625,19.263999,11.984024990624999,19.264ZM16.368024390625,6.1760000999999995L7.632024490625,6.1760000999999995L7.632024490625,15.632L16.368024390625,15.632L16.368024390625,6.1760000999999995Z" fill="#1677FF" fill-opacity="1"/></g></svg>