<svg xmlns="http://www.w3.org/2000/svg" xmlns:xlink="http://www.w3.org/1999/xlink" fill="none" version="1.1" width="24" height="24" viewBox="0 0 24 24"><defs><clipPath id="master_svg0_2050_49032"><rect x="0" y="0" width="24" height="24" rx="5"/></clipPath><clipPath id="master_svg1_2050_49033"><rect x="4" y="4" width="16" height="16" rx="0"/></clipPath></defs><g clip-path="url(#master_svg0_2050_49032)"><rect x="0" y="0" width="24" height="24" rx="5" fill="#FFFFFF" fill-opacity="1"/><g clip-path="url(#master_svg1_2050_49033)"><path d="M16.3840156015625,4Q16.688015601562498,4,16.9520156015625,4.112Q17.2160156015625,4.22400001,17.4160156015625,4.42400002Q17.616015601562502,4.62400007,17.7280156015625,4.88800001Q17.8400166015625,5.152,17.8400166015625,5.4560001L17.8400166015625,18.544001Q17.8400166015625,19.152,17.4160166015625,19.576Q16.9920166015625,20,16.3840166015625,20L7.6480167015625,20Q7.0400166515625,20,6.6160166215625,19.576Q6.1920166015625,19.152,6.1920166015625,18.544001L6.1920166015625,5.4560002999999995Q6.1920166015625,5.1520003,6.3040165915625,4.88800031Q6.4160165815625,4.62400031,6.6160166215625,4.42400032Q6.8160166715625,4.22400033,7.0800166115625,4.11200032Q7.3440166015625,4.00000029802322,7.6480167015625,4.00000031292439L16.3840156015625,4ZM10.560015701562499,5.4559999999999995L13.4560156015625,5.4559999999999995L13.4560156015625,4.71999997L10.560015701562499,4.71999997L10.560015701562499,5.4559999999999995ZM12.000016201562499,19.264Q12.3040161015625,19.264,12.568016101562499,19.151999Q12.8320160015625,19.039999,13.032015801562501,18.839999Q13.2320156015625,18.639999,13.344016101562499,18.375999Q13.4560165015625,18.112000000000002,13.4560165015625,17.808Q13.4560165015625,17.503999999999998,13.344016101562499,17.240000000000002Q13.2320156015625,16.976,13.032015801562501,16.783999Q12.8320160015625,16.591999,12.568016101562499,16.48Q12.3040161015625,16.368000000000002,12.000016201562499,16.367998999999998Q11.3920164015625,16.367998999999998,10.976016001562499,16.783999Q10.560015701562499,17.2,10.560015701562499,17.808Q10.5600166015625,18.415999,10.976016001562499,18.839999Q11.3920155015625,19.263999,12.000016201562499,19.264ZM16.3840156015625,6.1760000999999995L7.6480157015625,6.1760000999999995L7.6480157015625,15.632L16.3840156015625,15.632L16.3840156015625,6.1760000999999995Z" fill="#1677FF" fill-opacity="1"/></g></g></svg>